<svg width="588.13" height="712.81" overflow="hidden" version="1.1" xlink="http://www.w3.org/1999/xlink" xmlns="http://www.w3.org/2000/svg">
 <g id="svga-group-wrapper" transform="matrix(3 0 0 3 -6.087 25.846)">
  <g id="svga-group-subwrapper">
   <g id="svga-group-hair-back" stroke-width="none">
    <path d="m156.79 87.186c1.245-4.645 2.08-9.934 2.312-14.214h11.529c1.834 3.925 2.658 6.08 3.9 7.933-1.84-0.72-3.965-1.467-7.809-4.972 0.318 0.854 4.324 12.487 4.587 14.493-3.391-2.793-4.635-5.812-6.713-8.063 1.206 8.371 1.873 12.796-2.654 23.504-2.761-15.502-4.493-18.245-5.152-18.681zm-122.28-12.587c-0.217 8.956-2.898 15.556-12.347 23.446 2.96-0.94 5.61-2.43 10.271-5.06 0.8-2.13 1.51-4.561 1.79-6.8-0.82 7.9-5.598 13.347-1.274 22.677 0.606-7.783 3.254-13.309 10.093-17.755-0.216 0.149-0.716 0.513-1.372 1.089 0.747-0.612 1.527-1.188 2.333-1.728-1.567-4.835-2.861-12.029-2.909-15.869zm-1.028 6.633c-1.485-1.845-2.84-4.664-3.422-6.633h4.441c-0.153 1.387-0.459 4.468-1.019 6.633z" fill="#1b141c"/>
    <path d="m173.75 80.275c-1.258-1.878-2.29-4.05-3.289-6.204h1.082c1.02 2.248 2.179 5.013 3.497 7.194-3.51-1.04-5.28-2.09-7.91-4.72 3.17 7.87 3.66 11.71 5.19 14.94-4.49-2.72-5.15-6.06-7.49-8.73 1.51 7.79 2.98 13.92-3.43 25.09 0-6.07-1.29-13.851-3.55-19.8 3.289 3.15 3.819 13.52 4.079 17.08 1.011-2.39 1.851-4.84 2.511-7.37 1.75-6.68 0.18-12.78-0.15-15.8 1.913 1.238 4.051 5.872 6.9 8.22-1.801-4.38-2-6.61-5.399-15.54 2.81 2.69 5.329 4.61 7.959 5.64zm-141 27.84c-3.38-8.12 0.65-14.03 1.47-21.93-0.28 2.24-1.09 4.37-1.89 6.5-4.66 2.63-6.61 4.12-9.57 5.06 9.449-7.89 11.529-13.99 11.747-22.946h-0.108c-0.153 1.387-0.459 3.801-1.019 5.966-1.485-1.845-2.559-4.216-3.141-6.185l-1.204 0.011c0.695 2.252 2.058 4.925 4.075 7.094-1.63 6.99-6.84 12.3-12.02 16.88 3.33-0.1 7.88-2.78 10.79-4.66-2.09 5.7-2.23 10.66 1.77 17.57-0.246-10.686 5.281-16.878 8.017-19.28 0.656-0.576 1.156-0.94 1.372-1.089-6.839 4.448-9.683 9.227-10.289 17.009z"/>
   </g>
   <g id="svga-group-humanbody-single">
    <g stroke-width="none">
     <path d="m190.86 199.87c-6.008-10.158-13.474-11.973-19.628-13.936-6.323-2.016-19.346-3.178-26.449-4.6-6.86-1.373-23.153-5.789-23.339-13.488-0.192-8.066 4.291-40.09 4.291-40.09h-51.728s4.487 32.023 4.294 40.09c-0.184 7.699-16.48 12.115-23.341 13.488-7.104 1.422-20.125 2.584-26.448 4.6-6.156 1.963-13.624 3.777-19.632 13.936-3.644 6.16-6.008 16.133-6.008 27.133h194c-1e-3 -11-2.361-20.973-6.012-27.133z" fill="#f3d4cf"/>
     <path d="m121.44 167.84c2.495 10.929 18.165 13.698 26.293 15.325 21.909 4.379 33.772 5.134 42.297 19.539 2.903 4.916 5.459 15.864 5.962 24.153 1.835 0.291 0.531-17.432-5.136-26.994-9.742-16.472-29.089-15.135-46.077-18.535-6.86-1.373-23.153-5.789-23.339-13.488zm-42.884 0c-0.186 7.699-16.479 12.115-23.339 13.488-16.988 3.4-36.335 2.063-46.077 18.535-5.667 9.563-6.971 27.285-5.136 26.994 0.503-8.289 3.059-19.237 5.962-24.153 8.524-14.405 20.388-15.16 42.297-19.539 8.128-1.627 23.798-4.397 26.293-15.325z" fill="#fff4f3"/>
     <path d="m51.206 189.51s28.641 0.299 33.473 1.885c2.314 0.758 8.372 5.633 8.372 5.633s-6.556-3.17-8.658-3.758c-4.883-1.364-33.187-3.76-33.187-3.76zm48.589 10.486c2.053-0.041 7.887-3.799 7.887-3.799s-5.574 2.059-7.342 2.16c-1.491 0.086-6.366-1.238-6.366-1.238s4.138 2.91 5.821 2.877zm17.213-7.242c6.75-1.818 29.786-3.23 29.786-3.23s-23.791-0.516-30.51 1.725c-2.252 0.752-7.562 5.16-7.562 5.16s6.064-3.058 8.286-3.655z" fill="#e4b3ab"/>
    </g>
    <path d="m190.86 199.87c-9.741-16.471-29.122-15.142-46.077-18.535-6.86-1.373-23.153-5.789-23.339-13.488-0.192-8.066 4.291-40.09 4.291-40.09h-51.728s4.487 32.023 4.294 40.09c-0.184 7.699-16.48 12.115-23.341 13.488-7.104 1.422-20.125 2.584-26.448 4.6-6.156 1.963-13.624 3.777-19.632 13.936-3.644 6.16-6.008 16.133-6.008 27.133h194c-1e-3 -11.001-2.361-20.974-6.012-27.134z" fill="none" stroke="#c5796d" stroke-width="1.5"/>
   </g>
   <g id="svga-group-chinshadow-single">
    <path d="m96.621 172.4c1.862 1.009 4.905 1.009 6.765 1e-3 4.022-2.175 10.793-6.271 17.707-10.99 0.604-7.53 1.97-18.516 2.938-25.903-14.398-1.508-33.984-1.493-48.319 0.038 0.961 7.323 2.309 18.157 2.919 25.666 7.015 4.801 13.916 8.981 17.99 11.188z" fill="url(#SvgjsLinearGradient2969)"/>
   </g>
   <g id="svga-group-clothes-single" stroke-width="none">
    <path d="m110.14 228.89c-17.864 0-38.7-0.069-63.699-0.213l-22.105-0.12c-13.348-0.072-16.001-0.087-17.631-0.087l-4.573 6e-3c0.032-40.523 20.015-43.334 41.17-46.313 7.271-1.023 14.789-2.082 21.584-4.733 8.525 11.975 21.924 13.591 33.912 13.591 0.667 0 1.341-6e-3 2.016-0.017 12.668-0.285 27.552-4.774 32.317-14.161 0.614 0.234 1.186 0.504 1.738 0.766 0.621 0.293 1.263 0.597 1.974 0.854 4.65 1.684 10.432 2.48 16.552 3.324 20.011 2.76 44.916 6.193 44.578 45.069 3e-3 0.154 4e-3 1.097-0.012 1.392-11.682 0-19.607 0.113-28.782 0.244-12.445 0.178-27.935 0.398-59.027 0.398h-0.012z" fill="#09aac5"/>
    <path d="m197.87 227c-2.027-5.485-0.96-15.439-6.837-24.292-11.653-17.556-33.322-15.948-53.227-21.639-4.204 8.565-12.24 13.539-21.429 16.39l-0.016-0.047c9.016-3.198 16.683-8.066 21.003-16.475-0.501-0.146-1.001-0.292-1.499-0.448l0.956-1.836c24.187 7.439 43.709 2.062 55.037 21.214 3.652 6.16 6.012 16.133 6.012 27.133zm-140.64-44.655c1.267-0.294 2.53-0.607 3.788-0.948l-1.332-1.765c-23.343 6.027-40.887 2.21-51.548 20.235-3.65 6.16-6.011 16.133-6.011 27.133 2.027-5.485 0.96-15.439 6.837-24.292 10.571-15.926 29.385-16.085 47.646-20.225 6.519 8.028 16.042 13.7 26.402 15.333-12.995-3.39-21.077-9.672-25.782-15.471z" fill="#1fbad4"/>
    <path d="m132.08 178.81c-4.996 7.702-18.542 12.955-33.907 12.955-15.182 0-27.706-5.206-33.5-13.926l-0.044-0.065 1.235 1.856c-1.369 0.581-4.817 1.748-4.817 1.748l-1.446-1.86 0.089 0.117c0.271 0.354 0.553 0.736 0.851 1.14 4.359 5.904 11.656 15.785 36.296 15.785 2.162 0 4.443-0.079 6.78-0.235 16.303-1.168 26.873-6.359 32.244-15.839-0.055-0.023-2.509-1.031-3.781-1.676z" fill="#009cb6"/>
    <path d="m133.08 176.72c-5.041 10.081-21.03 13.934-32.27 14.187-14.635 0.228-27.563-1.841-35.89-13.597-26.368 10.344-62.89-3.587-62.89 51.269 9.28 0-4.304-0.062 44.41 0.2 115.38 0.663 115.16-0.43 151.61-0.43 0.027-0.131 0.023-1.356 0.021-1.49 0.44-50.604-41.021-41.186-61.195-48.488-1.371-0.497-2.453-1.15-3.796-1.651zm-68.49 1.179c13.809 20.776 60.199 16.511 68.44-0.561 1.12 0.471 2.34 0.94 3.64 1.4-3.904 8.186-12.275 16.001-33.06 17.49-32.014 2.134-39.41-10.844-43.84-16.65 0.136-0.038 3.456-1.168 4.82-1.679zm-62.42 50.509c2.5-22.877 4.756-39.219 32.69-44.068 9.593-1.77 14.509-1.939 24.83-4.731 7.873 10.792 15.739 18.518 44.7 17.3 21.37-2.377 28.569-9.619 32.461-18.1 26.52 8.347 59.285-0.172 60.88 49.38-50.465-0.657-99.22-1.97-195.56 0.219z" fill="#008197"/>
   </g>
   <g id="svga-group-head">
    <g id="svga-group-ears-left">
     <path d="m47.001 83.974c-1.376-2.313-5.638-7.997-9.98-6.603-2.749 0.882-3.293 3.765-3.735 6.311-0.588 3.386 0.471 10.083 1.389 12.503 0.881 2.325 3.533 6.816 5.264 8.527 2.13 2.1 4.775 8.793 5.194 9.487 0.66 1.097 1.536 2.745 4.122 2.538 2.853-0.229 4.584-1.742 5.856-1.999 3.142-0.629-4.529-24.743-8.11-30.764z" fill="#f3d4cf" stroke="#c5796d" stroke-width="1.5"/>
     <path d="m44.197 97.997c-0.132-0.548 7e-3 -1.47 0.142-2.362 0.124-0.812 0.24-1.579 0.169-2.121-0.267-2.032-1.773-5.893-2.757-7.985-1.132-2.407-2.963-5.439-5.262-6.221-0.95-0.324-1.575 0.063-1.938 0.456-0.266 0.289-0.325 0.627-0.238 0.667 0.086 0.04 0.285-0.24 0.572-0.504 0.235-0.216 0.579-0.402 1.051-0.363-0.19 1.011-1.167 6.49-0.744 10.225 0.333 2.938 1.593 5.131 1.79 5.46 0.029 0.346 0.077 0.685 0.148 1.014 0.929 4.287 4.971 9.163 6.378 10.758 0.259 0.295 0.531 0.47 0.598 0.398 0.066-0.072-0.094-0.364-0.353-0.66-1.388-1.585-5.391-6.442-6.289-10.579-0.952-4.389 2.318-10.896 3.048-12.272 0.371 0.646 0.687 1.267 0.93 1.785 0.19 0.406 0.402 0.881 0.619 1.395-0.429 0.718-3.434 5.958-2.338 10.153 0.406 1.546 2.235 3.54 3.447 4.086 0.667 0.301 0.919 0.75 1.209 1.271 0.336 0.604 0.718 1.288 1.828 1.784 0.225 0.102 0.429 0.142 0.61 0.142 0.313 0 0.551-0.126 0.725-0.276 0.018 0.266 0.017 0.604 9e-3 0.917-0.012 0.404 0.042 0.737 0.137 0.745 0.094 8e-3 0.196-0.313 0.207-0.717 0.016-0.496 0.013-1.11-0.072-1.403-0.248-0.865-1.008-1.841-1.813-2.875-0.789-1.019-1.607-2.071-1.813-2.918zm-7.247-3.801c-2.177-6.731 0.656-12.54 1.144-13.464 0.85 0.775 1.6 1.811 2.21 2.824-0.444 0.809-3.263 6.113-3.354 10.64zm9.391 9.846c-1.004-0.447-1.339-1.051-1.666-1.633-0.293-0.527-0.598-1.072-1.369-1.42-0.168-0.075-0.352-0.191-0.542-0.323-2.486-5.906 0.272-8.488 0.963-9.017 0.211 0.722 0.369 1.384 0.439 1.915 0.063 0.488-0.052 1.263-0.167 2.012-0.142 0.929-0.286 1.89-0.137 2.512 0.226 0.926 1.069 2.009 1.884 3.057 0.723 0.929 1.466 1.888 1.721 2.67-0.108 0.157-0.45 0.53-1.126 0.227z" fill="#c5796d" stroke-width="none"/>
    </g>
    <g id="svga-group-ears-right">
     <path d="m152.74 83.974c1.377-2.313 5.639-7.997 9.98-6.603 2.75 0.882 3.293 3.765 3.736 6.311 0.588 3.386-0.471 10.083-1.389 12.503-0.881 2.325-3.533 6.816-5.266 8.527-2.129 2.1-4.775 8.793-5.193 9.487-0.658 1.097-1.535 2.745-4.121 2.538-2.854-0.229-4.584-1.742-5.857-1.999-3.142-0.629 4.53-24.743 8.11-30.764z" fill="#f3d4cf" stroke="#c5796d" stroke-width="1.5"/>
     <path d="m153.73 100.91c-0.805 1.033-1.564 2.009-1.813 2.875-0.086 0.293-0.088 0.907-0.072 1.403 0.012 0.404 0.113 0.725 0.207 0.717s0.148-0.341 0.137-0.745c-8e-3 -0.313-8e-3 -0.651 0.01-0.917 0.174 0.15 0.412 0.276 0.725 0.276 0.182 0 0.385-0.04 0.609-0.142 1.109-0.496 1.492-1.18 1.828-1.784 0.289-0.52 0.543-0.969 1.209-1.271 1.213-0.546 3.041-2.54 3.447-4.086 1.096-4.194-1.908-9.435-2.338-10.153 0.217-0.513 0.43-0.988 0.619-1.395 0.244-0.518 0.559-1.139 0.93-1.785 0.73 1.377 4 7.883 3.049 12.272-0.896 4.137-4.9 8.994-6.289 10.579-0.258 0.296-0.418 0.588-0.352 0.66 0.066 0.071 0.338-0.104 0.598-0.398 1.406-1.596 5.449-6.471 6.379-10.758 0.07-0.329 0.117-0.668 0.146-1.014 0.197-0.329 1.459-2.523 1.791-5.46 0.422-3.735-0.555-9.214-0.744-10.225 0.473-0.039 0.814 0.146 1.051 0.363 0.287 0.264 0.486 0.544 0.572 0.504s0.027-0.378-0.238-0.667c-0.363-0.393-0.988-0.779-1.938-0.456-2.299 0.782-4.131 3.814-5.262 6.221-0.984 2.093-2.49 5.953-2.758 7.985-0.072 0.542 0.045 1.309 0.17 2.121 0.135 0.892 0.273 1.814 0.141 2.362-0.205 0.849-1.023 1.901-1.814 2.918zm5.707-17.358c0.611-1.013 1.361-2.049 2.211-2.824 0.488 0.925 3.32 6.733 1.145 13.464-0.093-4.526-2.911-9.83-3.356-10.64zm-7.164 20.261c0.254-0.782 0.998-1.741 1.721-2.67 0.816-1.048 1.658-2.131 1.885-3.057 0.148-0.622 4e-3 -1.583-0.137-2.512-0.115-0.749-0.23-1.524-0.166-2.012 0.068-0.531 0.227-1.193 0.438-1.915 0.691 0.529 3.449 3.111 0.965 9.017-0.191 0.132-0.375 0.248-0.543 0.323-0.771 0.348-1.074 0.893-1.369 1.42-0.326 0.582-0.662 1.186-1.666 1.633-0.677 0.302-1.019-0.071-1.128-0.227z" fill="#c5796d" stroke-width="none"/>
    </g>
    <g id="svga-group-faceshape-wrap">
     <g id="svga-group-faceshape-single">
      <path d="m140.34 130.67c-6.672 9.572-28.551 24.338-37.142 29.263-1.757 1.008-4.626 1.008-6.383-1e-3 -8.584-4.93-30.469-19.691-37.144-29.262-8.127-11.651-18.518-53.669-18.53-53.723-1.3-4.911-1.996-10.066-2.004-15.382-0.052-33.474 27.155-60.645 60.773-60.697 33.621-0.052 60.913 27.033 60.963 60.507 9e-3 5.316-0.669 10.473-1.952 15.389-0.017 0.052-10.43 42.213-18.581 53.906z" fill="#f3d4cf" stroke-width="none"/>
      <path d="m132.74 10.389c15.702 10.981 25.962 29.15 25.93 49.708-9e-3 5.316-0.704 10.471-2.004 15.382-0.012 0.053-10.491 42.01-18.53 53.723-6.665 9.715-25.83 26.717-37.145 29.995-0.475 0.138-1.505 0.138-1.98 0-11.314-3.278-30.479-20.28-37.144-29.995-8.039-11.713-18.519-53.669-18.53-53.723-1.3-4.911-1.996-10.066-2.004-15.382-0.032-20.559 10.227-38.727 25.929-49.708-16.937 10.783-28.162 29.672-28.129 51.175 8e-3 5.316 0.704 10.471 2.004 15.382 0.012 0.053 10.403 42.071 18.53 53.723 6.675 9.57 28.56 24.332 37.144 29.262 0 1e-3 1e-3 1e-3 2e-3 1e-3h-5e-3c0.879 0.504 2.036 0.757 3.193 0.755 1.157 2e-3 2.314-0.251 3.193-0.755h-5e-3s1e-3 0 2e-3 -1e-3c8.585-4.93 30.469-19.691 37.145-29.262 8.127-11.651 18.519-53.669 18.529-53.723 1.3-4.911 1.996-10.066 2.004-15.382 0.034-21.503-11.191-40.392-28.129-51.175z" fill="#ebc3bd" stroke-width="none"/>
      <path d="m140.34 130.67c-6.672 9.572-28.551 24.338-37.142 29.263-1.757 1.008-4.626 1.008-6.383-1e-3 -8.584-4.93-30.469-19.691-37.144-29.262-8.127-11.651-18.518-53.669-18.53-53.723-1.3-4.911-1.996-10.066-2.004-15.382-0.052-33.474 27.155-60.645 60.773-60.697 33.621-0.052 60.913 27.033 60.963 60.507 9e-3 5.316-0.669 10.473-1.952 15.389-0.017 0.052-10.43 42.213-18.581 53.906z" fill="none" stroke="#c5796d" stroke-width="1.5"/>
     </g>
    </g>
    <g id="svga-group-mouth-single">
     <path d="m100 141.44c-4.158 0-5.133-3.232-5.133-3.232h10.267c0-1e-3 -1.477 3.232-5.134 3.232z" fill="url(#SvgjsLinearGradient2883)"/>
     <path d="m87.536 132.96c2.756-0.951 6.239-3.625 8.432-3.723 1.133-0.051 2.351 0.87 3.574 1.166 0.851 0.207 3.264-1.156 4.13-1.166 2.272-0.022 6.326 2.771 8.769 3.723 0.135 0.055 0 0 0 0s-5.056 6.021-12.452 6.021c-8.371-1e-3 -12.453-6.021-12.453-6.021s-0.137 0.05 0 0z" fill="#f771a9" stroke="#e85391" stroke-width=".75"/>
     <g stroke-width="none">
      <path d="m112.81 132.9c-0.187-0.076-0.606-0.028-0.753-0.021-0.304 0.016-0.546-0.117-1.214-0.129-0.742-0.012-3.945-0.268-5.003-0.338-2.129-0.143-3.824 0.666-5.848 0.666-2.025 0-3.868-0.883-5.996-0.74-1.057 0.072-4.113 0.395-4.857 0.412-0.663 0.019-0.923 0.133-1.231 0.12-0.143-7e-3 -0.595-0.05-0.771 0.05-0.147 0.086-0.09 0.559 0.027 0.683 0.285 0.298 1.397-0.233 1.959-0.22 0.777 0.017 3.843-0.05 4.917-0.121 2.081-0.142 3.936 0.821 5.952 0.821s3.725-0.889 5.806-0.749c1.071 0.072 4.281 0.064 5.06 0.049 0.563-0.014 1.764 0.449 2.052 0.22 0.135-0.11 0.064-0.636-0.1-0.703z" fill="#c92066"/>
      <path d="m99.989 137.44c-3.37 0-6.645-1.154-9.241-3.306 1.307-0.072 2.652-0.277 3.961-0.219 1.613 0.07 3.144 0.705 4.756 0.813 1.742 0.116 3.358-0.488 5.064-0.695 1.422-0.171 2.931 0.059 4.357 0.111-2.551 1.958-5.642 3.296-8.897 3.296zm4.791-5.757c1.313-0.08 2.661 0.088 3.974 0.141-1.43-0.712-2.953-1.553-4.549-1.807-1.374-0.218-2.71 0.882-4.045 1.104-1.506 0.25-2.69-1.15-4.16-1.15-1.592 0.07-3.198 1.099-4.576 1.805 1.282-0.076 2.6-0.263 3.884-0.141 1.572 0.147 3.094 0.714 4.682 0.714 1.622 0 3.171-0.568 4.79-0.666z" fill="#ff8ebd"/>
      <path d="m99.941 136.49c-2.029 0-4.007-0.701-5.707-2.001 0.38-0.037 0.764-0.066 1.133-0.066 0.117 0 0.234 3e-3 0.351 9e-3 0.609 0.033 1.209 0.208 1.846 0.394 0.618 0.178 1.256 0.363 1.923 0.419 0.132 0.012 0.264 0.016 0.395 0.016 0.819 0 1.596-0.204 2.348-0.399 0.477-0.126 0.928-0.245 1.392-0.313 0.253-0.04 0.527-0.058 0.837-0.058 0.268 0 0.544 0.014 0.818 0.034-1.415 1.051-3.247 1.965-5.336 1.965z" fill="#ffa8cc"/>
     </g>
    </g>
    <g id="svga-group-eyes-left">
     <g id="svga-group-eyesback-left">
      <path d="m61.952 84.523c-0.506-2.285 5.191-3.973 12.711-3.051 7.518 0.923 12.738 5.524 12.052 7.844-0.38 1.286-10.639 3.245-14.253 2.847-3.664-0.405-9.288-2.123-10.51-7.64z" fill="url(#SvgjsRadialGradient2781)"/>
     </g>
     <g id="svga-group-eyesiriswrapper-left" transform="translate(-.75 -.5)">
      <g id="svga-group-eyesiriscontrol-left">
       <g id="svga-group-eyesiris-left">
        <path d="m83.5 87c0 4.694-3.806 8.5-8.499 8.5-4.694 0-8.501-3.806-8.501-8.5s3.807-8.5 8.501-8.5c4.693-1e-3 8.499 3.805 8.499 8.5z" fill="#4e60a3" stroke-width="none"/>
        <path d="m74.048 78.595c-0.033 4e-3 -0.066 8e-3 -0.101 0.012 0.041 0.191 0.081 0.384 0.12 0.575-7e-3 -0.195-0.012-0.393-0.019-0.587zm0.018 0.585c0.099 2.793 0.262 5.282 0.732 6.183 0.249-0.986-0.173-3.443-0.732-6.183zm0.734 6.185c-0.061 0.236-0.153 0.397-0.294 0.452-0.142 0.053-0.319-8e-3 -0.521-0.146 0.058 0.236 0.052 0.422-0.051 0.537-0.102 0.114-0.285 0.142-0.527 0.11 0.16 0.184 0.242 0.353 0.206 0.5-0.039 0.148-0.189 0.258-0.415 0.343 0.225 0.088 0.376 0.199 0.411 0.347 0.036 0.148-0.046 0.315-0.205 0.498 0.241-0.029 0.426 1e-3 0.525 0.115 0.101 0.114 0.106 0.301 0.05 0.537 0.199-0.137 0.376-0.197 0.518-0.142 0.143 0.053 0.234 0.216 0.291 0.454 0.114-0.215 0.243-0.353 0.396-0.368 0.148-0.02 0.307 0.084 0.466 0.267 2e-3 -0.244 0.053-0.423 0.181-0.51 0.124-0.086 0.311-0.069 0.537 0.018-0.11-0.216-0.148-0.398-0.078-0.534 0.071-0.135 0.245-0.207 0.487-0.235-0.199-0.14-0.321-0.283-0.318-0.436-1e-3 -0.153 0.119-0.296 0.321-0.434-0.241-0.03-0.412-0.103-0.484-0.237-0.07-0.135-0.031-0.319 0.081-0.535-0.229 0.085-0.413 0.102-0.538 0.016-0.126-0.086-0.177-0.267-0.178-0.51-0.158 0.182-0.316 0.282-0.468 0.262s-0.282-0.154-0.393-0.369zm0.86 0.106c0.679-0.758 1.446-3.13 2.224-5.813-1.21 2.516-2.222 4.795-2.224 5.813zm2.223-5.814c0.085-0.172 0.172-0.348 0.253-0.524-0.03-0.011-0.06-0.024-0.09-0.037-0.054 0.188-0.108 0.376-0.163 0.561zm-1.506 6.308c0.953-0.357 2.736-2.101 4.671-4.115-2.24 1.667-4.197 3.215-4.671 4.115zm4.671-4.114c0.142-0.106 0.287-0.213 0.433-0.318-0.021-0.025-0.043-0.047-0.06-0.07-0.124 0.127-0.247 0.259-0.373 0.388zm-4.271 4.887c1.01 0.125 3.399-0.591 6.052-1.475-2.761 0.435-5.212 0.896-6.052 1.475zm6.052-1.475c0.156-0.022 0.318-0.048 0.478-0.073-7e-3 -0.026-0.013-0.054-0.02-0.081-0.152 0.051-0.308 0.103-0.458 0.154zm-6.054 2.343c0.836 0.583 3.284 1.057 6.038 1.505-2.642-0.897-5.027-1.627-6.038-1.505zm6.038 1.505c0.135 0.047 0.271 0.095 0.404 0.138 7e-3 -0.024 0.013-0.047 0.018-0.071-0.137-0.02-0.281-0.043-0.422-0.067zm-6.446-0.736c0.471 0.902 2.42 2.462 4.649 4.142-1.924-2.025-3.696-3.78-4.649-4.142zm4.651 4.139c0.083 0.087 0.17 0.179 0.253 0.268 0.014-0.017 0.027-0.031 0.043-0.046-0.099-0.074-0.201-0.149-0.296-0.222zm-5.366-3.647c-4e-3 1.019 0.995 3.302 2.191 5.827-0.764-2.688-1.516-5.066-2.191-5.827zm2.192 5.827c0.03 0.106 0.062 0.215 0.09 0.324 0.021-8e-3 0.036-0.015 0.055-0.02-0.048-0.102-0.097-0.205-0.145-0.304zm-3.056-5.726c-0.476 0.902-0.653 3.386-0.768 6.178 0.574-2.733 1.011-5.188 0.768-6.178zm-0.767 6.178c-0.023 0.106-0.044 0.214-0.066 0.323 0.02 4e-3 0.035 5e-3 0.055 7e-3 3e-3 -0.108 8e-3 -0.222 0.011-0.33zm-0.042-6.489c-0.844 0.576-2.154 2.697-3.553 5.114 1.778-2.154 3.307-4.126 3.553-5.114zm-3.552 5.114c-0.074 0.09-0.152 0.185-0.229 0.274 0.018 0.012 0.034 0.02 0.053 0.034 0.058-0.103 0.118-0.206 0.176-0.308zm2.978-5.765c-1.015 0.119-3.16 1.385-5.522 2.875 2.577-1.08 4.843-2.113 5.522-2.875zm-5.522 2.878c-0.122 0.051-0.247 0.102-0.372 0.156 9e-3 0.019 0.021 0.038 0.033 0.057 0.114-0.07 0.227-0.143 0.339-0.213zm5.315-3.723c-0.951-0.365-3.441-0.238-6.227-0.016 2.784 0.238 5.273 0.376 6.227 0.016zm-6.226-0.016c-0.151-0.014-0.308-0.028-0.457-0.041-1e-3 0.027-3e-3 0.053-1e-3 0.08 0.155-0.015 0.308-0.028 0.458-0.039zm6.435-0.827c-0.67-0.763-2.932-1.809-5.499-2.905 2.351 1.502 4.489 2.783 5.499 2.905zm-5.499-2.905c-0.147-0.095-0.297-0.189-0.446-0.285-0.013 0.026-0.026 0.053-0.041 0.078 0.164 0.07 0.329 0.138 0.487 0.207zm6.077 2.257c-0.239-0.989-1.758-2.967-3.521-5.132 1.385 2.425 2.683 4.552 3.521 5.132zm-3.52-5.132c-0.095-0.163-0.188-0.329-0.281-0.494-0.026 0.018-0.055 0.037-0.079 0.054 0.119 0.147 0.243 0.295 0.36 0.44z" fill="url(#SvgjsRadialGradient2796)"/>
        <path d="m76.255 78.622c-0.034-4e-3 -0.066-0.01-0.1-0.014-0.011 0.196-0.022 0.393-0.034 0.586 0.043-0.19 0.09-0.382 0.134-0.572zm-0.135 0.571c-0.627 2.724-1.114 5.17-0.892 6.162 0.496-0.888 0.722-3.371 0.892-6.162zm-0.891 6.163c-0.119 0.212-0.25 0.344-0.401 0.36-0.15 0.014-0.306-0.091-0.464-0.276-6e-3 0.243-0.06 0.421-0.188 0.505-0.128 0.083-0.313 0.063-0.539-0.03 0.107 0.219 0.143 0.403 0.069 0.536-0.075 0.133-0.249 0.201-0.489 0.224 0.194 0.144 0.312 0.289 0.308 0.441-3e-3 0.152-0.126 0.292-0.327 0.428 0.24 0.034 0.41 0.111 0.478 0.247 0.067 0.136 0.025 0.318-0.091 0.532 0.229-0.081 0.414-0.093 0.537-3e-3 0.123 0.088 0.17 0.27 0.164 0.514 0.166-0.177 0.325-0.278 0.478-0.253 0.148 0.02 0.274 0.16 0.382 0.379 0.064-0.236 0.16-0.396 0.306-0.447 0.143-0.051 0.318 0.014 0.515 0.157-0.051-0.237-0.041-0.423 0.063-0.536s0.29-0.136 0.532-0.102c-0.157-0.187-0.238-0.356-0.195-0.504 0.039-0.148 0.192-0.255 0.423-0.336-0.226-0.091-0.372-0.206-0.407-0.354-0.032-0.149 0.053-0.316 0.218-0.495-0.243 0.023-0.427-9e-3 -0.524-0.125-0.099-0.115-0.102-0.303-0.039-0.538-0.201 0.134-0.38 0.19-0.521 0.132-0.147-0.056-0.236-0.219-0.288-0.456zm0.804 0.327c0.852-0.558 2.206-2.65 3.652-5.04-1.82 2.117-3.387 4.056-3.652 5.04zm3.652-5.042c0.126-0.145 0.255-0.292 0.38-0.44-0.027-0.019-0.052-0.04-0.078-0.06-0.101 0.169-0.202 0.336-0.302 0.5zm-3.088 5.704c1.013-0.099 3.187-1.322 5.577-2.767-2.596 1.031-4.887 2.02-5.577 2.767zm5.576-2.766c0.165-0.065 0.333-0.131 0.501-0.195-0.014-0.029-0.029-0.056-0.04-0.083-0.153 0.091-0.306 0.186-0.461 0.278zm-5.39 3.615c0.943 0.382 3.437 0.309 6.227 0.142-2.779-0.294-5.265-0.483-6.227-0.142zm6.227 0.142c0.158 0.019 0.32 0.036 0.48 0.053 1e-3 -0.027 2e-3 -0.055 3e-3 -0.083-0.161 0.01-0.325 0.02-0.483 0.03zm-6.452 0.697c0.655 0.78 2.898 1.871 5.442 3.017-2.321-1.551-4.435-2.873-5.442-3.017zm5.442 3.016c0.117 0.08 0.236 0.161 0.354 0.238 0.013-0.021 0.024-0.042 0.035-0.063-0.127-0.056-0.26-0.115-0.389-0.175zm-6.036-2.379c0.221 0.993 1.699 3.004 3.419 5.205-1.335-2.456-2.592-4.609-3.419-5.205zm3.42 5.202c0.059 0.106 0.117 0.217 0.176 0.325 0.018-0.013 0.034-0.023 0.053-0.034-0.077-0.098-0.155-0.196-0.229-0.291zm-4.238-4.912c-0.267 0.982 0.107 3.447 0.608 6.195-0.043-2.794-0.153-5.285-0.608-6.195zm0.608 6.195c2e-3 0.11 4e-3 0.224 4e-3 0.337 0.021-3e-3 0.038-5e-3 0.058-5e-3 -0.02-0.111-0.041-0.223-0.062-0.332zm-1.469-6.321c-0.693 0.748-1.508 3.102-2.341 5.769 1.261-2.493 2.321-4.75 2.341-5.769zm-2.341 5.769c-0.05 0.096-0.099 0.195-0.147 0.295 0.017 8e-3 0.032 0.013 0.051 0.021 0.031-0.104 0.065-0.212 0.096-0.316zm1.64-6.279c-0.964 0.338-2.779 2.048-4.756 4.021 2.276-1.621 4.263-3.13 4.756-4.021zm-4.756 4.021c-0.095 0.067-0.194 0.138-0.29 0.206 0.014 0.016 0.027 0.028 0.041 0.045 0.082-0.085 0.167-0.168 0.249-0.251zm4.369-4.799c-1.01-0.148-3.409 0.521-6.078 1.349 2.77-0.377 5.226-0.789 6.078-1.349zm-6.078 1.351c-0.131 0.018-0.265 0.034-0.4 0.054 5e-3 0.021 0.011 0.042 0.018 0.063 0.128-0.037 0.256-0.078 0.382-0.117zm6.098-2.22c-0.824-0.599-3.263-1.121-6.01-1.627 2.626 0.95 4.995 1.727 6.01 1.627zm-6.01-1.627c-0.143-0.052-0.29-0.106-0.432-0.158-8e-3 0.026-0.016 0.051-0.021 0.077 0.153 0.026 0.306 0.053 0.453 0.081zm6.43 0.867c-0.45-0.911-2.363-2.506-4.561-4.23 1.883 2.06 3.617 3.851 4.561 4.23zm-4.561-4.229c-0.118-0.13-0.236-0.26-0.355-0.391-0.021 0.022-0.041 0.044-0.061 0.065 0.14 0.109 0.281 0.218 0.416 0.326zm5.287 3.752c0.024-1.017-0.93-3.321-2.073-5.868 0.709 2.701 1.414 5.091 2.073 5.868zm-2.073-5.868c-0.049-0.182-0.096-0.366-0.144-0.55-0.029 0.01-0.062 0.021-0.09 0.032 0.078 0.173 0.158 0.347 0.234 0.518z" fill="url(#SvgjsRadialGradient2800)"/>
        <path d="m78.334 87c0 1.842-1.492 3.333-3.333 3.333s-3.335-1.492-3.335-3.333 1.494-3.334 3.335-3.334c1.843 0 3.333 1.493 3.333 3.334z" fill="#4e60a3" stroke-width="none"/>
        <path d="m78.334 87c0 1.842-1.492 3.333-3.333 3.333s-3.335-1.492-3.335-3.333 1.494-3.334 3.335-3.334c1.843 0 3.333 1.493 3.333 3.334z" opacity=".9" stroke-width="none"/>
        <path d="m70.35 90.893c0.636-0.427 1.5-0.255 1.927 0.38 0.427 0.637 0.258 1.5-0.379 1.927-0.638 0.429-1.5 0.258-1.927-0.378-0.427-0.637-0.258-1.502 0.379-1.929z" fill="url(#SvgjsLinearGradient2806)" opacity=".5"/>
        <path d="m77.635 86.536c-0.356 0.53-1.373 0.468-2.275-0.136-0.903-0.605-1.346-1.526-0.991-2.055l1e-3 -1e-3c0.354-0.53 1.372-0.469 2.274 0.137 0.903 0.604 1.346 1.524 0.992 2.054l-1e-3 1e-3z" fill="url(#SvgjsLinearGradient2810)" opacity=".5"/>
        <path d="m81.682 85.121c-0.806 1.237-2.884 1.31-4.641 0.166-1.756-1.145-2.527-3.075-1.722-4.311 0.806-1.235 2.884-1.31 4.641-0.166 1.755 1.146 2.525 3.077 1.722 4.311z" fill="url(#SvgjsLinearGradient2814)" opacity=".75"/>
       </g>
      </g>
     </g>
     <g id="svga-group-eyesfront-left">
      <path d="m55.5 88c0 13.807 8.06 24.999 18 24.999s18-11.192 18-24.999c0-13.808-8.06-25-18-25s-18 11.192-18 25zm6.452-3.477c-0.506-2.285 5.191-3.973 12.711-3.051 7.518 0.923 12.738 5.524 12.052 7.844-0.38 1.286-10.639 3.245-14.253 2.847-3.664-0.405-9.288-2.123-10.51-7.64z" fill="#f3d4cf" stroke-width="none"/>
      <path d="m72.462 92.163c3.614 0.398 13.873-1.561 14.253-2.847 0.687-2.32-4.534-6.921-12.052-7.844-6.46-0.792-11.563 0.345-12.556 2.128 0.898-6.4 7.7-11.397 15.987-11.434 8.911-0.037 16.148 5.676 16.172 12.765 0.021 7.088-7.185 12.862-16.095 12.902-8.913 0.037-16.149-5.676-16.173-12.764 0-0.105 0.016-0.208 0.019-0.313 1.331 5.327 6.835 7.008 10.445 7.407z" fill="url(#SvgjsRadialGradient2850)"/>
      <path d="m61.952 84.523c-0.506-2.285 5.191-3.973 12.711-3.051 7.518 0.923 12.738 5.524 12.052 7.844-0.38 1.286-10.639 3.245-14.253 2.847-3.664-0.405-9.288-2.123-10.51-7.64z" fill="url(#SvgjsRadialGradient2855)"/>
      <path d="m62.349 79.417c4.208-1.978 9.35-2.16 13.838-1.005 2.404 0.561 4.965 1.285 7.063 2.638 1.945 1.135 3.525 2.5 5.002 4.19-1.342-1.701-2.773-3.118-4.623-4.27-2.276-1.416-4.769-2.294-7.364-2.916-4.587-1.126-9.723-0.87-13.916 1.363z" fill="#c5796d" stroke-width="none"/>
      <path d="m57.318 80.972s2.328 0.881 3.595 0.62c-0.39-0.459-1.096-1.604-1.096-1.604s1.853 0.551 3.151 0.032c0.88-0.352 4.065-1 5.456-1.066 1.687-0.082 5.073 0.125 6.735 0.424 3.374 0.608 8.985 2.63 11.678 7.184 0.255 0.572 1.407 0.921 1.407 0.921s-1.02-0.215-1.149 0.042c-0.282 0.561 1.298 2.016 1.496 2.197-0.161-0.145-1.289-1.135-1.722-0.967-0.061 0.022-0.137 0.388-0.155 0.482 0.3-2.426-4.838-6.746-12.052-7.604-7.52-0.894-13.217 0.743-12.711 2.958 1.222 5.348 6.846 7.013 10.51 7.405 2.526 0.271 8.298-0.577 11.675-1.537l1.011-0.317c-1.999 1.009-7.524 2.195-9.767 2.403-0.744 0.07-2.24 0.104-2.986 0.085-5.949-0.158-10.16-3.179-11.729-7.26-0.125-0.328-0.494-0.619-0.838-0.696-1.604-0.361-5.096-1.811-5.096-1.811 2.32 0.361 3.483 0.674 5.305 0.059-1.779-0.666-2.718-1.95-2.718-1.95z" stroke-width="none"/>
     </g>
    </g>
    <g id="svga-group-eyes-right">
     <g id="svga-group-eyesback-right">
      <path d="m138.05 84.523c0.506-2.285-5.191-3.973-12.711-3.051-7.518 0.923-12.738 5.524-12.052 7.844 0.38 1.286 10.639 3.245 14.253 2.847 3.664-0.405 9.288-2.123 10.51-7.64z" fill="url(#SvgjsRadialGradient2788)"/>
     </g>
     <g id="svga-group-eyesiriswrapper-right" transform="translate(.75 -.5)">
      <g id="svga-group-eyesiriscontrol-right">
       <g id="svga-group-eyesiris-right">
        <path d="m133.5 87c0 4.694-3.806 8.5-8.499 8.5-4.694 0-8.501-3.806-8.501-8.5s3.807-8.5 8.501-8.5c4.693-1e-3 8.499 3.805 8.499 8.5z" fill="#4e60a3" stroke-width="none"/>
        <path d="m124.05 78.595c-0.033 4e-3 -0.066 8e-3 -0.101 0.012 0.041 0.191 0.081 0.384 0.12 0.575-7e-3 -0.195-0.012-0.393-0.019-0.587zm0.018 0.585c0.099 2.793 0.262 5.282 0.732 6.183 0.249-0.986-0.173-3.443-0.732-6.183zm0.734 6.185c-0.061 0.236-0.153 0.397-0.294 0.452-0.142 0.053-0.319-8e-3 -0.521-0.146 0.058 0.236 0.052 0.422-0.051 0.537-0.102 0.114-0.285 0.142-0.527 0.11 0.16 0.184 0.242 0.353 0.206 0.5-0.039 0.148-0.189 0.258-0.415 0.343 0.225 0.088 0.376 0.199 0.411 0.347 0.036 0.148-0.046 0.315-0.205 0.498 0.241-0.029 0.426 1e-3 0.525 0.115 0.101 0.114 0.106 0.301 0.05 0.537 0.199-0.137 0.376-0.197 0.518-0.142 0.143 0.053 0.234 0.216 0.291 0.454 0.114-0.215 0.243-0.353 0.396-0.368 0.148-0.02 0.307 0.084 0.466 0.267 2e-3 -0.244 0.053-0.423 0.181-0.51 0.124-0.086 0.311-0.069 0.537 0.018-0.11-0.216-0.148-0.398-0.078-0.534 0.071-0.135 0.245-0.207 0.487-0.235-0.199-0.14-0.321-0.283-0.318-0.436-1e-3 -0.153 0.119-0.296 0.321-0.434-0.241-0.03-0.412-0.103-0.484-0.237-0.07-0.135-0.031-0.319 0.081-0.535-0.229 0.085-0.413 0.102-0.538 0.016-0.126-0.086-0.177-0.267-0.178-0.51-0.158 0.182-0.316 0.282-0.468 0.262s-0.282-0.154-0.393-0.369zm0.86 0.106c0.679-0.758 1.446-3.13 2.224-5.813-1.21 2.516-2.222 4.795-2.224 5.813zm2.223-5.814c0.085-0.172 0.172-0.348 0.253-0.524-0.03-0.011-0.06-0.024-0.09-0.037-0.054 0.188-0.108 0.376-0.163 0.561zm-1.506 6.308c0.953-0.357 2.736-2.101 4.671-4.115-2.24 1.667-4.197 3.215-4.671 4.115zm4.671-4.114c0.142-0.106 0.287-0.213 0.433-0.318-0.021-0.025-0.043-0.047-0.06-0.07-0.124 0.127-0.247 0.259-0.373 0.388zm-4.271 4.887c1.01 0.125 3.399-0.591 6.052-1.475-2.761 0.435-5.212 0.896-6.052 1.475zm6.052-1.475c0.156-0.022 0.318-0.048 0.478-0.073-7e-3 -0.026-0.013-0.054-0.02-0.081-0.152 0.051-0.308 0.103-0.458 0.154zm-6.054 2.343c0.836 0.583 3.284 1.057 6.038 1.505-2.642-0.897-5.027-1.627-6.038-1.505zm6.038 1.505c0.135 0.047 0.271 0.095 0.404 0.138 7e-3 -0.024 0.013-0.047 0.018-0.071-0.137-0.02-0.281-0.043-0.422-0.067zm-6.446-0.736c0.471 0.902 2.42 2.462 4.649 4.142-1.924-2.025-3.696-3.78-4.649-4.142zm4.651 4.139c0.083 0.087 0.17 0.179 0.253 0.268 0.014-0.017 0.027-0.031 0.043-0.046-0.099-0.074-0.201-0.149-0.296-0.222zm-5.366-3.647c-4e-3 1.019 0.995 3.302 2.191 5.827-0.764-2.688-1.516-5.066-2.191-5.827zm2.192 5.827c0.03 0.106 0.062 0.215 0.09 0.324 0.021-8e-3 0.036-0.015 0.055-0.02-0.048-0.102-0.097-0.205-0.145-0.304zm-3.056-5.726c-0.476 0.902-0.653 3.386-0.768 6.178 0.574-2.733 1.011-5.188 0.768-6.178zm-0.767 6.178c-0.023 0.106-0.044 0.214-0.066 0.323 0.02 4e-3 0.035 5e-3 0.055 7e-3 3e-3 -0.108 8e-3 -0.222 0.011-0.33zm-0.042-6.489c-0.844 0.576-2.154 2.697-3.553 5.114 1.778-2.154 3.307-4.126 3.553-5.114zm-3.552 5.114c-0.074 0.09-0.152 0.185-0.229 0.274 0.018 0.012 0.034 0.02 0.053 0.034 0.058-0.103 0.118-0.206 0.176-0.308zm2.978-5.765c-1.015 0.119-3.16 1.385-5.522 2.875 2.577-1.08 4.843-2.113 5.522-2.875zm-5.522 2.878c-0.122 0.051-0.247 0.102-0.372 0.156 9e-3 0.019 0.021 0.038 0.033 0.057 0.114-0.07 0.227-0.143 0.339-0.213zm5.315-3.723c-0.951-0.365-3.441-0.238-6.227-0.016 2.784 0.238 5.273 0.376 6.227 0.016zm-6.226-0.016c-0.151-0.014-0.308-0.028-0.457-0.041-1e-3 0.027-3e-3 0.053-1e-3 0.08 0.155-0.015 0.308-0.028 0.458-0.039zm6.435-0.827c-0.67-0.763-2.932-1.809-5.499-2.905 2.351 1.502 4.489 2.783 5.499 2.905zm-5.499-2.905c-0.147-0.095-0.297-0.189-0.446-0.285-0.013 0.026-0.026 0.053-0.041 0.078 0.164 0.07 0.329 0.138 0.487 0.207zm6.077 2.257c-0.239-0.989-1.758-2.967-3.521-5.132 1.385 2.425 2.683 4.552 3.521 5.132zm-3.52-5.132c-0.095-0.163-0.188-0.329-0.281-0.494-0.026 0.018-0.055 0.037-0.079 0.054 0.119 0.147 0.243 0.295 0.36 0.44z" fill="url(#SvgjsRadialGradient2819)"/>
        <path d="m126.26 78.622c-0.034-4e-3 -0.066-0.01-0.1-0.014-0.011 0.196-0.022 0.393-0.034 0.586 0.043-0.19 0.09-0.382 0.134-0.572zm-0.135 0.571c-0.627 2.724-1.114 5.17-0.892 6.162 0.496-0.888 0.722-3.371 0.892-6.162zm-0.891 6.163c-0.119 0.212-0.25 0.344-0.401 0.36-0.15 0.014-0.306-0.091-0.464-0.276-6e-3 0.243-0.06 0.421-0.188 0.505-0.128 0.083-0.313 0.063-0.539-0.03 0.107 0.219 0.143 0.403 0.069 0.536-0.075 0.133-0.249 0.201-0.489 0.224 0.194 0.144 0.312 0.289 0.308 0.441-3e-3 0.152-0.126 0.292-0.327 0.428 0.24 0.034 0.41 0.111 0.478 0.247 0.067 0.136 0.025 0.318-0.091 0.532 0.229-0.081 0.414-0.093 0.537-3e-3 0.123 0.088 0.17 0.27 0.164 0.514 0.166-0.177 0.325-0.278 0.478-0.253 0.148 0.02 0.274 0.16 0.382 0.379 0.064-0.236 0.16-0.396 0.306-0.447 0.143-0.051 0.318 0.014 0.515 0.157-0.051-0.237-0.041-0.423 0.063-0.536s0.29-0.136 0.532-0.102c-0.157-0.187-0.238-0.356-0.195-0.504 0.039-0.148 0.192-0.255 0.423-0.336-0.226-0.091-0.372-0.206-0.407-0.354-0.032-0.149 0.053-0.316 0.218-0.495-0.243 0.023-0.427-9e-3 -0.524-0.125-0.099-0.115-0.102-0.303-0.039-0.538-0.201 0.134-0.38 0.19-0.521 0.132-0.147-0.056-0.236-0.219-0.288-0.456zm0.804 0.327c0.852-0.558 2.206-2.65 3.652-5.04-1.82 2.117-3.387 4.056-3.652 5.04zm3.652-5.042c0.126-0.145 0.255-0.292 0.38-0.44-0.027-0.019-0.052-0.04-0.078-0.06-0.101 0.169-0.202 0.336-0.302 0.5zm-3.088 5.704c1.013-0.099 3.187-1.322 5.577-2.767-2.596 1.031-4.887 2.02-5.577 2.767zm5.576-2.766c0.165-0.065 0.333-0.131 0.501-0.195-0.014-0.029-0.029-0.056-0.04-0.083-0.153 0.091-0.306 0.186-0.461 0.278zm-5.39 3.615c0.943 0.382 3.437 0.309 6.227 0.142-2.779-0.294-5.265-0.483-6.227-0.142zm6.227 0.142c0.158 0.019 0.32 0.036 0.48 0.053 1e-3 -0.027 2e-3 -0.055 3e-3 -0.083-0.161 0.01-0.325 0.02-0.483 0.03zm-6.452 0.697c0.655 0.78 2.898 1.871 5.442 3.017-2.321-1.551-4.435-2.873-5.442-3.017zm5.442 3.016c0.117 0.08 0.236 0.161 0.354 0.238 0.013-0.021 0.024-0.042 0.035-0.063-0.127-0.056-0.26-0.115-0.389-0.175zm-6.036-2.379c0.221 0.993 1.699 3.004 3.419 5.205-1.335-2.456-2.592-4.609-3.419-5.205zm3.42 5.202c0.059 0.106 0.117 0.217 0.176 0.325 0.018-0.013 0.034-0.023 0.053-0.034-0.077-0.098-0.155-0.196-0.229-0.291zm-4.238-4.912c-0.267 0.982 0.107 3.447 0.608 6.195-0.043-2.794-0.153-5.285-0.608-6.195zm0.608 6.195c2e-3 0.11 4e-3 0.224 4e-3 0.337 0.021-3e-3 0.038-5e-3 0.058-5e-3 -0.02-0.111-0.041-0.223-0.062-0.332zm-1.469-6.321c-0.693 0.748-1.508 3.102-2.341 5.769 1.261-2.493 2.321-4.75 2.341-5.769zm-2.341 5.769c-0.05 0.096-0.099 0.195-0.147 0.295 0.017 8e-3 0.032 0.013 0.051 0.021 0.031-0.104 0.065-0.212 0.096-0.316zm1.64-6.279c-0.964 0.338-2.779 2.048-4.756 4.021 2.276-1.621 4.263-3.13 4.756-4.021zm-4.756 4.021c-0.095 0.067-0.194 0.138-0.29 0.206 0.014 0.016 0.027 0.028 0.041 0.045 0.082-0.085 0.167-0.168 0.249-0.251zm4.369-4.799c-1.01-0.148-3.409 0.521-6.078 1.349 2.77-0.377 5.226-0.789 6.078-1.349zm-6.078 1.351c-0.131 0.018-0.265 0.034-0.4 0.054 5e-3 0.021 0.011 0.042 0.018 0.063 0.128-0.037 0.256-0.078 0.382-0.117zm6.098-2.22c-0.824-0.599-3.263-1.121-6.01-1.627 2.626 0.95 4.995 1.727 6.01 1.627zm-6.01-1.627c-0.143-0.052-0.29-0.106-0.432-0.158-8e-3 0.026-0.016 0.051-0.021 0.077 0.153 0.026 0.306 0.053 0.453 0.081zm6.43 0.867c-0.45-0.911-2.363-2.506-4.561-4.23 1.883 2.06 3.617 3.851 4.561 4.23zm-4.561-4.229c-0.118-0.13-0.236-0.26-0.355-0.391-0.021 0.022-0.041 0.044-0.061 0.065 0.14 0.109 0.281 0.218 0.416 0.326zm5.287 3.752c0.024-1.017-0.93-3.321-2.073-5.868 0.709 2.701 1.414 5.091 2.073 5.868zm-2.073-5.868c-0.049-0.182-0.096-0.366-0.144-0.55-0.029 0.01-0.062 0.021-0.09 0.032 0.078 0.173 0.158 0.347 0.234 0.518z" fill="url(#SvgjsRadialGradient2823)"/>
        <path d="m128.33 87c0 1.842-1.492 3.333-3.333 3.333s-3.335-1.492-3.335-3.333 1.494-3.334 3.335-3.334c1.843 0 3.333 1.493 3.333 3.334z" fill="#4e60a3" stroke-width="none"/>
        <path d="m128.33 87c0 1.842-1.492 3.333-3.333 3.333s-3.335-1.492-3.335-3.333 1.494-3.334 3.335-3.334c1.843 0 3.333 1.493 3.333 3.334z" opacity=".9" stroke-width="none"/>
        <path d="m120.35 90.893c0.636-0.427 1.5-0.255 1.927 0.38 0.427 0.637 0.258 1.5-0.379 1.927-0.638 0.429-1.5 0.258-1.927-0.378-0.427-0.637-0.258-1.502 0.379-1.929z" fill="url(#SvgjsLinearGradient2829)" opacity=".5"/>
        <path d="m127.64 86.536c-0.356 0.53-1.373 0.468-2.275-0.136-0.903-0.605-1.346-1.526-0.991-2.055l1e-3 -1e-3c0.354-0.53 1.372-0.469 2.274 0.137 0.903 0.604 1.346 1.524 0.992 2.054l-1e-3 1e-3z" fill="url(#SvgjsLinearGradient2833)" opacity=".5"/>
        <path d="m131.68 85.121c-0.806 1.237-2.884 1.31-4.641 0.166-1.756-1.145-2.527-3.075-1.722-4.311 0.806-1.235 2.884-1.31 4.641-0.166 1.755 1.146 2.525 3.077 1.722 4.311z" fill="url(#SvgjsLinearGradient2837)" opacity=".75"/>
       </g>
      </g>
     </g>
     <g id="svga-group-eyesfront-right">
      <path d="m126.5 63c-9.94 0-18 11.192-18 25 0 13.807 8.06 24.999 18 24.999s18-11.192 18-24.999c0-13.808-8.06-25-18-25zm1.038 29.163c-3.614 0.398-13.873-1.561-14.253-2.847-0.687-2.32 4.534-6.921 12.052-7.844 7.52-0.922 13.217 0.767 12.711 3.051-1.222 5.517-6.846 7.235-10.51 7.64z" fill="#f3d4cf" stroke-width="none"/>
      <path d="m127.54 92.163c-3.614 0.398-13.873-1.561-14.253-2.847-0.687-2.32 4.534-6.921 12.052-7.844 6.46-0.792 11.563 0.345 12.556 2.128-0.898-6.4-7.7-11.397-15.987-11.434-8.911-0.037-16.148 5.676-16.172 12.765-0.021 7.088 7.185 12.862 16.095 12.902 8.913 0.037 16.149-5.676 16.173-12.764 0-0.105-0.016-0.208-0.019-0.313-1.331 5.327-6.835 7.008-10.445 7.407z" fill="url(#SvgjsRadialGradient2870)"/>
      <path d="m138.05 84.523c0.506-2.285-5.191-3.973-12.711-3.051-7.518 0.923-12.738 5.524-12.052 7.844 0.38 1.286 10.639 3.245 14.253 2.847 3.664-0.405 9.288-2.123 10.51-7.64z" fill="url(#SvgjsRadialGradient2875)"/>
      <path d="m137.65 79.417c-4.208-1.978-9.35-2.16-13.838-1.005-2.404 0.561-4.965 1.285-7.063 2.638-1.945 1.135-3.525 2.5-5.002 4.19 1.342-1.701 2.773-3.118 4.623-4.27 2.276-1.416 4.769-2.294 7.364-2.916 4.587-1.126 9.723-0.87 13.916 1.363z" fill="#c5796d" stroke-width="none"/>
      <path d="m142.68 80.972s-2.328 0.881-3.595 0.62c0.39-0.459 1.096-1.604 1.096-1.604s-1.853 0.551-3.151 0.032c-0.88-0.352-4.065-1-5.456-1.066-1.687-0.082-5.073 0.125-6.735 0.424-3.374 0.608-8.985 2.63-11.678 7.184-0.255 0.572-1.407 0.921-1.407 0.921s1.02-0.215 1.149 0.042c0.282 0.561-1.298 2.016-1.496 2.197 0.161-0.145 1.289-1.135 1.722-0.967 0.061 0.022 0.137 0.388 0.155 0.482-0.3-2.426 4.838-6.746 12.052-7.604 7.52-0.894 13.217 0.743 12.711 2.958-1.222 5.348-6.846 7.013-10.51 7.405-2.526 0.271-8.298-0.577-11.675-1.537l-1.011-0.317c1.999 1.009 7.524 2.195 9.767 2.403 0.744 0.07 2.24 0.104 2.986 0.085 5.949-0.158 10.16-3.179 11.729-7.26 0.125-0.328 0.494-0.619 0.838-0.696 1.604-0.361 5.096-1.811 5.096-1.811-2.32 0.361-3.483 0.674-5.305 0.059 1.779-0.666 2.718-1.95 2.718-1.95z" stroke-width="none"/>
     </g>
    </g>
    <g id="svga-group-facehighlight-single">
     <path d="m140.2 113.01c0.035 22.275-17.995 40.365-40.273 40.396-22.274 0.036-40.361-17.993-40.396-40.272-0.034-22.274 17.995-40.361 40.273-40.396 22.275-0.034 40.363 17.995 40.396 40.272z" fill="url(#SvgjsRadialGradient2754)"/>
     <path d="m135 55.999c0 19.329-15.671 35-35 35s-35-15.671-35-35 15.671-35 35-35 35 15.671 35 35z" fill="url(#SvgjsRadialGradient2758)"/>
    </g>
    <g id="svga-group-eyebrows-left">
     <path d="m74.799 69.068c-4.425-0.475-21.252 3.714-21.252 3.714s16.789-6.74 23.757-5.667c5.188 0.798 14.397 5.077 12.706 7.339-1.361 1.821-5.602-4.354-15.211-5.386z" fill="#2a232b" stroke-width="none"/>
    </g>
    <g id="svga-group-eyebrows-right">
     <path d="m109.73 74.187c-1.713-2.292 7.592-6.31 13.546-6.804 7.117-0.59 22.914 4.085 22.914 4.085s-15.9-2.628-20.377-2.106c-9.816 1.144-14.704 6.669-16.083 4.825z" fill="#2a232b" stroke-width="none"/>
    </g>
    <g id="svga-group-nose-single" stroke-width="none">
     <path d="m92.281 116.24c-0.745 2.063 5.028 4.289 7.218 4.426 2.374 0.147 9.024-2.899 7.896-4.991-1.185-2.197-5.63-0.286-7.547-0.286-1.908 0-6.572-1.905-7.567 0.851z" fill="#e4b3ab"/>
     <path d="m102.21 117.22c-0.243-0.522 1.194-1.333 1.748-1.493 0.777-0.226 2.505 0.238 2.438 0.831-0.06 0.521-1.603-0.169-2.105-0.022-0.521 0.15-1.853 1.175-2.081 0.684zm-6.993-0.479c0.706 0 1.753 0.457 1.945 0.057 0.229-0.479-1.56-1.065-2.086-1-0.434 0.052-1.991 0.958-1.777 1.338 0.2 0.353 0.988-0.395 1.918-0.395z" fill="#c5796d"/>
     <path d="m99.857 113.48c0.669 0 1.807-0.637 1.978-1.9 0.754-5.575-0.521-20.246-1.978-20.246-1.365 0-2.508 15.024-2.155 20.246 0.087 1.281 1.397 1.9 2.155 1.9" fill="#fff" opacity=".2"/>
    </g>
    <g id="svga-group-hair-front" strokeWidth="none">
     <path d="m142.2 28.734c-9.237-8.79-44.549-0.761-55.197 0.239-10.141 0.782-23.526-30.339-43.605 49.479 0.045 3.839 1.29 10.633 2.796 15.468 0.145-0.101 0.286-0.208 0.431-0.306 0 0-0.518 3.257 6.058 14.39-0.348-8.073 1.212-13.893 2.492-21.414 15.709-19.987 30.389-24.674 41.56-28.155-7.5 8.755-14.919 16.79-18.165 25.565 13.647-9.576 32.409-28.884 32.409-28.884s-1.403 4.703-27.685 28.884c10.943-2.679 31.345-13.679 45.636-34.951 2.746 4.5-12.4 30.794-12.827 31.801 7.663-6.086 18.079-14.636 20.755-24.62 0 0 1.571 4.043 2.662 8.635 2.878 12.162 2.904 27.281 3.429 31.125 1.665-8.721 1.925-18.482 1.922-18.355 3.905 17.893 0.419 30.394 0.352 34.724 5.198-10.435 10.604-22.897 12.177-34.534-2e-3 -1e-3 -11.619-50.691-15.2-49.091z" fill="#2a232b" opacity=".1"/>
     <path d="m170.62 67.866c-0.08-5.39-1.12-13.92-2.921-18.78 3.28 3.39 7.41 7.39 10.78 9.5-4.46-3.86-5.841-7.16-15.921-28.3-6.189-12.98-10.287-26.75-22.378-28.37-4.079-0.56-8.05 0.99-11.779 2.59-9.61-8.79-21.59-12.331-32.67-11.331-33.88 2.51-42.917 24.391-61.037 28.771 2.84 0.83 7.616-0.468 10.336-1.748-3.75 5.06-2.422 4.531-10.692 12.801-3.37 3.34-6.483 7.444-10.543 9.854 5.449-0.681 8.312-4.834 16.282-9.104-1.15 1.84-5.249 8.094-11.929 14.494-2.87 2.74-7.599 6.584-10.899 8.914 2.41-0.96 9.489-3.726 15.608-9.152-3.169 4.531-12.261 12.94-8.145 29.881 0.832-7.406-1e-3 -16.415 7.048-20.895-0.784 3.301-3.814 10.222-1.603 17.708h10.935c0.047 3.839 1.341 10.934 2.909 15.769 0.151-0.101 0.297-0.208 0.449-0.306 0 0 0.502 3.257 7.343 14.39-0.364-8.073 0.222-13.893 1.553-21.414 16.345-19.987 31.619-24.674 43.241-28.155-7.804 8.755-13.814 18.837-17.193 27.612 11.046-11.66 33.834-29.767 33.834-29.767s-0.364 4.866-27.712 29.046c9.449-5.795 29.698-15.006 44.566-36.278 2.858 4.5-10.819 30.794-11.264 31.801 7.974-6.086 14.646-16.636 17.435-26.62 0 0 3.716 6.043 4.847 10.635 2.995 12.162 1.984 22.281 2.528 26.125 1.732-8.721 3.042-13.482 3.039-13.355 4.066 17.893-0.604 32.394-0.672 36.724 5.406-10.434 12.072-24.997 13.709-36.634h11.598c-0.669-4.328-0.173-4.34-0.682-6.406z" fill="#2a232b"/>
     <path d="m177.24 37.286c-3.811-0.17-5.876 0.099-10.356-0.261-0.67-1.53-2.738-5.55-3.438-7.07 3.499 3.1 10.764 7.021 13.794 7.331z" fill="#0c080c"/>
     <path d="m40.385 33.266c-7.787 4.224-11.305 8.458-15.656 9.179 4.06-2.41 6.46-5.99 9.83-9.33 8.27-8.27 7.26-8.3 11.01-13.36-2.604 1.225-7.117 2.837-9.989 2.247 13.52-1.08 28.392-18.292 44.42-16.002-16.495 1.833-30.467 13.744-39.615 27.266zm78.432 44.131c11.188-23.146 11.904-26.578 11.264-31.801-13.432 19.217-40.876 34.016-44.566 36.278 16.33-14.438 23.567-24.358 26.301-27.924-22.624 17.988-22.608 18.284-32.424 28.645 5.663-14.707 2.783-11.447 17.193-27.612-6.263 1.876-11.361 3.689-15.442 5.618 0.567-1.342 0.738-2.05 2.64-4.833 7.124-4.361 21.086-15.032 31.086-18.481-3.529 2.783-5.345 6.283-8.84 9.096 5.358-1.356 11.907-2.056 22.24-7.796-0.553 0.442 17.922-8.631 11.935-19.03 3.684 2.625 0.95 13.336-0.784 23.305 3.888 5.373 4.755 11.915 6.033 18.583 0.121-2.193 0.47-7.496 0.016-9.648 2.284 5.926 5.567 13.815 5.526 22.481 4.416-11.709 1.005-22.278 1.005-33.278 3.791 6.331 5.29 17.906 6.192 25.033 0.916-4.582 1.52-8.026-0.544-14.033 1.302 1.624 3.089 2.834 4.352 5-1.721-9.445-4.858-16.042-9.204-22.833 4.125 4.769 10.204 8.833 12.204 14.833-1-11-5-22-12-31 3.743 4.367 7.097 8.734 10.061 13.343 9.618 20.183 11.033 23.448 15.417 27.242-3.37-2.11-7.5-6.109-10.78-9.5 1.801 4.86 2.841 13.39 2.921 18.78 0.509 2.065 0.013 2.178 0.682 6.505h-11.597c-1.637 11.637-8.303 26.1-13.709 36.534 0.066-4.227 4.514-18.146 0.944-35.449-0.088-0.424-0.175-0.847-0.272-1.275 3e-3 -0.127-1.307 4.635-3.039 13.355-0.544-3.844 0.467-13.963-2.528-26.125-1.131-4.592-4.847-10.635-4.847-10.635-7.421 18.866-15.389 25.994-17.436 26.622zm-23.948-34.213c-9.073 2.655-17.869 9.816-24.869 16.816 2-3 3-7 6-10 5-10 14-17 21-25-15 9-24 22-35 35 3-6 6-14 11-19-10 5-12 15-19 23 4-32 34-69 69-58-34.941-13.698-69.453 23.071-77.605 62.148-0.034-3.79 0.526-25.069 8.605-33.148-8 6-10 16-15 23-0.814-4.072 1.024-7.481 2.274-10.767-1.054 1.576-3.016 2.758-4.23 4.512 2.533-8.074 5.029-16.461 12.956-21.745-4.726 2.363-8.216 5.96-12.902 8.362-2.15 2.944-5.13 6.637-8.769 10.124-2.87 2.74-6.98 5.88-10.28 8.21 2.41-0.96 9.3-4.7 15.47-9.49-2.95 4.77-12.27 12.74-8.9 29.41 0.33-7.42 0.52-15.68 7.57-20.16-0.784 3.301-4.044 11.058-1.833 18.544h10.734c0.047 3.839 1.341 10.633 2.909 15.468 0.151-0.101 0.297-0.208 0.449-0.306 0 0 0.318 1.985 3.66 8.081 0.96 1.751 2.157 3.824 3.684 6.309-0.364-8.073 0.222-13.893 1.553-21.414 9.843-12.036 19.295-18.52 27.798-22.537 0.716-1.697 3.538-8.643 13.726-17.417z" fill="#1b141c"/>
     <path d="m39.14 35.028c11.571-22.705 34.802-29.228 43.095-29.199-17.949 4.063-30.699 11.99-43.095 29.199zm73.146-30.961c-12.973-0.838-37.179 7.513-50.131 34.641 14.339-25.641 40.758-35.243 50.131-34.641zm32.027 3.816c-0.668-0.242-1.258-0.718-1.929-0.979-7.811-3.035-14.957 2.381-15.565 7.654 1.173-5.175 8.967-9.755 17.494-6.675zm-6.125 3.738c12.901-3.002 23.234 21.063 23.497 22.066-2.085-7.987-11.103-25.833-23.157-22.919-3.965 0.959-7.038 3.953-9.309 7.198 2.367-2.853 5.249-5.496 8.969-6.345zm-45.657 38.355c7.02-5.938 39.023-15.771 37.895-29.705-0.192 12.611-25.401 19.136-37.895 29.705zm31.362-33.309c-2.088-0.968-6.35-4.938-17.326 1.636-17.698 10.599-28.709 28.413-31.36 32.846 8.448-11.709 34.477-41.056 48.686-34.482z" fill="#0c080c"/>
     <path d="m77.774 9.337c-19.381 6.863-32.379 20.881-32.379 20.881 9.285-10.135 17.893-17.261 32.379-20.881zm-25.027 23.277c1.826-3.136 16.3-19.207 24.673-22.069-8.849 2.343-19.95 13.958-24.673 22.069zm19.668-2.419s14.956-18.491 31.382-22.259c-12.939 1.068-24.41 11.467-31.382 22.259zm18.753 5.523c0.92-1.296 18.853-16.116 26.805-18.162-8.694 1.224-24.218 14.519-26.805 18.162zm15.451-6.681c1.081-1.479 8.328-8.794 17.066-9.925-7.864 0.191-12.523 3.712-17.066 9.925zm-7.926 10.291c4.613-6.021 17.328-8.604 25.865-17.449-7.793 7.213-19.493 9.133-25.865 17.449zm15.442 3.502c1.002 0 18.698-9.222 22.402-13.077 3.405-3.543 3.938-7.255 1.396-8.925 3.425 3.821-1.259 7.586-3.095 9.151-1.737 1.482-9.492 6.766-20.703 12.851 1e-3 0 0.97-0.527 0 0zm19.059-6.805c6.469-4.646 10.608-13.196 6.736-16.54-1.339-1.156-3.436-1.577-5.168-1.556 1.738-0.021 4.151 0.622 5.297 1.993 4.005 4.778-3.688 12.915-8.86 16.402-7.433 5.012-16.3 7.966-24.96 10.046 9.299-1.997 19.128-4.724 26.955-10.345zm-58.734-1.797s12.903-15.915 26.442-21.077c1.596-0.608 3.241-0.829 4.901-1.161-12.623 1.191-24.367 11.821-31.343 22.238zm-3.459 8.856c1-0.716 18.004-20.675 33.561-26.663-13.226 3.319-25.994 15.19-33.561 26.663zm88.664-7.829c-0.596-1.001-5.457-18.448-15.779-16.404 6.924-0.663 12.276 9.225 15.779 16.404zm-9.168 18.973c0.147-4.855 2.044-15.259-6.717-23.478 4.614 5.487 6.882 14.656 6.717 23.478z" fill="#3a353a"/>
     <path d="m183.02 61.345c-8.591-7.05-8.95-8.69-15.57-23.75 4.52 0.38 8.39 0.06 12.06-0.2-7.56-0.74-13.149-6.29-16.029-8.68-7.57-16.09-13.48-31.96-30.74-26.41-1.36 0.44-2.71 0.96-4.04 1.57-7.68-8.32-19.42-12.54-30.32-12.49-31.79 0.12-46.83 23.91-60.24 29.1-1.6 0.62-3.38 1.09-5.08 1.49 3.02 1.09 5.67 1.29 10.67-0.75-6.2 8.24-3.19 3.92-10.56 11.66-3.32 3.46-6.43 8.08-11.15 10.25 3.97 0.5 6.69-0.69 10.14-3.04 2.39-1.61 4.84-3.66 6.64-4.95-7.24 11.04-24.31 23.26-24.31 23.26 5.59-1.06 11.42-4.38 16.11-8.14-0.17 0.23-0.35 0.46-0.52 0.69-2.46 3.25-4.83 6.75-5.96 10.71-2.02 7.04-1.06 13.639 1.46 20.489-0.64-6.07-0.74-18.58 5.67-24.379-1.225 3.473-4.229 10.286-2.087 17.225h1.192c-2.211-7.485 1.049-15.243 1.833-18.544-7.05 4.48-7.24 12.74-7.57 20.16-3.37-16.67 5.95-24.64 8.9-29.41-6.17 4.79-13.06 8.53-15.47 9.49 3.3-2.33 7.41-5.47 10.28-8.21 6.68-6.4 11.16-13.52 12.31-15.36-7.97 4.27-11.51 8.59-15.91 9.32 4.06-2.41 6.46-5.99 9.83-9.33 8.27-8.27 7.26-8.3 11.01-13.36-2.72 1.28-7.53 2.99-10.37 2.16 18.12-4.38 26.65-25.73 60.53-28.24 11.081-1 23.06 2.04 32.67 10.83 3.729-1.6 7.7-2.95 11.779-2.39 12.091 1.62 15.591 15.19 21.78 28.17 10.08 21.14 11.66 24.14 16.12 28-3.37-2.11-7.5-6.41-10.78-9.8 1.801 4.86 3.04 13.19 3.12 18.58-2.05-6.78-5.83-12.26-9.87-17.39 0.851 1.22 8.21 10.8 10.021 22.35-3.05-6.02-6.92-11.45-11.21-16.62 6.775 9.128 9.306 14.798 11.318 19.136 0.264 0 0.029-0.217 1.079 6e-3 -0.079-0.174-0.238-0.532-0.317-0.703-0.061-1 1.05-12.39-2.931-23.38 4.831 5.41 7.161 8.33 14.512 10.88zm-6.581-24.159c-3.811-0.17-4.88-0.2-9.36-0.56-0.67-1.53-2.34-4.35-3.04-5.87 3.5 3.099 9.37 6.119 12.4 6.43zm-19.589 49.859c-2.49 9.14-6.841 19.28-11.99 26.3 1.87-13.8 3.479-27.76 1.779-37.28-0.569 5.73-1.899 11.2-3.64 16.67 0.41-7.11-0.35-14.37-1.02-21.44-0.341-3.52-0.83-7.01-1.57-10.47-0.7-3.29-2.34-6.27-3.84-9.25-1.78 5.84-4.65 10.85-7.84 16.03-3.07 4.99-6.88 9.18-11.92 12.14 3.25-5.36 6.229-12.75 8.229-16.96 1.84-3.88 5.39-10.32 4.9-16.33-5.561 8.7-14.36 16.58-22.58 22.81-7.86 5.96-24.62 14.67-25.62 15.05 0.2-0.22 9.54-8.66 15.53-14.51 11.36-11.08 13.21-13.3 14.78-15.65-5.8 5.05-11.42 10.3-17.24 15.33-5.66 4.89-11.44 9.71-16.74 15.01 1.5-5.41 3.99-10.33 6.6-15.03 2.85-5.11 6.46-9.39 10.58-13.51-23.378 7.551-39.08 24.38-41.29 27.14-0.51 4.42-1.17 19.86-0.71 26.4-5.932-10.697-18.602-27.757-11.658-54.876-2.687 13.262 0.833 34.105 9.848 48.787-0.29-6.43 0.32-13.03 1.44-19.36-1.86 1.91-3.76 3.72-5.87 5.34 1.09-6.52 4.68-12.63 7.9-18.31 3.06-5.37 6.49-10.68 11.13-14.84-3.67 4.46-6.98 9.89-9.99 15.14-3.3 5.75-6.98 12.73-8.18 16.9 6.77-6.6 10.3-14.29 26.97-24.64 9.7-6.02 15.45-7.08 21.66-8.94 1.07-1.1 2.13-2.19 3.17-3.32 1.99-2.16 3.74-4.46 5.47-6.83-6.689 10.42-8.76 10.79-13.779 17.45-7.61 10.09-8.34 13.08-11.13 19.26 6.1-6.44 9.41-8.49 15.85-14.6 5.07-4.82 16.58-13.46 16.89-13.98 1.25-2.11 2.46-5.22 4.15-8.13-1.7 3.56-2.63 7.37-4.78 10.7-2.16 3.34-5.29 6.29-7.97 9.21-4.42 4.81-10.89 10.75-17.41 16.21 4.99-3.06 10.19-5.66 15.03-8.99 4.7-3.23 9.27-6.71 13.56-10.48 8.301-7.28 15.11-15.79 20.34-25.49-1.63 3.43-3.42 6.79-5.46 9.99 0.631 3.72-0.199 7.31-1.569 10.78-0.41 1.04-7.29 16.5-9.37 20.14 2.96-2.26 5.1-5.08 7.16-8.15 6.95-10.4 10.42-17.72 12.35-30.55-0.399 4.22-0.979 8.44-2.11 12.54 2.061 5.1 3.341 6.48 4.5 10.88 2.12 8.04 2.54 16.39 2.32 24.67 2.26-11.38 3.4-22.64 1.76-34.21 2.41 13.95 1.49 22.32 1.49 22.32 0.5 2.2 0.88 4.42 1.16 6.66 1.21 9.68 0.1 19.31-1.81 28.82 9.399-18.14 11.949-43.65 7.229-63.271 2.04 6.83 3.16 13.82 3.34 20.95 0.181 6.9-0.05 14.01-1.229 20.82 2.29-5.99 4.412-15.707 4.412-17.556 0.28 3.96-1.573 10.466-3.212 16.506z"/>
    </g>
    <g id="svga-group-glasses-single">
     <path d="m100 18.13z" fill="#26120b" stroke-width="none"/>
    </g>
   </g>
  </g>
  <rect y="185" width="200" height="15" display="none" fill="#ecf0f1" opacity=".5"/>
  <text x="100" y="185" display="none" fill="#000000" font-family="Roboto, 'Helvetica Neue', Helvetica, Arial, sans-serif" font-size="10.08px" font-weight="400" text-anchor="middle">
   <tspan x="100" dy="1.2em" font-family="Roboto, 'Helvetica Neue', Helvetica, Arial, sans-serif" font-size="8.4672px" font-weight="400" text-anchor="middle">Created by face.co</tspan>
  </text>
 </g>
 <defs>
  <radialGradient id="SvgjsRadialGradient2754" class="svga-on-canvas-facehighlight-gradient-single-0" cx="100" cy="113" r="40" gradientUnits="userSpaceOnUse">
   <stop stop-color="#fff4f3" stop-opacity=".5" offset="0"/>
   <stop stop-color="#f3d4cf" stop-opacity="0" offset=".9"/>
  </radialGradient>
  <radialGradient id="SvgjsRadialGradient2758" class="svga-on-canvas-facehighlight-gradient-single-1" cx="100" cy="57" r="36" gradientUnits="userSpaceOnUse">
   <stop stop-color="#fff4f3" stop-opacity=".5" offset="0"/>
   <stop stop-color="#f3d4cf" stop-opacity="0" offset=".9"/>
  </radialGradient>
  <radialGradient id="SvgjsRadialGradient2781" class="svga-on-canvas-eyesback-gradient-left-0" cx="129.05" cy="85.956" r="15.117" gradientTransform="matrix(-.9945 .1042 .1042 .9945 192.83 -12.464)" gradientUnits="userSpaceOnUse">
   <stop stop-color="#fff" offset="0"/>
   <stop stop-color="#fcfdfd" offset=".316"/>
   <stop stop-color="#f4f7f8" offset=".505"/>
   <stop stop-color="#e5ecef" offset=".661"/>
   <stop stop-color="#d8e2e7" offset=".76"/>
  </radialGradient>
  <radialGradient id="SvgjsRadialGradient2788" class="svga-on-canvas-eyesback-gradient-right-0" cx="129.05" cy="85.956" r="15.117" gradientTransform="matrix(.9945 .1042 -.1042 .9945 7.1735 -12.464)" gradientUnits="userSpaceOnUse">
   <stop stop-color="#fff" offset="0"/>
   <stop stop-color="#fcfdfd" offset=".316"/>
   <stop stop-color="#f4f7f8" offset=".505"/>
   <stop stop-color="#e5ecef" offset=".661"/>
   <stop stop-color="#d8e2e7" offset=".76"/>
  </radialGradient>
  <radialGradient id="SvgjsRadialGradient2796" class="svga-on-canvas-eyesiris-gradient-left-1" cx="-558.59" cy="-490.92" r="84.646" gradientTransform="matrix(.096 -.0248 .0245 .0961 140.55 120.36)" gradientUnits="userSpaceOnUse">
   <stop stop-color="#fff" stop-opacity=".8" offset="0"/>
   <stop stop-color="#fff" stop-opacity="0" offset="1"/>
  </radialGradient>
  <radialGradient id="SvgjsRadialGradient2800" class="svga-on-canvas-eyesiris-gradient-left-2" cx="-565.34" cy="-492.69" r="84.644" gradientTransform="matrix(.0991 .00088563 -.0011 .0991 130.38 136.35)" gradientUnits="userSpaceOnUse">
   <stop stop-color="#fff" stop-opacity=".8" offset="0"/>
   <stop stop-color="#fff" stop-opacity="0" offset="1"/>
  </radialGradient>
  <linearGradient id="SvgjsLinearGradient2806" class="svga-on-canvas-eyesiris-gradient-left-5" x1="122.28" x2="123.61" y1="93.047" y2="91.466" gradientTransform="translate(-52)" gradientUnits="userSpaceOnUse">
   <stop stop-color="#fff" offset="0"/>
   <stop stop-color="#fff" stop-opacity="0" offset="1"/>
  </linearGradient>
  <linearGradient id="SvgjsLinearGradient2810" class="svga-on-canvas-eyesiris-gradient-left-6" x1="127" x2="125" y1="85" y2="87" gradientTransform="translate(-50)" gradientUnits="userSpaceOnUse">
   <stop stop-color="#fff" offset="0"/>
   <stop stop-color="#fff" stop-opacity="0" offset="1"/>
  </linearGradient>
  <linearGradient id="SvgjsLinearGradient2814" class="svga-on-canvas-eyesiris-gradient-left-7" x1="130" x2="126" y1="81" y2="85" gradientTransform="translate(-50)" gradientUnits="userSpaceOnUse">
   <stop stop-color="#fff" offset="0"/>
   <stop stop-color="#fff" stop-opacity="0" offset="1"/>
  </linearGradient>
  <radialGradient id="SvgjsRadialGradient2819" class="svga-on-canvas-eyesiris-gradient-right-1" cx="-578.76" cy="-490.73" r="84.646" gradientTransform="matrix(.096 -.0248 .0245 .0961 192.48 119.84)" gradientUnits="userSpaceOnUse">
   <stop stop-color="#fff" stop-opacity=".8" offset="0"/>
   <stop stop-color="#fff" stop-opacity="0" offset="1"/>
  </radialGradient>
  <radialGradient id="SvgjsRadialGradient2823" class="svga-on-canvas-eyesiris-gradient-right-2" cx="-584.78" cy="-487.33" r="84.644" gradientTransform="matrix(.0991 .00088563 -.0011 .0991 182.31 135.84)" gradientUnits="userSpaceOnUse">
   <stop stop-color="#fff" stop-opacity=".8" offset="0"/>
   <stop stop-color="#fff" stop-opacity="0" offset="1"/>
  </radialGradient>
  <linearGradient id="SvgjsLinearGradient2829" class="svga-on-canvas-eyesiris-gradient-right-5" x1="120.28" x2="121.61" y1="93.047" y2="91.467" gradientUnits="userSpaceOnUse">
   <stop stop-color="#fff" offset="0"/>
   <stop stop-color="#fff" stop-opacity="0" offset="1"/>
  </linearGradient>
  <linearGradient id="SvgjsLinearGradient2833" class="svga-on-canvas-eyesiris-gradient-right-6" x1="127" x2="125" y1="85" y2="87" gradientUnits="userSpaceOnUse">
   <stop stop-color="#fff" offset="0"/>
   <stop stop-color="#fff" stop-opacity="0" offset="1"/>
  </linearGradient>
  <linearGradient id="SvgjsLinearGradient2837" class="svga-on-canvas-eyesiris-gradient-right-7" x1="130" x2="126" y1="81" y2="85" gradientUnits="userSpaceOnUse">
   <stop stop-color="#fff" offset="0"/>
   <stop stop-color="#fff" stop-opacity="0" offset="1"/>
  </linearGradient>
  <radialGradient id="SvgjsRadialGradient2850" class="svga-on-canvas-eyesfront-gradient-left-3" cx="121.79" cy="84.496" r="16.003" fx="133.04" fy="84.527" gradientTransform="matrix(.9998 .0208 .0166 -.7998 -44.952 149.54)" gradientUnits="userSpaceOnUse">
   <stop stop-color="#e4b3ab" offset="0"/>
   <stop stop-color="#e4b3ab" stop-opacity=".3" offset=".7"/>
   <stop stop-color="#f3d4cf" stop-opacity="0" offset="1"/>
  </radialGradient>
  <radialGradient id="SvgjsRadialGradient2855" class="svga-on-canvas-eyesfront-gradient-left-4" cx="69.124" cy="107.53" r="29.525" gradientTransform="matrix(1.0336,0,0,1.0336,-1.6792,1.7282)" gradientUnits="userSpaceOnUse">
   <stop stop-opacity="0" offset=".95"/>
   <stop stop-opacity=".3" offset="1"/>
  </radialGradient>
  <radialGradient id="SvgjsRadialGradient2870" class="svga-on-canvas-eyesfront-gradient-right-3" cx="121.79" cy="84.496" r="16.003" fx="133.04" fy="84.527" gradientTransform="matrix(-.9998 .0208 -.0166 -.7998 244.95 149.54)" gradientUnits="userSpaceOnUse">
   <stop stop-color="#e4b3ab" offset="0"/>
   <stop stop-color="#e4b3ab" stop-opacity=".3" offset=".7"/>
   <stop stop-color="#f3d4cf" stop-opacity="0" offset="1"/>
  </radialGradient>
  <radialGradient id="SvgjsRadialGradient2875" class="svga-on-canvas-eyesfront-gradient-right-4" cx="69.124" cy="107.53" r="29.525" gradientTransform="matrix(-1.0336 0 0 1.0336 201.68 1.7282)" gradientUnits="userSpaceOnUse">
   <stop stop-opacity="0" offset=".95"/>
   <stop stop-opacity=".3" offset="1"/>
  </radialGradient>
  <linearGradient id="SvgjsLinearGradient2883" class="svga-on-canvas-mouth-gradient-single-0" x1="100" x2="100" y1="141" y2="138" gradientUnits="userSpaceOnUse">
   <stop stop-color="#ebc3bd" offset=".1"/>
   <stop stop-color="#e4b3ab" offset="1"/>
  </linearGradient>
  <linearGradient id="SvgjsLinearGradient2969" class="svga-on-canvas-chinshadow-gradient-single-0" x1="99.98" x2="99.98" y1="171.27" y2="136.35" gradientUnits="userSpaceOnUse">
   <stop stop-color="#e4b3ab" stop-opacity=".8" offset="0"/>
   <stop stop-color="#c5796d" offset=".7"/>
  </linearGradient>
 </defs>
</svg>
