<svg width="198.44mm" height="201.6mm" version="1.1" viewBox="0 0 198.44 201.6" xmlns="http://www.w3.org/2000/svg">
 <defs>
  <radialGradient id="SvgjsRadialGradient2754" class="svga-on-canvas-facehighlight-gradient-single-0" cx="100" cy="113" r="40" gradientUnits="userSpaceOnUse">
   <stop stop-color="#fff4f3" stop-opacity=".5" offset="0"/>
   <stop stop-color="#f3d4cf" stop-opacity="0" offset=".9"/>
  </radialGradient>
  <radialGradient id="SvgjsRadialGradient2758" class="svga-on-canvas-facehighlight-gradient-single-1" cx="100" cy="57" r="36" gradientUnits="userSpaceOnUse">
   <stop stop-color="#fff4f3" stop-opacity=".5" offset="0"/>
   <stop stop-color="#f3d4cf" stop-opacity="0" offset=".9"/>
  </radialGradient>
  <radialGradient id="SvgjsRadialGradient2781" class="svga-on-canvas-eyesback-gradient-left-0" cx="129.05" cy="85.956" r="15.117" gradientTransform="matrix(-.9945 .1042 .1042 .9945 192.83 -12.464)" gradientUnits="userSpaceOnUse">
   <stop stop-color="#fff" offset="0"/>
   <stop stop-color="#fcfdfd" offset=".316"/>
   <stop stop-color="#f4f7f8" offset=".505"/>
   <stop stop-color="#e5ecef" offset=".661"/>
   <stop stop-color="#d8e2e7" offset=".76"/>
  </radialGradient>
  <radialGradient id="SvgjsRadialGradient2788" class="svga-on-canvas-eyesback-gradient-right-0" cx="129.05" cy="85.956" r="15.117" gradientTransform="matrix(.9945 .1042 -.1042 .9945 7.1735 -12.464)" gradientUnits="userSpaceOnUse">
   <stop stop-color="#fff" offset="0"/>
   <stop stop-color="#fcfdfd" offset=".316"/>
   <stop stop-color="#f4f7f8" offset=".505"/>
   <stop stop-color="#e5ecef" offset=".661"/>
   <stop stop-color="#d8e2e7" offset=".76"/>
  </radialGradient>
  <radialGradient id="SvgjsRadialGradient2796" class="svga-on-canvas-eyesiris-gradient-left-1" cx="-558.59" cy="-490.92" r="84.646" gradientTransform="matrix(.096 -.0248 .0245 .0961 140.55 120.36)" gradientUnits="userSpaceOnUse">
   <stop stop-color="#fff" stop-opacity=".8" offset="0"/>
   <stop stop-color="#fff" stop-opacity="0" offset="1"/>
  </radialGradient>
  <radialGradient id="SvgjsRadialGradient2800" class="svga-on-canvas-eyesiris-gradient-left-2" cx="-565.34" cy="-492.69" r="84.644" gradientTransform="matrix(.0991 .00088563 -.0011 .0991 130.38 136.35)" gradientUnits="userSpaceOnUse">
   <stop stop-color="#fff" stop-opacity=".8" offset="0"/>
   <stop stop-color="#fff" stop-opacity="0" offset="1"/>
  </radialGradient>
  <linearGradient id="SvgjsLinearGradient2806" class="svga-on-canvas-eyesiris-gradient-left-5" x1="122.28" x2="123.61" y1="93.047" y2="91.466" gradientTransform="translate(-52)" gradientUnits="userSpaceOnUse">
   <stop stop-color="#fff" offset="0"/>
   <stop stop-color="#fff" stop-opacity="0" offset="1"/>
  </linearGradient>
  <linearGradient id="SvgjsLinearGradient2810" class="svga-on-canvas-eyesiris-gradient-left-6" x1="127" x2="125" y1="85" y2="87" gradientTransform="translate(-50)" gradientUnits="userSpaceOnUse">
   <stop stop-color="#fff" offset="0"/>
   <stop stop-color="#fff" stop-opacity="0" offset="1"/>
  </linearGradient>
  <linearGradient id="SvgjsLinearGradient2814" class="svga-on-canvas-eyesiris-gradient-left-7" x1="130" x2="126" y1="81" y2="85" gradientTransform="translate(-50)" gradientUnits="userSpaceOnUse">
   <stop stop-color="#fff" offset="0"/>
   <stop stop-color="#fff" stop-opacity="0" offset="1"/>
  </linearGradient>
  <radialGradient id="SvgjsRadialGradient2819" class="svga-on-canvas-eyesiris-gradient-right-1" cx="-578.76" cy="-490.73" r="84.646" gradientTransform="matrix(.096 -.0248 .0245 .0961 192.48 119.84)" gradientUnits="userSpaceOnUse">
   <stop stop-color="#fff" stop-opacity=".8" offset="0"/>
   <stop stop-color="#fff" stop-opacity="0" offset="1"/>
  </radialGradient>
  <radialGradient id="SvgjsRadialGradient2823" class="svga-on-canvas-eyesiris-gradient-right-2" cx="-584.78" cy="-487.33" r="84.644" gradientTransform="matrix(.0991 .00088563 -.0011 .0991 182.31 135.84)" gradientUnits="userSpaceOnUse">
   <stop stop-color="#fff" stop-opacity=".8" offset="0"/>
   <stop stop-color="#fff" stop-opacity="0" offset="1"/>
  </radialGradient>
  <linearGradient id="SvgjsLinearGradient2829" class="svga-on-canvas-eyesiris-gradient-right-5" x1="120.28" x2="121.61" y1="93.047" y2="91.467" gradientUnits="userSpaceOnUse">
   <stop stop-color="#fff" offset="0"/>
   <stop stop-color="#fff" stop-opacity="0" offset="1"/>
  </linearGradient>
  <linearGradient id="SvgjsLinearGradient2833" class="svga-on-canvas-eyesiris-gradient-right-6" x1="127" x2="125" y1="85" y2="87" gradientUnits="userSpaceOnUse">
   <stop stop-color="#fff" offset="0"/>
   <stop stop-color="#fff" stop-opacity="0" offset="1"/>
  </linearGradient>
  <linearGradient id="SvgjsLinearGradient2837" class="svga-on-canvas-eyesiris-gradient-right-7" x1="130" x2="126" y1="81" y2="85" gradientUnits="userSpaceOnUse">
   <stop stop-color="#fff" offset="0"/>
   <stop stop-color="#fff" stop-opacity="0" offset="1"/>
  </linearGradient>
  <radialGradient id="SvgjsRadialGradient2850" class="svga-on-canvas-eyesfront-gradient-left-3" cx="121.79" cy="84.496" r="16.003" fx="133.04" fy="84.527" gradientTransform="matrix(.9998 .0208 .0166 -.7998 -44.952 149.54)" gradientUnits="userSpaceOnUse">
   <stop stop-color="#e4b3ab" offset="0"/>
   <stop stop-color="#e4b3ab" stop-opacity=".3" offset=".7"/>
   <stop stop-color="#f3d4cf" stop-opacity="0" offset="1"/>
  </radialGradient>
  <radialGradient id="SvgjsRadialGradient2855" class="svga-on-canvas-eyesfront-gradient-left-4" cx="69.124" cy="107.53" r="29.525" gradientTransform="matrix(1.0336,0,0,1.0336,-1.6792,1.7282)" gradientUnits="userSpaceOnUse">
   <stop stop-opacity="0" offset=".95"/>
   <stop stop-opacity=".3" offset="1"/>
  </radialGradient>
  <radialGradient id="SvgjsRadialGradient2870" class="svga-on-canvas-eyesfront-gradient-right-3" cx="121.79" cy="84.496" r="16.003" fx="133.04" fy="84.527" gradientTransform="matrix(-.9998 .0208 -.0166 -.7998 244.95 149.54)" gradientUnits="userSpaceOnUse">
   <stop stop-color="#e4b3ab" offset="0"/>
   <stop stop-color="#e4b3ab" stop-opacity=".3" offset=".7"/>
   <stop stop-color="#f3d4cf" stop-opacity="0" offset="1"/>
  </radialGradient>
  <radialGradient id="SvgjsRadialGradient2875" class="svga-on-canvas-eyesfront-gradient-right-4" cx="69.124" cy="107.53" r="29.525" gradientTransform="matrix(-1.0336 0 0 1.0336 201.68 1.7282)" gradientUnits="userSpaceOnUse">
   <stop stop-opacity="0" offset=".95"/>
   <stop stop-opacity=".3" offset="1"/>
  </radialGradient>
  <linearGradient id="SvgjsLinearGradient2883" class="svga-on-canvas-mouth-gradient-single-0" x1="100" x2="100" y1="141" y2="138" gradientUnits="userSpaceOnUse">
   <stop stop-color="#ebc3bd" offset=".1"/>
   <stop stop-color="#e4b3ab" offset="1"/>
  </linearGradient>
  <linearGradient id="SvgjsLinearGradient2911" class="svga-on-canvas-chinshadow-gradient-single-0" x1="99.98" x2="99.98" y1="171.27" y2="136.35" gradientUnits="userSpaceOnUse">
   <stop stop-color="#e4b3ab" stop-opacity=".8" offset="0"/>
   <stop stop-color="#c5796d" offset=".7"/>
  </linearGradient>
 </defs>
 <g transform="translate(202.78 9.4211)">
  <g transform="matrix(.26458 0 0 .26458 -182.94 10.423)">
   <g id="svga-group-wrapper" transform="scale(3)">
    <g id="svga-group-backs-single">
     <path d="m225 225h-250v-250h250z" fill="#ecf0f1" stroke-width="none"/>
    </g>
    <g id="svga-group-subwrapper">
     <g id="svga-group-hair-back" stroke-width="none">
      <path d="m41.279 215.27c-0.033-0.044-0.063-0.094-0.095-0.14 3.872-1.418 107.98 7.4 115.03 6.323-1e-3 0.108-7e-3 0.217-7e-3 0.325 0.282-0.064 0.24-0.075 0.254-0.359 0.259-0.032 1.051-0.167 0.027-0.457 3.485-63.467 43.554-53.333 20.529-111.34-5.448-13.536-5.042-26.26-6.357-42.117-1.84 1.797-1.238 11.106-3.489 28.325 17.078 53.526 2.414 51.246-11.503 76.872-4.604 8.467-8.295 17.095-9.091 26.65-22.673-39.208-16.05-38.328-6.981-62.078-1.56 2.201-7.898 6.916-13.709 8.025 14.211-10.797 22.683-10.831 22.98-76.708-13.031-6.03-24.886-17.239-32.2-29.8-9.476 19.65-26.281 27.875-47.75 31.14-5.35 2.72-10.92 5-16.55 7.08-0.476 27.679 6.753 46.579 21.26 66.64-5.091-3.645-10.294-9.649-13.96-14.758 4.4 8.811 10.944 16.104 9.16 31.867-1.972 17.313-18.629 29.105-18.629 51.372-16.264-25.388-21.752-14.633-17.979-42.312-6.177-10.806-9.18-18.142-11.68-25.979-0.605-5e-3 -1.578 0.138-2.133 0.204-7.074 26.657 3.058 46.46 22.872 71.228z" fill="#1b141c"/>
      <path d="m142.49 227.85h-90v-130.61h90z" fill="#0c080c"/>
      <path d="m156.49 220.96c3.485-63.467 43.554-53.333 20.529-111.34-4.317-10.726-4.958-20.946-5.692-32.615h-0.641c0.342 11.384 0.54 21.512 3.883 31.266 20.946 61.4-17.667 48.849-18.343 112.64-4.423-0.602-111.11-7.244-115.04-5.775-14.061-20.667-24.449-40.831-22.283-63.372-0.668-0.594-1.228-1.297-1.759-2.028-4.286 23.862 5.757 42.566 24.137 65.541-0.033-0.044-0.063-0.094-0.095-0.14 3.872-1.418 107.98 7.4 115.03 6.323-1e-3 0.108-7e-3 0.217-7e-3 0.325 0.282-0.064 0.24-0.075 0.254-0.359 0.26-0.033 1.052-0.168 0.028-0.458z"/>
     </g>
     <g id="svga-group-humanbody-single">
      <g stroke-width="none">
       <path d="m190.86 199.87c-6.008-10.158-13.474-11.973-19.628-13.936-6.323-2.016-19.346-3.178-26.449-4.6-6.86-1.373-23.153-5.789-23.339-13.488-0.192-8.066 4.291-40.09 4.291-40.09h-51.728s4.487 32.023 4.294 40.09c-0.184 7.699-16.48 12.115-23.341 13.488-7.104 1.422-20.125 2.584-26.448 4.6-6.156 1.963-13.624 3.777-19.632 13.936-3.644 6.16-6.008 16.133-6.008 27.133h194c-1e-3 -11-2.361-20.973-6.012-27.133z" fill="#f3d4cf"/>
       <path d="m121.44 167.84c2.495 10.929 18.165 13.698 26.293 15.325 21.909 4.379 33.772 5.134 42.297 19.539 2.903 4.916 5.459 15.864 5.962 24.153 1.835 0.291 0.531-17.432-5.136-26.994-9.742-16.472-29.089-15.135-46.077-18.535-6.86-1.373-23.153-5.789-23.339-13.488zm-42.884 0c-0.186 7.699-16.479 12.115-23.339 13.488-16.988 3.4-36.335 2.063-46.077 18.535-5.667 9.563-6.971 27.285-5.136 26.994 0.503-8.289 3.059-19.237 5.962-24.153 8.524-14.405 20.388-15.16 42.297-19.539 8.128-1.627 23.798-4.397 26.293-15.325z" fill="#fff4f3"/>
       <path d="m51.206 189.51s28.641 0.299 33.473 1.885c2.314 0.758 8.372 5.633 8.372 5.633s-6.556-3.17-8.658-3.758c-4.883-1.364-33.187-3.76-33.187-3.76zm48.589 10.486c2.053-0.041 7.887-3.799 7.887-3.799s-5.574 2.059-7.342 2.16c-1.491 0.086-6.366-1.238-6.366-1.238s4.138 2.91 5.821 2.877zm17.213-7.242c6.75-1.818 29.786-3.23 29.786-3.23s-23.791-0.516-30.51 1.725c-2.252 0.752-7.562 5.16-7.562 5.16s6.064-3.058 8.286-3.655z" fill="#e4b3ab"/>
      </g>
      <path d="m190.86 199.87c-9.741-16.471-29.122-15.142-46.077-18.535-6.86-1.373-23.153-5.789-23.339-13.488-0.192-8.066 4.291-40.09 4.291-40.09h-51.728s4.487 32.023 4.294 40.09c-0.184 7.699-16.48 12.115-23.341 13.488-7.104 1.422-20.125 2.584-26.448 4.6-6.156 1.963-13.624 3.777-19.632 13.936-3.644 6.16-6.008 16.133-6.008 27.133h194c-1e-3 -11.001-2.361-20.974-6.012-27.134z" fill="none" stroke="#c5796d" stroke-width="1.5"/>
     </g>
     <g id="svga-group-chinshadow-single">
      <path d="m100.02 171.27c5.607-9e-3 13.53-3.627 20.967-8.478 0.485-6.84 1.756-17.341 2.758-25.098-13.972-1.825-33.828-1.785-47.741 0.101 0.995 7.702 2.249 18.065 2.739 24.877 7.534 4.921 15.6 8.607 21.277 8.598z" fill="url(#SvgjsLinearGradient2911)"/>
     </g>
     <g id="svga-group-clothes-single" stroke-width="none">
      <path d="m110.14 228.89c-17.864 0-38.7-0.069-63.699-0.213l-22.105-0.12c-13.348-0.072-16.001-0.087-17.631-0.087l-4.573 6e-3c0.032-40.523 20.015-43.334 41.17-46.313 7.271-1.023 14.789-2.082 21.584-4.733 8.525 11.975 21.924 13.591 33.912 13.591 0.667 0 1.341-6e-3 2.016-0.017 12.668-0.285 27.552-4.774 32.317-14.161 0.614 0.234 1.186 0.504 1.738 0.766 0.621 0.293 1.263 0.597 1.974 0.854 4.65 1.684 10.432 2.48 16.552 3.324 20.011 2.76 44.916 6.193 44.578 45.069 3e-3 0.154 4e-3 1.097-0.012 1.392-11.682 0-19.607 0.113-28.782 0.244-12.445 0.178-27.935 0.398-59.027 0.398h-0.012z" fill="#09aac5"/>
      <path d="m197.87 227c-2.027-5.485-0.96-15.439-6.837-24.292-11.653-17.556-33.322-15.948-53.227-21.639-4.204 8.565-12.24 13.539-21.429 16.39l-0.016-0.047c9.016-3.198 16.683-8.066 21.003-16.475-0.501-0.146-1.001-0.292-1.499-0.448l0.956-1.836c24.187 7.439 43.709 2.062 55.037 21.214 3.652 6.16 6.012 16.133 6.012 27.133zm-140.64-44.655c1.267-0.294 2.53-0.607 3.788-0.948l-1.332-1.765c-23.343 6.027-40.887 2.21-51.548 20.235-3.65 6.16-6.011 16.133-6.011 27.133 2.027-5.485 0.96-15.439 6.837-24.292 10.571-15.926 29.385-16.085 47.646-20.225 6.519 8.028 16.042 13.7 26.402 15.333-12.995-3.39-21.077-9.672-25.782-15.471z" fill="#1fbad4"/>
      <path d="m132.08 178.81c-4.996 7.702-18.542 12.955-33.907 12.955-15.182 0-27.706-5.206-33.5-13.926l-0.044-0.065 1.235 1.856c-1.369 0.581-4.817 1.748-4.817 1.748l-1.446-1.86 0.089 0.117c0.271 0.354 0.553 0.736 0.851 1.14 4.359 5.904 11.656 15.785 36.296 15.785 2.162 0 4.443-0.079 6.78-0.235 16.303-1.168 26.873-6.359 32.244-15.839-0.055-0.023-2.509-1.031-3.781-1.676z" fill="#009cb6"/>
      <path d="m133.08 176.72c-5.041 10.081-21.03 13.934-32.27 14.187-14.635 0.228-27.563-1.841-35.89-13.597-26.368 10.344-62.89-3.587-62.89 51.269 9.28 0-4.304-0.062 44.41 0.2 115.38 0.663 115.16-0.43 151.61-0.43 0.027-0.131 0.023-1.356 0.021-1.49 0.44-50.604-41.021-41.186-61.195-48.488-1.371-0.497-2.453-1.15-3.796-1.651zm-68.49 1.179c13.809 20.776 60.199 16.511 68.44-0.561 1.12 0.471 2.34 0.94 3.64 1.4-3.904 8.186-12.275 16.001-33.06 17.49-32.014 2.134-39.41-10.844-43.84-16.65 0.136-0.038 3.456-1.168 4.82-1.679zm-62.42 50.509c2.5-22.877 4.756-39.219 32.69-44.068 9.593-1.77 14.509-1.939 24.83-4.731 7.873 10.792 15.739 18.518 44.7 17.3 21.37-2.377 28.569-9.619 32.461-18.1 26.52 8.347 59.285-0.172 60.88 49.38-50.465-0.657-99.22-1.97-195.56 0.219z" fill="#008197"/>
     </g>
     <g id="svga-group-head">
      <g id="svga-group-ears-left" display="none">
       <path d="m47.001 83.974c-1.376-2.313-5.638-7.997-9.98-6.603-2.749 0.882-3.293 3.765-3.735 6.311-0.588 3.386 0.471 10.083 1.389 12.503 0.881 2.325 3.533 6.816 5.264 8.527 2.13 2.1 4.775 8.793 5.194 9.487 0.66 1.097 1.536 2.745 4.122 2.538 2.853-0.229 4.584-1.742 5.856-1.999 3.142-0.629-4.529-24.743-8.11-30.764z" fill="#f3d4cf" stroke="#c5796d" stroke-width="1.5"/>
       <path d="m44.197 97.997c-0.132-0.548 7e-3 -1.47 0.142-2.362 0.124-0.812 0.24-1.579 0.169-2.121-0.267-2.032-1.773-5.893-2.757-7.985-1.132-2.407-2.963-5.439-5.262-6.221-0.95-0.324-1.575 0.063-1.938 0.456-0.266 0.289-0.325 0.627-0.238 0.667 0.086 0.04 0.285-0.24 0.572-0.504 0.235-0.216 0.579-0.402 1.051-0.363-0.19 1.011-1.167 6.49-0.744 10.225 0.333 2.938 1.593 5.131 1.79 5.46 0.029 0.346 0.077 0.685 0.148 1.014 0.929 4.287 4.971 9.163 6.378 10.758 0.259 0.295 0.531 0.47 0.598 0.398 0.066-0.072-0.094-0.364-0.353-0.66-1.388-1.585-5.391-6.442-6.289-10.579-0.952-4.389 2.318-10.896 3.048-12.272 0.371 0.646 0.687 1.267 0.93 1.785 0.19 0.406 0.402 0.881 0.619 1.395-0.429 0.718-3.434 5.958-2.338 10.153 0.406 1.546 2.235 3.54 3.447 4.086 0.667 0.301 0.919 0.75 1.209 1.271 0.336 0.604 0.718 1.288 1.828 1.784 0.225 0.102 0.429 0.142 0.61 0.142 0.313 0 0.551-0.126 0.725-0.276 0.018 0.266 0.017 0.604 9e-3 0.917-0.012 0.404 0.042 0.737 0.137 0.745 0.094 8e-3 0.196-0.313 0.207-0.717 0.016-0.496 0.013-1.11-0.072-1.403-0.248-0.865-1.008-1.841-1.813-2.875-0.789-1.019-1.607-2.071-1.813-2.918zm-7.247-3.801c-2.177-6.731 0.656-12.54 1.144-13.464 0.85 0.775 1.6 1.811 2.21 2.824-0.444 0.809-3.263 6.113-3.354 10.64zm9.391 9.846c-1.004-0.447-1.339-1.051-1.666-1.633-0.293-0.527-0.598-1.072-1.369-1.42-0.168-0.075-0.352-0.191-0.542-0.323-2.486-5.906 0.272-8.488 0.963-9.017 0.211 0.722 0.369 1.384 0.439 1.915 0.063 0.488-0.052 1.263-0.167 2.012-0.142 0.929-0.286 1.89-0.137 2.512 0.226 0.926 1.069 2.009 1.884 3.057 0.723 0.929 1.466 1.888 1.721 2.67-0.108 0.157-0.45 0.53-1.126 0.227z" fill="#c5796d" stroke-width="none"/>
      </g>
      <g id="svga-group-ears-right" display="none">
       <path d="m152.74 83.974c1.377-2.313 5.639-7.997 9.98-6.603 2.75 0.882 3.293 3.765 3.736 6.311 0.588 3.386-0.471 10.083-1.389 12.503-0.881 2.325-3.533 6.816-5.266 8.527-2.129 2.1-4.775 8.793-5.193 9.487-0.658 1.097-1.535 2.745-4.121 2.538-2.854-0.229-4.584-1.742-5.857-1.999-3.142-0.629 4.53-24.743 8.11-30.764z" fill="#f3d4cf" stroke="#c5796d" stroke-width="1.5"/>
       <path d="m153.73 100.91c-0.805 1.033-1.564 2.009-1.813 2.875-0.086 0.293-0.088 0.907-0.072 1.403 0.012 0.404 0.113 0.725 0.207 0.717s0.148-0.341 0.137-0.745c-8e-3 -0.313-8e-3 -0.651 0.01-0.917 0.174 0.15 0.412 0.276 0.725 0.276 0.182 0 0.385-0.04 0.609-0.142 1.109-0.496 1.492-1.18 1.828-1.784 0.289-0.52 0.543-0.969 1.209-1.271 1.213-0.546 3.041-2.54 3.447-4.086 1.096-4.194-1.908-9.435-2.338-10.153 0.217-0.513 0.43-0.988 0.619-1.395 0.244-0.518 0.559-1.139 0.93-1.785 0.73 1.377 4 7.883 3.049 12.272-0.896 4.137-4.9 8.994-6.289 10.579-0.258 0.296-0.418 0.588-0.352 0.66 0.066 0.071 0.338-0.104 0.598-0.398 1.406-1.596 5.449-6.471 6.379-10.758 0.07-0.329 0.117-0.668 0.146-1.014 0.197-0.329 1.459-2.523 1.791-5.46 0.422-3.735-0.555-9.214-0.744-10.225 0.473-0.039 0.814 0.146 1.051 0.363 0.287 0.264 0.486 0.544 0.572 0.504s0.027-0.378-0.238-0.667c-0.363-0.393-0.988-0.779-1.938-0.456-2.299 0.782-4.131 3.814-5.262 6.221-0.984 2.093-2.49 5.953-2.758 7.985-0.072 0.542 0.045 1.309 0.17 2.121 0.135 0.892 0.273 1.814 0.141 2.362-0.205 0.849-1.023 1.901-1.814 2.918zm5.707-17.358c0.611-1.013 1.361-2.049 2.211-2.824 0.488 0.925 3.32 6.733 1.145 13.464-0.093-4.526-2.911-9.83-3.356-10.64zm-7.164 20.261c0.254-0.782 0.998-1.741 1.721-2.67 0.816-1.048 1.658-2.131 1.885-3.057 0.148-0.622 4e-3 -1.583-0.137-2.512-0.115-0.749-0.23-1.524-0.166-2.012 0.068-0.531 0.227-1.193 0.438-1.915 0.691 0.529 3.449 3.111 0.965 9.017-0.191 0.132-0.375 0.248-0.543 0.323-0.771 0.348-1.074 0.893-1.369 1.42-0.326 0.582-0.662 1.186-1.666 1.633-0.677 0.302-1.019-0.071-1.128-0.227z" fill="#c5796d" stroke-width="none"/>
      </g>
      <g id="svga-group-faceshape-wrap">
       <g id="svga-group-faceshape-single">
        <path d="m158.78 76.762h-5e-3c-0.012 0.053-10.717 44.373-18.919 56.95-6.452 9.895-28.166 25.54-39.84 25.558-11.671 0.02-33.437-15.559-39.918-25.433-8.242-12.552-19.086-56.837-19.098-56.891h-1e-3c-1.298-4.911-1.994-10.066-2.002-15.382-0.053-33.474 27.153-60.645 60.771-60.697 33.621-0.052 60.913 27.033 60.964 60.507 9e-3 5.316-0.669 10.472-1.952 15.388z" fill="#f3d4cf" stroke-width="none"/>
        <path d="m125.77 6.622c19.104 10.248 32.075 30.355 32.039 53.476-9e-3 5.316-0.704 10.471-2.003 15.382h-1e-3c-0.012 0.053-10.856 44.339-19.099 56.891-5.946 9.061-24.555 25.121-36.833 25.121-12.279 0-30.886-16.061-36.833-25.121-8.242-12.552-19.086-56.837-19.098-56.891h-1e-3c-1.298-4.911-1.994-10.066-2.002-15.382-0.037-23.121 12.935-43.228 32.037-53.476-20.695 9.702-35.009 30.658-34.971 54.942 8e-3 5.316 0.704 10.471 2.002 15.382h1e-3c0.012 0.053 10.856 44.339 19.098 56.891 4.416 6.728 15.922 16.095 26.5 21.382-0.529-0.226-1.062-0.466-1.599-0.717 5.408 2.875 10.664 4.763 14.713 4.768 0.049 0 0.103-5e-3 0.152-5e-3s0.103 5e-3 0.152 5e-3c4.049-5e-3 9.305-1.893 14.714-4.768-0.538 0.253-1.071 0.491-1.601 0.718 10.577-5.287 22.085-14.655 26.501-21.383 8.242-12.552 19.087-56.837 19.098-56.891h2e-3c1.298-4.911 1.994-10.066 2.002-15.382 0.039-24.284-14.274-45.24-34.97-54.942z" fill="#ebc3bd" stroke-width="none"/>
        <path d="m158.78 76.762h-5e-3c-0.012 0.053-10.717 44.373-18.919 56.95-6.452 9.895-28.166 25.54-39.84 25.558-11.671 0.02-33.437-15.559-39.918-25.433-8.242-12.552-19.086-56.837-19.098-56.891h-1e-3c-1.298-4.911-1.994-10.066-2.002-15.382-0.053-33.474 27.153-60.645 60.771-60.697 33.621-0.052 60.913 27.033 60.964 60.507 9e-3 5.316-0.669 10.472-1.952 15.388z" fill="none" stroke="#c5796d" stroke-width="1.5"/>
       </g>
      </g>
      <g id="svga-group-mouth-single">
       <path d="m100 141.44c-4.158 0-5.133-3.232-5.133-3.232h10.267c0-1e-3 -1.477 3.232-5.134 3.232z" fill="url(#SvgjsLinearGradient2883)"/>
       <path d="m87.536 132.96c2.756-0.951 6.239-3.625 8.432-3.723 1.133-0.051 2.351 0.87 3.574 1.166 0.851 0.207 3.264-1.156 4.13-1.166 2.272-0.022 6.326 2.771 8.769 3.723 0.135 0.055 0 0 0 0s-5.056 6.021-12.452 6.021c-8.371-1e-3 -12.453-6.021-12.453-6.021s-0.137 0.05 0 0z" fill="#f771a9" stroke="#e85391" stroke-width=".75"/>
       <g stroke-width="none">
        <path d="m112.81 132.9c-0.187-0.076-0.606-0.028-0.753-0.021-0.304 0.016-0.546-0.117-1.214-0.129-0.742-0.012-3.945-0.268-5.003-0.338-2.129-0.143-3.824 0.666-5.848 0.666-2.025 0-3.868-0.883-5.996-0.74-1.057 0.072-4.113 0.395-4.857 0.412-0.663 0.019-0.923 0.133-1.231 0.12-0.143-7e-3 -0.595-0.05-0.771 0.05-0.147 0.086-0.09 0.559 0.027 0.683 0.285 0.298 1.397-0.233 1.959-0.22 0.777 0.017 3.843-0.05 4.917-0.121 2.081-0.142 3.936 0.821 5.952 0.821s3.725-0.889 5.806-0.749c1.071 0.072 4.281 0.064 5.06 0.049 0.563-0.014 1.764 0.449 2.052 0.22 0.135-0.11 0.064-0.636-0.1-0.703z" fill="#c92066"/>
        <path d="m99.989 137.44c-3.37 0-6.645-1.154-9.241-3.306 1.307-0.072 2.652-0.277 3.961-0.219 1.613 0.07 3.144 0.705 4.756 0.813 1.742 0.116 3.358-0.488 5.064-0.695 1.422-0.171 2.931 0.059 4.357 0.111-2.551 1.958-5.642 3.296-8.897 3.296zm4.791-5.757c1.313-0.08 2.661 0.088 3.974 0.141-1.43-0.712-2.953-1.553-4.549-1.807-1.374-0.218-2.71 0.882-4.045 1.104-1.506 0.25-2.69-1.15-4.16-1.15-1.592 0.07-3.198 1.099-4.576 1.805 1.282-0.076 2.6-0.263 3.884-0.141 1.572 0.147 3.094 0.714 4.682 0.714 1.622 0 3.171-0.568 4.79-0.666z" fill="#ff8ebd"/>
        <path d="m99.941 136.49c-2.029 0-4.007-0.701-5.707-2.001 0.38-0.037 0.764-0.066 1.133-0.066 0.117 0 0.234 3e-3 0.351 9e-3 0.609 0.033 1.209 0.208 1.846 0.394 0.618 0.178 1.256 0.363 1.923 0.419 0.132 0.012 0.264 0.016 0.395 0.016 0.819 0 1.596-0.204 2.348-0.399 0.477-0.126 0.928-0.245 1.392-0.313 0.253-0.04 0.527-0.058 0.837-0.058 0.268 0 0.544 0.014 0.818 0.034-1.415 1.051-3.247 1.965-5.336 1.965z" fill="#ffa8cc"/>
       </g>
      </g>
      <g id="svga-group-eyes-left">
       <g id="svga-group-eyesback-left">
        <path d="m61.952 84.523c-0.506-2.285 5.191-3.973 12.711-3.051 7.518 0.923 12.738 5.524 12.052 7.844-0.38 1.286-10.639 3.245-14.253 2.847-3.664-0.405-9.288-2.123-10.51-7.64z" fill="url(#SvgjsRadialGradient2781)"/>
       </g>
       <g id="svga-group-eyesiriswrapper-left" transform="translate(-.75 -.5)">
        <g id="svga-group-eyesiriscontrol-left">
         <g id="svga-group-eyesiris-left">
          <path d="m83.5 87c0 4.694-3.806 8.5-8.499 8.5-4.694 0-8.501-3.806-8.501-8.5s3.807-8.5 8.501-8.5c4.693-1e-3 8.499 3.805 8.499 8.5z" fill="#4e60a3" stroke-width="none"/>
          <path d="m74.048 78.595c-0.033 4e-3 -0.066 8e-3 -0.101 0.012 0.041 0.191 0.081 0.384 0.12 0.575-7e-3 -0.195-0.012-0.393-0.019-0.587zm0.018 0.585c0.099 2.793 0.262 5.282 0.732 6.183 0.249-0.986-0.173-3.443-0.732-6.183zm0.734 6.185c-0.061 0.236-0.153 0.397-0.294 0.452-0.142 0.053-0.319-8e-3 -0.521-0.146 0.058 0.236 0.052 0.422-0.051 0.537-0.102 0.114-0.285 0.142-0.527 0.11 0.16 0.184 0.242 0.353 0.206 0.5-0.039 0.148-0.189 0.258-0.415 0.343 0.225 0.088 0.376 0.199 0.411 0.347 0.036 0.148-0.046 0.315-0.205 0.498 0.241-0.029 0.426 1e-3 0.525 0.115 0.101 0.114 0.106 0.301 0.05 0.537 0.199-0.137 0.376-0.197 0.518-0.142 0.143 0.053 0.234 0.216 0.291 0.454 0.114-0.215 0.243-0.353 0.396-0.368 0.148-0.02 0.307 0.084 0.466 0.267 2e-3 -0.244 0.053-0.423 0.181-0.51 0.124-0.086 0.311-0.069 0.537 0.018-0.11-0.216-0.148-0.398-0.078-0.534 0.071-0.135 0.245-0.207 0.487-0.235-0.199-0.14-0.321-0.283-0.318-0.436-1e-3 -0.153 0.119-0.296 0.321-0.434-0.241-0.03-0.412-0.103-0.484-0.237-0.07-0.135-0.031-0.319 0.081-0.535-0.229 0.085-0.413 0.102-0.538 0.016-0.126-0.086-0.177-0.267-0.178-0.51-0.158 0.182-0.316 0.282-0.468 0.262s-0.282-0.154-0.393-0.369zm0.86 0.106c0.679-0.758 1.446-3.13 2.224-5.813-1.21 2.516-2.222 4.795-2.224 5.813zm2.223-5.814c0.085-0.172 0.172-0.348 0.253-0.524-0.03-0.011-0.06-0.024-0.09-0.037-0.054 0.188-0.108 0.376-0.163 0.561zm-1.506 6.308c0.953-0.357 2.736-2.101 4.671-4.115-2.24 1.667-4.197 3.215-4.671 4.115zm4.671-4.114c0.142-0.106 0.287-0.213 0.433-0.318-0.021-0.025-0.043-0.047-0.06-0.07-0.124 0.127-0.247 0.259-0.373 0.388zm-4.271 4.887c1.01 0.125 3.399-0.591 6.052-1.475-2.761 0.435-5.212 0.896-6.052 1.475zm6.052-1.475c0.156-0.022 0.318-0.048 0.478-0.073-7e-3 -0.026-0.013-0.054-0.02-0.081-0.152 0.051-0.308 0.103-0.458 0.154zm-6.054 2.343c0.836 0.583 3.284 1.057 6.038 1.505-2.642-0.897-5.027-1.627-6.038-1.505zm6.038 1.505c0.135 0.047 0.271 0.095 0.404 0.138 7e-3 -0.024 0.013-0.047 0.018-0.071-0.137-0.02-0.281-0.043-0.422-0.067zm-6.446-0.736c0.471 0.902 2.42 2.462 4.649 4.142-1.924-2.025-3.696-3.78-4.649-4.142zm4.651 4.139c0.083 0.087 0.17 0.179 0.253 0.268 0.014-0.017 0.027-0.031 0.043-0.046-0.099-0.074-0.201-0.149-0.296-0.222zm-5.366-3.647c-4e-3 1.019 0.995 3.302 2.191 5.827-0.764-2.688-1.516-5.066-2.191-5.827zm2.192 5.827c0.03 0.106 0.062 0.215 0.09 0.324 0.021-8e-3 0.036-0.015 0.055-0.02-0.048-0.102-0.097-0.205-0.145-0.304zm-3.056-5.726c-0.476 0.902-0.653 3.386-0.768 6.178 0.574-2.733 1.011-5.188 0.768-6.178zm-0.767 6.178c-0.023 0.106-0.044 0.214-0.066 0.323 0.02 4e-3 0.035 5e-3 0.055 7e-3 3e-3 -0.108 8e-3 -0.222 0.011-0.33zm-0.042-6.489c-0.844 0.576-2.154 2.697-3.553 5.114 1.778-2.154 3.307-4.126 3.553-5.114zm-3.552 5.114c-0.074 0.09-0.152 0.185-0.229 0.274 0.018 0.012 0.034 0.02 0.053 0.034 0.058-0.103 0.118-0.206 0.176-0.308zm2.978-5.765c-1.015 0.119-3.16 1.385-5.522 2.875 2.577-1.08 4.843-2.113 5.522-2.875zm-5.522 2.878c-0.122 0.051-0.247 0.102-0.372 0.156 9e-3 0.019 0.021 0.038 0.033 0.057 0.114-0.07 0.227-0.143 0.339-0.213zm5.315-3.723c-0.951-0.365-3.441-0.238-6.227-0.016 2.784 0.238 5.273 0.376 6.227 0.016zm-6.226-0.016c-0.151-0.014-0.308-0.028-0.457-0.041-1e-3 0.027-3e-3 0.053-1e-3 0.08 0.155-0.015 0.308-0.028 0.458-0.039zm6.435-0.827c-0.67-0.763-2.932-1.809-5.499-2.905 2.351 1.502 4.489 2.783 5.499 2.905zm-5.499-2.905c-0.147-0.095-0.297-0.189-0.446-0.285-0.013 0.026-0.026 0.053-0.041 0.078 0.164 0.07 0.329 0.138 0.487 0.207zm6.077 2.257c-0.239-0.989-1.758-2.967-3.521-5.132 1.385 2.425 2.683 4.552 3.521 5.132zm-3.52-5.132c-0.095-0.163-0.188-0.329-0.281-0.494-0.026 0.018-0.055 0.037-0.079 0.054 0.119 0.147 0.243 0.295 0.36 0.44z" fill="url(#SvgjsRadialGradient2796)"/>
          <path d="m76.255 78.622c-0.034-4e-3 -0.066-0.01-0.1-0.014-0.011 0.196-0.022 0.393-0.034 0.586 0.043-0.19 0.09-0.382 0.134-0.572zm-0.135 0.571c-0.627 2.724-1.114 5.17-0.892 6.162 0.496-0.888 0.722-3.371 0.892-6.162zm-0.891 6.163c-0.119 0.212-0.25 0.344-0.401 0.36-0.15 0.014-0.306-0.091-0.464-0.276-6e-3 0.243-0.06 0.421-0.188 0.505-0.128 0.083-0.313 0.063-0.539-0.03 0.107 0.219 0.143 0.403 0.069 0.536-0.075 0.133-0.249 0.201-0.489 0.224 0.194 0.144 0.312 0.289 0.308 0.441-3e-3 0.152-0.126 0.292-0.327 0.428 0.24 0.034 0.41 0.111 0.478 0.247 0.067 0.136 0.025 0.318-0.091 0.532 0.229-0.081 0.414-0.093 0.537-3e-3 0.123 0.088 0.17 0.27 0.164 0.514 0.166-0.177 0.325-0.278 0.478-0.253 0.148 0.02 0.274 0.16 0.382 0.379 0.064-0.236 0.16-0.396 0.306-0.447 0.143-0.051 0.318 0.014 0.515 0.157-0.051-0.237-0.041-0.423 0.063-0.536s0.29-0.136 0.532-0.102c-0.157-0.187-0.238-0.356-0.195-0.504 0.039-0.148 0.192-0.255 0.423-0.336-0.226-0.091-0.372-0.206-0.407-0.354-0.032-0.149 0.053-0.316 0.218-0.495-0.243 0.023-0.427-9e-3 -0.524-0.125-0.099-0.115-0.102-0.303-0.039-0.538-0.201 0.134-0.38 0.19-0.521 0.132-0.147-0.056-0.236-0.219-0.288-0.456zm0.804 0.327c0.852-0.558 2.206-2.65 3.652-5.04-1.82 2.117-3.387 4.056-3.652 5.04zm3.652-5.042c0.126-0.145 0.255-0.292 0.38-0.44-0.027-0.019-0.052-0.04-0.078-0.06-0.101 0.169-0.202 0.336-0.302 0.5zm-3.088 5.704c1.013-0.099 3.187-1.322 5.577-2.767-2.596 1.031-4.887 2.02-5.577 2.767zm5.576-2.766c0.165-0.065 0.333-0.131 0.501-0.195-0.014-0.029-0.029-0.056-0.04-0.083-0.153 0.091-0.306 0.186-0.461 0.278zm-5.39 3.615c0.943 0.382 3.437 0.309 6.227 0.142-2.779-0.294-5.265-0.483-6.227-0.142zm6.227 0.142c0.158 0.019 0.32 0.036 0.48 0.053 1e-3 -0.027 2e-3 -0.055 3e-3 -0.083-0.161 0.01-0.325 0.02-0.483 0.03zm-6.452 0.697c0.655 0.78 2.898 1.871 5.442 3.017-2.321-1.551-4.435-2.873-5.442-3.017zm5.442 3.016c0.117 0.08 0.236 0.161 0.354 0.238 0.013-0.021 0.024-0.042 0.035-0.063-0.127-0.056-0.26-0.115-0.389-0.175zm-6.036-2.379c0.221 0.993 1.699 3.004 3.419 5.205-1.335-2.456-2.592-4.609-3.419-5.205zm3.42 5.202c0.059 0.106 0.117 0.217 0.176 0.325 0.018-0.013 0.034-0.023 0.053-0.034-0.077-0.098-0.155-0.196-0.229-0.291zm-4.238-4.912c-0.267 0.982 0.107 3.447 0.608 6.195-0.043-2.794-0.153-5.285-0.608-6.195zm0.608 6.195c2e-3 0.11 4e-3 0.224 4e-3 0.337 0.021-3e-3 0.038-5e-3 0.058-5e-3 -0.02-0.111-0.041-0.223-0.062-0.332zm-1.469-6.321c-0.693 0.748-1.508 3.102-2.341 5.769 1.261-2.493 2.321-4.75 2.341-5.769zm-2.341 5.769c-0.05 0.096-0.099 0.195-0.147 0.295 0.017 8e-3 0.032 0.013 0.051 0.021 0.031-0.104 0.065-0.212 0.096-0.316zm1.64-6.279c-0.964 0.338-2.779 2.048-4.756 4.021 2.276-1.621 4.263-3.13 4.756-4.021zm-4.756 4.021c-0.095 0.067-0.194 0.138-0.29 0.206 0.014 0.016 0.027 0.028 0.041 0.045 0.082-0.085 0.167-0.168 0.249-0.251zm4.369-4.799c-1.01-0.148-3.409 0.521-6.078 1.349 2.77-0.377 5.226-0.789 6.078-1.349zm-6.078 1.351c-0.131 0.018-0.265 0.034-0.4 0.054 5e-3 0.021 0.011 0.042 0.018 0.063 0.128-0.037 0.256-0.078 0.382-0.117zm6.098-2.22c-0.824-0.599-3.263-1.121-6.01-1.627 2.626 0.95 4.995 1.727 6.01 1.627zm-6.01-1.627c-0.143-0.052-0.29-0.106-0.432-0.158-8e-3 0.026-0.016 0.051-0.021 0.077 0.153 0.026 0.306 0.053 0.453 0.081zm6.43 0.867c-0.45-0.911-2.363-2.506-4.561-4.23 1.883 2.06 3.617 3.851 4.561 4.23zm-4.561-4.229c-0.118-0.13-0.236-0.26-0.355-0.391-0.021 0.022-0.041 0.044-0.061 0.065 0.14 0.109 0.281 0.218 0.416 0.326zm5.287 3.752c0.024-1.017-0.93-3.321-2.073-5.868 0.709 2.701 1.414 5.091 2.073 5.868zm-2.073-5.868c-0.049-0.182-0.096-0.366-0.144-0.55-0.029 0.01-0.062 0.021-0.09 0.032 0.078 0.173 0.158 0.347 0.234 0.518z" fill="url(#SvgjsRadialGradient2800)"/>
          <path d="m78.334 87c0 1.842-1.492 3.333-3.333 3.333s-3.335-1.492-3.335-3.333 1.494-3.334 3.335-3.334c1.843 0 3.333 1.493 3.333 3.334z" fill="#4e60a3" stroke-width="none"/>
          <path d="m78.334 87c0 1.842-1.492 3.333-3.333 3.333s-3.335-1.492-3.335-3.333 1.494-3.334 3.335-3.334c1.843 0 3.333 1.493 3.333 3.334z" opacity=".9" stroke-width="none"/>
          <path d="m70.35 90.893c0.636-0.427 1.5-0.255 1.927 0.38 0.427 0.637 0.258 1.5-0.379 1.927-0.638 0.429-1.5 0.258-1.927-0.378-0.427-0.637-0.258-1.502 0.379-1.929z" fill="url(#SvgjsLinearGradient2806)" opacity=".5"/>
          <path d="m77.635 86.536c-0.356 0.53-1.373 0.468-2.275-0.136-0.903-0.605-1.346-1.526-0.991-2.055l1e-3 -1e-3c0.354-0.53 1.372-0.469 2.274 0.137 0.903 0.604 1.346 1.524 0.992 2.054l-1e-3 1e-3z" fill="url(#SvgjsLinearGradient2810)" opacity=".5"/>
          <path d="m81.682 85.121c-0.806 1.237-2.884 1.31-4.641 0.166-1.756-1.145-2.527-3.075-1.722-4.311 0.806-1.235 2.884-1.31 4.641-0.166 1.755 1.146 2.525 3.077 1.722 4.311z" fill="url(#SvgjsLinearGradient2814)" opacity=".75"/>
         </g>
        </g>
       </g>
       <g id="svga-group-eyesfront-left">
        <path d="m55.5 88c0 13.807 8.06 24.999 18 24.999s18-11.192 18-24.999c0-13.808-8.06-25-18-25s-18 11.192-18 25zm6.452-3.477c-0.506-2.285 5.191-3.973 12.711-3.051 7.518 0.923 12.738 5.524 12.052 7.844-0.38 1.286-10.639 3.245-14.253 2.847-3.664-0.405-9.288-2.123-10.51-7.64z" fill="#f3d4cf" stroke-width="none"/>
        <path d="m72.462 92.163c3.614 0.398 13.873-1.561 14.253-2.847 0.687-2.32-4.534-6.921-12.052-7.844-6.46-0.792-11.563 0.345-12.556 2.128 0.898-6.4 7.7-11.397 15.987-11.434 8.911-0.037 16.148 5.676 16.172 12.765 0.021 7.088-7.185 12.862-16.095 12.902-8.913 0.037-16.149-5.676-16.173-12.764 0-0.105 0.016-0.208 0.019-0.313 1.331 5.327 6.835 7.008 10.445 7.407z" fill="url(#SvgjsRadialGradient2850)"/>
        <path d="m61.952 84.523c-0.506-2.285 5.191-3.973 12.711-3.051 7.518 0.923 12.738 5.524 12.052 7.844-0.38 1.286-10.639 3.245-14.253 2.847-3.664-0.405-9.288-2.123-10.51-7.64z" fill="url(#SvgjsRadialGradient2855)"/>
        <path d="m62.349 79.417c4.208-1.978 9.35-2.16 13.838-1.005 2.404 0.561 4.965 1.285 7.063 2.638 1.945 1.135 3.525 2.5 5.002 4.19-1.342-1.701-2.773-3.118-4.623-4.27-2.276-1.416-4.769-2.294-7.364-2.916-4.587-1.126-9.723-0.87-13.916 1.363z" fill="#c5796d" stroke-width="none"/>
        <path d="m57.318 80.972s2.328 0.881 3.595 0.62c-0.39-0.459-1.096-1.604-1.096-1.604s1.853 0.551 3.151 0.032c0.88-0.352 4.065-1 5.456-1.066 1.687-0.082 5.073 0.125 6.735 0.424 3.374 0.608 8.985 2.63 11.678 7.184 0.255 0.572 1.407 0.921 1.407 0.921s-1.02-0.215-1.149 0.042c-0.282 0.561 1.298 2.016 1.496 2.197-0.161-0.145-1.289-1.135-1.722-0.967-0.061 0.022-0.137 0.388-0.155 0.482 0.3-2.426-4.838-6.746-12.052-7.604-7.52-0.894-13.217 0.743-12.711 2.958 1.222 5.348 6.846 7.013 10.51 7.405 2.526 0.271 8.298-0.577 11.675-1.537l1.011-0.317c-1.999 1.009-7.524 2.195-9.767 2.403-0.744 0.07-2.24 0.104-2.986 0.085-5.949-0.158-10.16-3.179-11.729-7.26-0.125-0.328-0.494-0.619-0.838-0.696-1.604-0.361-5.096-1.811-5.096-1.811 2.32 0.361 3.483 0.674 5.305 0.059-1.779-0.666-2.718-1.95-2.718-1.95z" stroke-width="none"/>
       </g>
      </g>
      <g id="svga-group-eyes-right">
       <g id="svga-group-eyesback-right">
        <path d="m138.05 84.523c0.506-2.285-5.191-3.973-12.711-3.051-7.518 0.923-12.738 5.524-12.052 7.844 0.38 1.286 10.639 3.245 14.253 2.847 3.664-0.405 9.288-2.123 10.51-7.64z" fill="url(#SvgjsRadialGradient2788)"/>
       </g>
       <g id="svga-group-eyesiriswrapper-right" transform="translate(.75 -.5)">
        <g id="svga-group-eyesiriscontrol-right">
         <g id="svga-group-eyesiris-right">
          <path d="m133.5 87c0 4.694-3.806 8.5-8.499 8.5-4.694 0-8.501-3.806-8.501-8.5s3.807-8.5 8.501-8.5c4.693-1e-3 8.499 3.805 8.499 8.5z" fill="#4e60a3" stroke-width="none"/>
          <path d="m124.05 78.595c-0.033 4e-3 -0.066 8e-3 -0.101 0.012 0.041 0.191 0.081 0.384 0.12 0.575-7e-3 -0.195-0.012-0.393-0.019-0.587zm0.018 0.585c0.099 2.793 0.262 5.282 0.732 6.183 0.249-0.986-0.173-3.443-0.732-6.183zm0.734 6.185c-0.061 0.236-0.153 0.397-0.294 0.452-0.142 0.053-0.319-8e-3 -0.521-0.146 0.058 0.236 0.052 0.422-0.051 0.537-0.102 0.114-0.285 0.142-0.527 0.11 0.16 0.184 0.242 0.353 0.206 0.5-0.039 0.148-0.189 0.258-0.415 0.343 0.225 0.088 0.376 0.199 0.411 0.347 0.036 0.148-0.046 0.315-0.205 0.498 0.241-0.029 0.426 1e-3 0.525 0.115 0.101 0.114 0.106 0.301 0.05 0.537 0.199-0.137 0.376-0.197 0.518-0.142 0.143 0.053 0.234 0.216 0.291 0.454 0.114-0.215 0.243-0.353 0.396-0.368 0.148-0.02 0.307 0.084 0.466 0.267 2e-3 -0.244 0.053-0.423 0.181-0.51 0.124-0.086 0.311-0.069 0.537 0.018-0.11-0.216-0.148-0.398-0.078-0.534 0.071-0.135 0.245-0.207 0.487-0.235-0.199-0.14-0.321-0.283-0.318-0.436-1e-3 -0.153 0.119-0.296 0.321-0.434-0.241-0.03-0.412-0.103-0.484-0.237-0.07-0.135-0.031-0.319 0.081-0.535-0.229 0.085-0.413 0.102-0.538 0.016-0.126-0.086-0.177-0.267-0.178-0.51-0.158 0.182-0.316 0.282-0.468 0.262s-0.282-0.154-0.393-0.369zm0.86 0.106c0.679-0.758 1.446-3.13 2.224-5.813-1.21 2.516-2.222 4.795-2.224 5.813zm2.223-5.814c0.085-0.172 0.172-0.348 0.253-0.524-0.03-0.011-0.06-0.024-0.09-0.037-0.054 0.188-0.108 0.376-0.163 0.561zm-1.506 6.308c0.953-0.357 2.736-2.101 4.671-4.115-2.24 1.667-4.197 3.215-4.671 4.115zm4.671-4.114c0.142-0.106 0.287-0.213 0.433-0.318-0.021-0.025-0.043-0.047-0.06-0.07-0.124 0.127-0.247 0.259-0.373 0.388zm-4.271 4.887c1.01 0.125 3.399-0.591 6.052-1.475-2.761 0.435-5.212 0.896-6.052 1.475zm6.052-1.475c0.156-0.022 0.318-0.048 0.478-0.073-7e-3 -0.026-0.013-0.054-0.02-0.081-0.152 0.051-0.308 0.103-0.458 0.154zm-6.054 2.343c0.836 0.583 3.284 1.057 6.038 1.505-2.642-0.897-5.027-1.627-6.038-1.505zm6.038 1.505c0.135 0.047 0.271 0.095 0.404 0.138 7e-3 -0.024 0.013-0.047 0.018-0.071-0.137-0.02-0.281-0.043-0.422-0.067zm-6.446-0.736c0.471 0.902 2.42 2.462 4.649 4.142-1.924-2.025-3.696-3.78-4.649-4.142zm4.651 4.139c0.083 0.087 0.17 0.179 0.253 0.268 0.014-0.017 0.027-0.031 0.043-0.046-0.099-0.074-0.201-0.149-0.296-0.222zm-5.366-3.647c-4e-3 1.019 0.995 3.302 2.191 5.827-0.764-2.688-1.516-5.066-2.191-5.827zm2.192 5.827c0.03 0.106 0.062 0.215 0.09 0.324 0.021-8e-3 0.036-0.015 0.055-0.02-0.048-0.102-0.097-0.205-0.145-0.304zm-3.056-5.726c-0.476 0.902-0.653 3.386-0.768 6.178 0.574-2.733 1.011-5.188 0.768-6.178zm-0.767 6.178c-0.023 0.106-0.044 0.214-0.066 0.323 0.02 4e-3 0.035 5e-3 0.055 7e-3 3e-3 -0.108 8e-3 -0.222 0.011-0.33zm-0.042-6.489c-0.844 0.576-2.154 2.697-3.553 5.114 1.778-2.154 3.307-4.126 3.553-5.114zm-3.552 5.114c-0.074 0.09-0.152 0.185-0.229 0.274 0.018 0.012 0.034 0.02 0.053 0.034 0.058-0.103 0.118-0.206 0.176-0.308zm2.978-5.765c-1.015 0.119-3.16 1.385-5.522 2.875 2.577-1.08 4.843-2.113 5.522-2.875zm-5.522 2.878c-0.122 0.051-0.247 0.102-0.372 0.156 9e-3 0.019 0.021 0.038 0.033 0.057 0.114-0.07 0.227-0.143 0.339-0.213zm5.315-3.723c-0.951-0.365-3.441-0.238-6.227-0.016 2.784 0.238 5.273 0.376 6.227 0.016zm-6.226-0.016c-0.151-0.014-0.308-0.028-0.457-0.041-1e-3 0.027-3e-3 0.053-1e-3 0.08 0.155-0.015 0.308-0.028 0.458-0.039zm6.435-0.827c-0.67-0.763-2.932-1.809-5.499-2.905 2.351 1.502 4.489 2.783 5.499 2.905zm-5.499-2.905c-0.147-0.095-0.297-0.189-0.446-0.285-0.013 0.026-0.026 0.053-0.041 0.078 0.164 0.07 0.329 0.138 0.487 0.207zm6.077 2.257c-0.239-0.989-1.758-2.967-3.521-5.132 1.385 2.425 2.683 4.552 3.521 5.132zm-3.52-5.132c-0.095-0.163-0.188-0.329-0.281-0.494-0.026 0.018-0.055 0.037-0.079 0.054 0.119 0.147 0.243 0.295 0.36 0.44z" fill="url(#SvgjsRadialGradient2819)"/>
          <path d="m126.26 78.622c-0.034-4e-3 -0.066-0.01-0.1-0.014-0.011 0.196-0.022 0.393-0.034 0.586 0.043-0.19 0.09-0.382 0.134-0.572zm-0.135 0.571c-0.627 2.724-1.114 5.17-0.892 6.162 0.496-0.888 0.722-3.371 0.892-6.162zm-0.891 6.163c-0.119 0.212-0.25 0.344-0.401 0.36-0.15 0.014-0.306-0.091-0.464-0.276-6e-3 0.243-0.06 0.421-0.188 0.505-0.128 0.083-0.313 0.063-0.539-0.03 0.107 0.219 0.143 0.403 0.069 0.536-0.075 0.133-0.249 0.201-0.489 0.224 0.194 0.144 0.312 0.289 0.308 0.441-3e-3 0.152-0.126 0.292-0.327 0.428 0.24 0.034 0.41 0.111 0.478 0.247 0.067 0.136 0.025 0.318-0.091 0.532 0.229-0.081 0.414-0.093 0.537-3e-3 0.123 0.088 0.17 0.27 0.164 0.514 0.166-0.177 0.325-0.278 0.478-0.253 0.148 0.02 0.274 0.16 0.382 0.379 0.064-0.236 0.16-0.396 0.306-0.447 0.143-0.051 0.318 0.014 0.515 0.157-0.051-0.237-0.041-0.423 0.063-0.536s0.29-0.136 0.532-0.102c-0.157-0.187-0.238-0.356-0.195-0.504 0.039-0.148 0.192-0.255 0.423-0.336-0.226-0.091-0.372-0.206-0.407-0.354-0.032-0.149 0.053-0.316 0.218-0.495-0.243 0.023-0.427-9e-3 -0.524-0.125-0.099-0.115-0.102-0.303-0.039-0.538-0.201 0.134-0.38 0.19-0.521 0.132-0.147-0.056-0.236-0.219-0.288-0.456zm0.804 0.327c0.852-0.558 2.206-2.65 3.652-5.04-1.82 2.117-3.387 4.056-3.652 5.04zm3.652-5.042c0.126-0.145 0.255-0.292 0.38-0.44-0.027-0.019-0.052-0.04-0.078-0.06-0.101 0.169-0.202 0.336-0.302 0.5zm-3.088 5.704c1.013-0.099 3.187-1.322 5.577-2.767-2.596 1.031-4.887 2.02-5.577 2.767zm5.576-2.766c0.165-0.065 0.333-0.131 0.501-0.195-0.014-0.029-0.029-0.056-0.04-0.083-0.153 0.091-0.306 0.186-0.461 0.278zm-5.39 3.615c0.943 0.382 3.437 0.309 6.227 0.142-2.779-0.294-5.265-0.483-6.227-0.142zm6.227 0.142c0.158 0.019 0.32 0.036 0.48 0.053 1e-3 -0.027 2e-3 -0.055 3e-3 -0.083-0.161 0.01-0.325 0.02-0.483 0.03zm-6.452 0.697c0.655 0.78 2.898 1.871 5.442 3.017-2.321-1.551-4.435-2.873-5.442-3.017zm5.442 3.016c0.117 0.08 0.236 0.161 0.354 0.238 0.013-0.021 0.024-0.042 0.035-0.063-0.127-0.056-0.26-0.115-0.389-0.175zm-6.036-2.379c0.221 0.993 1.699 3.004 3.419 5.205-1.335-2.456-2.592-4.609-3.419-5.205zm3.42 5.202c0.059 0.106 0.117 0.217 0.176 0.325 0.018-0.013 0.034-0.023 0.053-0.034-0.077-0.098-0.155-0.196-0.229-0.291zm-4.238-4.912c-0.267 0.982 0.107 3.447 0.608 6.195-0.043-2.794-0.153-5.285-0.608-6.195zm0.608 6.195c2e-3 0.11 4e-3 0.224 4e-3 0.337 0.021-3e-3 0.038-5e-3 0.058-5e-3 -0.02-0.111-0.041-0.223-0.062-0.332zm-1.469-6.321c-0.693 0.748-1.508 3.102-2.341 5.769 1.261-2.493 2.321-4.75 2.341-5.769zm-2.341 5.769c-0.05 0.096-0.099 0.195-0.147 0.295 0.017 8e-3 0.032 0.013 0.051 0.021 0.031-0.104 0.065-0.212 0.096-0.316zm1.64-6.279c-0.964 0.338-2.779 2.048-4.756 4.021 2.276-1.621 4.263-3.13 4.756-4.021zm-4.756 4.021c-0.095 0.067-0.194 0.138-0.29 0.206 0.014 0.016 0.027 0.028 0.041 0.045 0.082-0.085 0.167-0.168 0.249-0.251zm4.369-4.799c-1.01-0.148-3.409 0.521-6.078 1.349 2.77-0.377 5.226-0.789 6.078-1.349zm-6.078 1.351c-0.131 0.018-0.265 0.034-0.4 0.054 5e-3 0.021 0.011 0.042 0.018 0.063 0.128-0.037 0.256-0.078 0.382-0.117zm6.098-2.22c-0.824-0.599-3.263-1.121-6.01-1.627 2.626 0.95 4.995 1.727 6.01 1.627zm-6.01-1.627c-0.143-0.052-0.29-0.106-0.432-0.158-8e-3 0.026-0.016 0.051-0.021 0.077 0.153 0.026 0.306 0.053 0.453 0.081zm6.43 0.867c-0.45-0.911-2.363-2.506-4.561-4.23 1.883 2.06 3.617 3.851 4.561 4.23zm-4.561-4.229c-0.118-0.13-0.236-0.26-0.355-0.391-0.021 0.022-0.041 0.044-0.061 0.065 0.14 0.109 0.281 0.218 0.416 0.326zm5.287 3.752c0.024-1.017-0.93-3.321-2.073-5.868 0.709 2.701 1.414 5.091 2.073 5.868zm-2.073-5.868c-0.049-0.182-0.096-0.366-0.144-0.55-0.029 0.01-0.062 0.021-0.09 0.032 0.078 0.173 0.158 0.347 0.234 0.518z" fill="url(#SvgjsRadialGradient2823)"/>
          <path d="m128.33 87c0 1.842-1.492 3.333-3.333 3.333s-3.335-1.492-3.335-3.333 1.494-3.334 3.335-3.334c1.843 0 3.333 1.493 3.333 3.334z" fill="#4e60a3" stroke-width="none"/>
          <path d="m128.33 87c0 1.842-1.492 3.333-3.333 3.333s-3.335-1.492-3.335-3.333 1.494-3.334 3.335-3.334c1.843 0 3.333 1.493 3.333 3.334z" opacity=".9" stroke-width="none"/>
          <path d="m120.35 90.893c0.636-0.427 1.5-0.255 1.927 0.38 0.427 0.637 0.258 1.5-0.379 1.927-0.638 0.429-1.5 0.258-1.927-0.378-0.427-0.637-0.258-1.502 0.379-1.929z" fill="url(#SvgjsLinearGradient2829)" opacity=".5"/>
          <path d="m127.64 86.536c-0.356 0.53-1.373 0.468-2.275-0.136-0.903-0.605-1.346-1.526-0.991-2.055l1e-3 -1e-3c0.354-0.53 1.372-0.469 2.274 0.137 0.903 0.604 1.346 1.524 0.992 2.054l-1e-3 1e-3z" fill="url(#SvgjsLinearGradient2833)" opacity=".5"/>
          <path d="m131.68 85.121c-0.806 1.237-2.884 1.31-4.641 0.166-1.756-1.145-2.527-3.075-1.722-4.311 0.806-1.235 2.884-1.31 4.641-0.166 1.755 1.146 2.525 3.077 1.722 4.311z" fill="url(#SvgjsLinearGradient2837)" opacity=".75"/>
         </g>
        </g>
       </g>
       <g id="svga-group-eyesfront-right">
        <path d="m126.5 63c-9.94 0-18 11.192-18 25 0 13.807 8.06 24.999 18 24.999s18-11.192 18-24.999c0-13.808-8.06-25-18-25zm1.038 29.163c-3.614 0.398-13.873-1.561-14.253-2.847-0.687-2.32 4.534-6.921 12.052-7.844 7.52-0.922 13.217 0.767 12.711 3.051-1.222 5.517-6.846 7.235-10.51 7.64z" fill="#f3d4cf" stroke-width="none"/>
        <path d="m127.54 92.163c-3.614 0.398-13.873-1.561-14.253-2.847-0.687-2.32 4.534-6.921 12.052-7.844 6.46-0.792 11.563 0.345 12.556 2.128-0.898-6.4-7.7-11.397-15.987-11.434-8.911-0.037-16.148 5.676-16.172 12.765-0.021 7.088 7.185 12.862 16.095 12.902 8.913 0.037 16.149-5.676 16.173-12.764 0-0.105-0.016-0.208-0.019-0.313-1.331 5.327-6.835 7.008-10.445 7.407z" fill="url(#SvgjsRadialGradient2870)"/>
        <path d="m138.05 84.523c0.506-2.285-5.191-3.973-12.711-3.051-7.518 0.923-12.738 5.524-12.052 7.844 0.38 1.286 10.639 3.245 14.253 2.847 3.664-0.405 9.288-2.123 10.51-7.64z" fill="url(#SvgjsRadialGradient2875)"/>
        <path d="m137.65 79.417c-4.208-1.978-9.35-2.16-13.838-1.005-2.404 0.561-4.965 1.285-7.063 2.638-1.945 1.135-3.525 2.5-5.002 4.19 1.342-1.701 2.773-3.118 4.623-4.27 2.276-1.416 4.769-2.294 7.364-2.916 4.587-1.126 9.723-0.87 13.916 1.363z" fill="#c5796d" stroke-width="none"/>
        <path d="m142.68 80.972s-2.328 0.881-3.595 0.62c0.39-0.459 1.096-1.604 1.096-1.604s-1.853 0.551-3.151 0.032c-0.88-0.352-4.065-1-5.456-1.066-1.687-0.082-5.073 0.125-6.735 0.424-3.374 0.608-8.985 2.63-11.678 7.184-0.255 0.572-1.407 0.921-1.407 0.921s1.02-0.215 1.149 0.042c0.282 0.561-1.298 2.016-1.496 2.197 0.161-0.145 1.289-1.135 1.722-0.967 0.061 0.022 0.137 0.388 0.155 0.482-0.3-2.426 4.838-6.746 12.052-7.604 7.52-0.894 13.217 0.743 12.711 2.958-1.222 5.348-6.846 7.013-10.51 7.405-2.526 0.271-8.298-0.577-11.675-1.537l-1.011-0.317c1.999 1.009 7.524 2.195 9.767 2.403 0.744 0.07 2.24 0.104 2.986 0.085 5.949-0.158 10.16-3.179 11.729-7.26 0.125-0.328 0.494-0.619 0.838-0.696 1.604-0.361 5.096-1.811 5.096-1.811-2.32 0.361-3.483 0.674-5.305 0.059 1.779-0.666 2.718-1.95 2.718-1.95z" stroke-width="none"/>
       </g>
      </g>
      <g id="svga-group-facehighlight-single">
       <path d="m140.2 113.01c0.035 22.275-17.995 40.365-40.273 40.396-22.274 0.036-40.361-17.993-40.396-40.272-0.034-22.274 17.995-40.361 40.273-40.396 22.275-0.034 40.363 17.995 40.396 40.272z" fill="url(#SvgjsRadialGradient2754)"/>
       <path d="m135 55.999c0 19.329-15.671 35-35 35s-35-15.671-35-35 15.671-35 35-35 35 15.671 35 35z" fill="url(#SvgjsRadialGradient2758)"/>
      </g>
      <g id="svga-group-eyebrows-left">
       <path d="m74.799 69.068c-4.425-0.475-21.252 3.714-21.252 3.714s16.789-6.74 23.757-5.667c5.188 0.798 14.397 5.077 12.706 7.339-1.361 1.821-5.602-4.354-15.211-5.386z" fill="#2a232b" stroke-width="none"/>
      </g>
      <g id="svga-group-eyebrows-right">
       <path d="m109.73 74.187c-1.713-2.292 7.592-6.31 13.546-6.804 7.117-0.59 22.914 4.085 22.914 4.085s-15.9-2.628-20.377-2.106c-9.816 1.144-14.704 6.669-16.083 4.825z" fill="#2a232b" stroke-width="none"/>
      </g>
      <g id="svga-group-nose-single" stroke-width="none">
       <path d="m92.281 116.24c-0.745 2.063 5.028 4.289 7.218 4.426 2.374 0.147 9.024-2.899 7.896-4.991-1.185-2.197-5.63-0.286-7.547-0.286-1.908 0-6.572-1.905-7.567 0.851z" fill="#e4b3ab"/>
       <path d="m102.21 117.22c-0.243-0.522 1.194-1.333 1.748-1.493 0.777-0.226 2.505 0.238 2.438 0.831-0.06 0.521-1.603-0.169-2.105-0.022-0.521 0.15-1.853 1.175-2.081 0.684zm-6.993-0.479c0.706 0 1.753 0.457 1.945 0.057 0.229-0.479-1.56-1.065-2.086-1-0.434 0.052-1.991 0.958-1.777 1.338 0.2 0.353 0.988-0.395 1.918-0.395z" fill="#c5796d"/>
       <path d="m99.857 113.48c0.669 0 1.807-0.637 1.978-1.9 0.754-5.575-0.521-20.246-1.978-20.246-1.365 0-2.508 15.024-2.155 20.246 0.087 1.281 1.397 1.9 2.155 1.9" fill="#fff" opacity=".2"/>
      </g>
      <g id="svga-group-hair-front" stroke-width="none">
       <path d="m51.396 214.38c-15.723-25.105-21.321-14.91-17.672-42.457-5.209-9.411-9.375-18.77-12.191-28.824-5.598-21.481 0.132-35.265 5.142-50.948-4.786-65.338 32.666-101.15 74.035-101.15 32.28 0 67.16 23.47 67.471 75.221-0.514 9.459-1.932 25.343-3.003 32.165 17.769 55.029 2.501 50.649-11.07 76.357-3.681 6.968-8.012 17.267-8.919 27.573-18.66-33.246-16.96-38.325-10.676-53.39 7.504-17.985 4.547-4.07-10.03-2.422 13.563-10.49 22.717-10.462 23.003-75.823 1e-3 -0.039-0.021-0.075-0.054-0.091-12.352-5.881-24.037-17.006-31.256-29.76-0.018-0.031-0.047-0.05-0.082-0.05h-3e-3c-0.037 1e-3 -0.07 0.023-0.085 0.057-8.335 17.787-22.626 27.374-46.336 31.084-4.629 2.417-9.738 4.666-16.104 7.085-0.037 0.014-0.063 0.051-0.063 0.092-0.428 25.658 5.466 43.881 20.327 65.193-7.085-3.254-12.746-12.711-12.746-12.711-0.355 0 2.484 4.965 2.662 5.281 19.809 35.294-12.119 46.623-12.35 77.52z" fill="#2a232b" opacity=".1"/>
       <path d="m50.101 212.29c-16.177-25.105-21.937-14.91-18.182-42.457-5.36-9.411-9.647-18.77-12.543-28.824-5.76-21.481 0.135-35.265 5.29-50.948-4.925-65.337 33.609-101.15 76.175-101.15 33.21 0 69.099 23.47 69.419 75.221-0.527 9.459-1.984 25.343-3.089 32.165 18.283 55.029 2.573 50.649-11.39 76.357-3.789 6.968-8.242 17.267-9.175 27.573-19.202-33.246-17.451-38.325-10.984-53.39 7.718-17.985 2.953-4.116-10.321-1.223 13.954-10.49 23.373-11.661 23.668-77.022 1e-3 -0.039-0.022-0.075-0.058-0.091-12.709-5.881-24.729-17.006-32.156-29.76-0.018-0.031-0.051-0.05-0.086-0.05h-4e-3c-0.037 1e-3 -0.07 0.023-0.086 0.057-8.577 17.787-23.281 27.374-47.675 31.084-4.764 2.417-10.02 4.666-16.569 7.085-0.039 0.014-0.064 0.051-0.065 0.092-0.441 25.657 5.624 44.881 20.914 66.193-7.322-5.419-13.113-13.711-13.113-13.711-0.366 0 2.556 4.965 2.738 5.281 20.38 35.295-12.471 46.624-12.708 77.52z" fill="#2a232b"/>
       <path d="m27.34 109.85c-0.751-7.729-12.676-57.451 16.781-93.862-13.992 27.157-18.065 63.81-16.781 93.862zm140.18-15.812c4.414-30.432 5.609-63.063-19.443-86.74 12.375 24.191 21.013 41.89 19.443 86.74zm-24.381-71.185c-2.382 11.089 1.711 25.652 3.052 35.713-6.99-5.635-11.156-13.569-15.962-24.596 1.055 6.228 3.485 17.428 16.972 31.263-21.798-19.468-26.475-29.291-22.914-52.455-0.198 0.877-0.389 1.705-0.573 2.49 0.477-2.542 0.913-5.288 1.285-8.271-3.201 18-27.117 50.049-47.061 56.902-3.01 3.013-5.737 3.154-8.993 5.917 27.231-4.152 44.396-19.706 48.078-30.866 7.436 12.238 20.931 23.546 33.167 29.331 1.848-16.192-4-26.142-7.051-45.428zm-41.604 0.713c-9 15-14.354 24.5-28.354 33.5 4.545-3.637 7.687-9.667 9.531-14.927-5.51 8.155-14.148 13.239-21.713 19.858 7.516-8.268 17.645-19.858 24.036-30.931-6.442 8.582-16.813 15.337-26.036 23 7.256-6.029 13-13.667 17-21.667-2.775 3.7-7.862 6.459-14 12.598 8.972-11.966 9.88-17.484 12.419-22.405-6.216 10.474-11.655 14.106-17.794 19.295-4.221 17.702-4.461 25.388-5.256 35.113-0.039 0.469 17.113-6.963 17.535-7.177 0.014-2e-3 0.028-5e-3 0.042-7e-3 15.992-13.57 22.556-27.725 32.59-46.25zm-41.536 113.43c2.788 11.151 1.226 21.095-2.464 32.735-0.488-10.761-8.475-21.806-14.417-31.462 1.364 20.726 3.566 30.364 0.083 46.129-1.866-28.597-7.833-38.269-16.583-59.417-3.527 13.393-2.659 30.866 5.299 44.844-3.755 27.547 2.005 17.352 18.182 42.457 0.238-30.896 33.088-42.226 12.707-77.52-0.183-0.316-3.104-5.281-2.738-5.281 0 0 5.792 8.292 13.113 13.711-22.233-24.211-28.063-54.711-28.7-87.711-4.987 39.748 9.518 61.515 15.518 81.515zm109.13-35.544c0.865 16.928 5.439 38.169-9.257 51.947 6-10 3.131-23.403 0.131-33.403 0.376 26.762-10.812 42.834-13.809 60.402-0.456-8.086-2.304-17.859 1.473-31.015-3.663 6.402-7.795 13.848-9.388 22.723-5.241-9.827-2.367-17.266-0.533-26.834 7.778-8.19 13.157-23.839 14.294-33.894-0.935 8.266-6.287 20.703-12.478 25.897-1e-3 9e-3 -0.536 1.809-1.124 3.782 0.044-0.333 0.086-0.668 0.125-1.008-8.928 21.01-13.345 23.131 8.046 60.166 0.845-9.357 4.724-19.388 9.175-27.573 13.455-24.772 28.62-22.169 13.345-71.19z" fill="#1b141c"/>
       <path d="m155.34 79.777c4.269-17.414-2.295-44.215-5.664-49.444 5.253 8.148 12.299 30.132 5.664 49.444zm4.102 7.922c0.458-2.363 14.095-28.735-8.994-65.914 20.885 38.017 9.458 63.518 8.994 65.914zm-125.36-32.317c1-0.447 7.361-47.259 48.429-56.088-43.069 7.589-47.429 55.643-48.429 56.088zm5.67 44.385c-0.024-1.003-8.152-47.383 14.691-77.104-26.451 31.304-14.715 76.104-14.691 77.104zm3.257 31.389c-1.428-1.897-13.106-33.317-7.671-69.134-10.056 37.562 6.919 68.134 7.671 69.134zm110.38-100.35c-1-0.295-13.057-35.017-37.847-31.593 21.684-1.229 36.847 31.295 37.847 31.593zm-20.632 17.99s-9.419-14.771-6.004-39.082c-3.152 14.84-2.821 25.098 6.004 39.082zm2.661-11.495c2.568 7.16 8.104 14.888 9.026 15.499-1.001-0.663-9.66-13.341-11.684-34.227 0.18 6.269 0.518 12.76 2.658 18.728zm-47.282 20.113c7.993-7.77 25.836-15.403 35.973-52.374-10.877 34.152-27.518 44.155-35.973 52.374zm0.025-30.406c6.991-6.677 9.494-13.522 9.407-19.946-0.716 6.447-4.207 14.98-9.407 19.946zm-10.021 3.329c0.377-0.013 1.333-1.137 1.603-1.373 7.977-6.959 11.625-12.581 12.388-22.236-1.171 11.009-12.989 23.575-13.991 23.609zm-1.343-1.979s8.23-9.662 11.186-23.308c-3.13 10.887-11.186 23.308-11.186 23.308zm-20.4 125.38c0.581-1 1.925-20.274-7.62-28.24 6.005 6.094 8.2 27.239 7.62 28.24zm0.017-0.01c-0.46-7.765-7.55-13.918-8.99-23.647 0.536 12.408 8.195 16.828 8.99 23.647zm-15.325 6.677c-0.959-2.241 3.723-12.528-10.313-34.283 11.433 20.579 9.851 33.203 10.313 34.283zm0.02-1.321c-1.186-4.379 0.906-13.748-4.325-28.989 2.734 10.111 2.791 23.317 4.325 28.989zm108.91-27.792c-4.108 8.074-12.523 13.667-10.338 33.775-0.201-1.853 0.16-3.941 0.305-5.79 1.957-24.953 8.672-5.729 16.046-52.242-1.784 7.138-3.142 18.616-6.013 24.257zm-2.295 36.44c0.371-1.456 0.345-3.097 0.603-4.586 2.182-12.614 6.991-19.381 7.411-39.744-0.962 16.481-8.222 30.106-8.014 44.33zm17.378-26.702c0.469-3.128 6.825-7.942 1.996-32.945 2.746 25.659-1.535 29.869-1.996 32.945zm1e-3 0.031c0.438-1 3.109-17.928-3.651-30.616 4.719 10.273 4.09 29.616 3.651 30.616z" fill="#3a353a"/>
       <path d="m18.901 151.75c0.248-2.574 0.649-5.177 1.238-7.817 2.5 7.838 5.503 15.074 11.68 25.88-3.773 27.679 2.116 17.422 18.38 42.81 0-22.267 17.058-34.558 19.03-51.87 1.784-15.764-4.759-22.359-9.16-31.17 3.666 5.108 8.469 10.416 13.56 14.061-14.507-20.062-21.735-38.961-21.26-66.64 5.63-2.08 11.2-4.36 16.55-7.08 21.469-3.266 38.274-11.49 47.75-31.14 7.314 12.562 19.169 23.77 32.2 29.8-0.298 65.876-9.77 66.413-23.98 77.209 5.811-1.109 12.751-5.729 14.311-7.93-9.068 23.75-15.193 23.472 7.479 62.68 0.796-9.556 4.586-19.383 9.19-27.85 13.917-25.626 29.741-22.284 11.45-77.29 1.544-9.539 2.827-18.686 3-27.83 0.175 3.245 0.276 6.377 0.367 9.425h0.641c-0.257-4.086-0.525-8.347-0.968-12.875-0.657-106.41-155.46-102.18-145.79 25.9-5.227 15.913-11.063 29.484-5.29 50.95-0.926 3.002-1.626 5.909-2.137 8.749 0.532 0.731 1.091 1.434 1.759 2.028zm6.058-57.468c0.095 1 3.72 27.654 1.32 8.13-17.743-144.35 166.26-154.35 139.86-0.519-1.794 10.454-0.768 5.549 0.961-5.12 17.259 58.25-3.75 45.563-18.32 87.37-1.37 3.939-2.34 9-2.74 13.13-21.623-38.089-11.207-41.533-5.64-60.7 6.599-7.292 10.615-15.871 11.71-26.52-2.591 17.989-14.384 30.05-24.181 34.06 5.116-3.371 10.438-6.975 13.601-12.39 2.034-2.136 11.762-26.173 8.12-72.03-1.673-20.141-8.437-26.107-6.931-34.66-1.396 6.717 2.429 11.257 4.71 25.08 1.055 6.458 1.431 15.847 1.431 17.57-10.923-5.965-24.91-18.89-31.76-29.79 4.461-9.145 6.782-23.075 8.6-31.87-5.416 22.088-9.213 52.515-53.76 62.3 7.232-3.953 22.987-12.243 39.25-45.36 0.02-0.01 0.029-0.02 0.029-0.04 8.711-17.095 0.602-2.034-0.09-0.8-0.013-0.026-0.01-0.103-0.01 0.01-20.156 36.093-36.387 45.333-58.75 54.6 0.01-0.68 0.02-1.36 0.05-2.04 27.481-8.941 44.618-41.674 39.07-33.58-8.877 13.02-24.155 28.015-39.06 33.34 0.017-1 0.183-4.32 0.46-7.14 19.215-13.644 23.448-20.838 30.89-33.8 0.556-0.979 1.037-1.813 1.454-2.526-4.483 6.824-16.303 23.2-32.294 35.725 0.44-4.62 1.1-9.22 1.89-13.79 0.921-1.218 8.834-7.552 15.32-20.74 3.094-6.249 4.27-9.59 4.27-9.59-0.871 1.578-6.035 13.404-19.31 28.78 2.19-12.138 5.188-23.076 8.57-35.03-5.756 17.895-11.357 37.272-13.01 56.8-0.488 1-1.416 37.987 17.235 63.969-28.77-30.95-24.066-68.987-23.885-81.719-0.09 0-0.75 10.35-0.8 11.05-3.867 51.415 25.597 63.853 24 90.61-1.172 19.548-17.347 30.422-17.49 53.89-12.637-21.956-19.809-15.55-16.85-39.3 0.077-1 1.134-8.253 0.08-15.33-1.696-11.256-4.121-14.498-3.766-16.86-0.269 1.428 0.351 2.886 1.417 6.7 1.909 6.668 2.163 15.704 1.33 22.73-16.523-32.548-14.211-49.843-6.981-74.6z"/>
      </g>
      <g id="svga-group-glasses-single">
       <path d="m100 18.13z" fill="#26120b" stroke-width="none"/>
      </g>
     </g>
    </g>
    <rect y="185" width="200" height="15" display="none" fill="#ecf0f1" opacity=".5"/>
    <text x="100" y="185" display="none" fill="#000000" font-family="Roboto, 'Helvetica Neue', Helvetica, Arial, sans-serif" font-size="10.08px" font-weight="400" text-anchor="middle">
     <tspan x="100" dy="1.2em" font-family="Roboto, 'Helvetica Neue', Helvetica, Arial, sans-serif" font-size="8.4672px" font-weight="400" text-anchor="middle">Created by face.co</tspan>
    </text>
   </g>
  </g>
 </g>
</svg>
