<svg width="162.61" height="187.76" version="1.1" viewBox="0 0 43.023 187.76" xmlns="http://www.w3.org/2000/svg">
 <defs>
  <radialGradient id="SvgjsRadialGradient2913" class="svga-on-canvas-eyesback-gradient-left-0" cx="129.04" cy="83.945" r="15.117" gradientTransform="matrix(-.78937 .082708 .082708 .78937 95.301 -9.4494)" gradientUnits="userSpaceOnUse">
   <stop stop-color="#fff" offset="0"/>
   <stop stop-color="#fcfdfd" offset=".315"/>
   <stop stop-color="#f4f7f8" offset=".504"/>
   <stop stop-color="#e5ecef" offset=".66"/>
   <stop stop-color="#d8e2e7" offset=".76"/>
  </radialGradient>
  <radialGradient id="SvgjsRadialGradient2920" class="svga-on-canvas-eyesback-gradient-right-0" cx="128.64" cy="83.986" r="15.116" gradientTransform="matrix(.9945 .1042 -.1042 .9945 7.1738 -12.463)" gradientUnits="userSpaceOnUse">
   <stop stop-color="#fff" offset="0"/>
   <stop stop-color="#fcfdfd" offset=".316"/>
   <stop stop-color="#f4f7f8" offset=".505"/>
   <stop stop-color="#e5ecef" offset=".661"/>
   <stop stop-color="#d8e2e7" offset=".76"/>
  </radialGradient>
  <radialGradient id="SvgjsRadialGradient2928" class="svga-on-canvas-eyesiris-gradient-left-1" cx="-568.66" cy="-521.04" r="59.751" gradientTransform="matrix(.096 -.0248 .0245 .0961 141.28 119.99)" gradientUnits="userSpaceOnUse">
   <stop stop-color="#fff" offset="0"/>
   <stop stop-color="#fff" stop-opacity="0" offset="1"/>
  </radialGradient>
  <radialGradient id="SvgjsRadialGradient2932" class="svga-on-canvas-eyesiris-gradient-left-2" cx="-582.84" cy="-519.1" r="59.745" gradientTransform="matrix(.0991 .00088563 -.0011 .0991 131.11 135.99)" gradientUnits="userSpaceOnUse">
   <stop stop-color="#fff" offset="0"/>
   <stop stop-color="#fff" stop-opacity="0" offset="1"/>
  </radialGradient>
  <linearGradient id="SvgjsLinearGradient2938" class="svga-on-canvas-eyesiris-gradient-left-5" x1="122.67" x2="123.61" y1="88.268" y2="87.152" gradientTransform="translate(-52)" gradientUnits="userSpaceOnUse">
   <stop stop-color="#fff" offset="0"/>
   <stop stop-color="#fff" stop-opacity="0" offset="1"/>
  </linearGradient>
  <linearGradient id="SvgjsLinearGradient2942" class="svga-on-canvas-eyesiris-gradient-left-6" x1="127.21" x2="126.46" y1="82.296" y2="83.189" gradientTransform="translate(-52)" gradientUnits="userSpaceOnUse">
   <stop stop-color="#fff" offset="0"/>
   <stop stop-color="#fff" stop-opacity="0" offset="1"/>
  </linearGradient>
  <linearGradient id="SvgjsLinearGradient2946" class="svga-on-canvas-eyesiris-gradient-left-7" x1="129.64" x2="127.91" y1="79.822" y2="81.879" gradientTransform="translate(-52)" gradientUnits="userSpaceOnUse">
   <stop stop-color="#fff" offset="0"/>
   <stop stop-color="#fff" stop-opacity="0" offset="1"/>
  </linearGradient>
  <radialGradient id="SvgjsRadialGradient2951" class="svga-on-canvas-eyesiris-gradient-right-1" cx="-568.65" cy="-521.04" r="59.752" gradientTransform="matrix(.096 -.0248 .0245 .0961 193.28 119.99)" gradientUnits="userSpaceOnUse">
   <stop stop-color="#fff" offset="0"/>
   <stop stop-color="#fff" stop-opacity="0" offset="1"/>
  </radialGradient>
  <radialGradient id="SvgjsRadialGradient2955" class="svga-on-canvas-eyesiris-gradient-right-2" cx="-582.83" cy="-519.1" r="59.747" gradientTransform="matrix(.0991 .00088563 -.0011 .0991 183.11 135.99)" gradientUnits="userSpaceOnUse">
   <stop stop-color="#fff" offset="0"/>
   <stop stop-color="#fff" stop-opacity="0" offset="1"/>
  </radialGradient>
  <linearGradient id="SvgjsLinearGradient2961" class="svga-on-canvas-eyesiris-gradient-right-5" x1="122.67" x2="123.61" y1="88.268" y2="87.152" gradientUnits="userSpaceOnUse">
   <stop stop-color="#fff" offset="0"/>
   <stop stop-color="#fff" stop-opacity="0" offset="1"/>
  </linearGradient>
  <linearGradient id="SvgjsLinearGradient2965" class="svga-on-canvas-eyesiris-gradient-right-6" x1="127.21" x2="126.46" y1="82.296" y2="83.189" gradientUnits="userSpaceOnUse">
   <stop stop-color="#fff" offset="0"/>
   <stop stop-color="#fff" stop-opacity="0" offset="1"/>
  </linearGradient>
  <linearGradient id="SvgjsLinearGradient2969" class="svga-on-canvas-eyesiris-gradient-right-7" x1="129.64" x2="127.91" y1="79.822" y2="81.879" gradientUnits="userSpaceOnUse">
   <stop stop-color="#fff" offset="0"/>
   <stop stop-color="#fff" stop-opacity="0" offset="1"/>
  </linearGradient>
  <radialGradient id="SvgjsRadialGradient2982" class="svga-on-canvas-eyesfront-gradient-left-3" cx="121.99" cy="82.496" r="16.003" fx="133.24" fy="82.527" gradientTransform="matrix(.79358 .01651 .013176 -.63483 -93.728 116.28)" gradientUnits="userSpaceOnUse">
   <stop stop-color="#e1ac8f" offset="0"/>
   <stop stop-color="#e1ac8f" stop-opacity=".3" offset=".7"/>
   <stop stop-color="#f0c7b1" stop-opacity="0" offset="1"/>
  </radialGradient>
  <radialGradient id="SvgjsRadialGradient3002" class="svga-on-canvas-eyesfront-gradient-right-3" cx="121.59" cy="82.496" r="16.003" fx="132.84" fy="82.527" gradientTransform="matrix(-.79358 .01651 -.013176 -.63483 136.33 116.29)" gradientUnits="userSpaceOnUse">
   <stop stop-color="#e1ac8f" offset="0"/>
   <stop stop-color="#e1ac8f" stop-opacity=".3" offset=".7"/>
   <stop stop-color="#f0c7b1" stop-opacity="0" offset="1"/>
  </radialGradient>
  <linearGradient id="SvgjsLinearGradient3015" class="svga-on-canvas-mouth-gradient-single-0" x1="100" x2="100" y1="142" y2="139" gradientUnits="userSpaceOnUse">
   <stop stop-color="#e8b9a0" offset=".1"/>
   <stop stop-color="#e1ac8f" offset="1"/>
  </linearGradient>
  <linearGradient id="SvgjsLinearGradient3044" class="svga-on-canvas-chinshadow-gradient-single-0" x1="100" x2="100" y1="171" y2="131" gradientUnits="userSpaceOnUse">
   <stop stop-color="#e1ac8f" stop-opacity=".8" offset="0"/>
   <stop stop-color="#c27b55" offset=".7"/>
  </linearGradient>
 </defs>
 <g id="svga-group-hair-back" transform="matrix(.79374 0 0 .79374 -57.756 .44298)">
  <path d="m100.5 100.5h-1v-1h1z" fill="#2a232b" stroke-width="none"/>
 </g>
 <g id="svga-group-humanbody-single" transform="matrix(.79374 0 0 .79374 -57.756 .44298)">
  <g stroke-width="none">
   <path d="m195.42 199.78c-2.196-4.746-8.195-11.779-14.86-13.722-8.239-2.403-26.837-5.308-33.733-6.923-5.528-1.296-16.662-11.294-20.564-14.65-0.7-0.6-1.273-1.839-1.287-2.76-0.139-10.864 4.195-39.724 4.195-39.724h-58.335s4.334 28.859 4.193 39.724c-0.011 0.921-0.587 2.16-1.285 2.76-3.902 3.356-15.036 13.354-20.564 14.65-6.897 1.615-25.495 4.619-33.733 7.022-6.667 1.942-12.664 8.876-14.86 13.622-3.708 8.008-4.584 22.5-4.584 35h200c0-12.499-0.877-26.991-4.583-34.999z" fill="#f0c7b1"/>
   <path d="m159.16 184.06c24.342 3.542 34.586 8.708 37.794 50.721h3.05c0-12.5-0.877-26.992-4.583-35-2.196-4.746-8.195-11.779-14.86-13.722-8.239-2.403-26.837-5.308-33.733-6.923-5.528-1.296-18.242-12.069-21.643-16.35 3.36 4.704 12.791 15.605 21.054 18.46 3.953 1.366 7.245 1.988 12.921 2.814zm-105.39-2.814c8.263-2.854 17.693-13.756 21.054-18.46-3.4 4.28-16.114 15.054-21.643 16.35-6.896 1.615-25.494 4.619-33.733 7.022-6.665 1.942-12.664 8.876-14.86 13.622-3.706 8.008-4.583 22.5-4.583 35h3.05c3.188-41.744 13.475-47.183 37.794-50.721 5.675-0.825 8.968-1.447 12.921-2.813z" fill="#ffe4d6"/>
   <path d="m95.646 197.62s-5.074-1.609-7.083-2.379c-10.449-4.009-44.395-6.607-44.395-6.607s35.754 1.419 43.644 2.779c-0.458-4.767-3.017-20.004-3.017-20.004s5.149 16.815 6.409 21.057c0.674 2.268 4.442 5.154 4.442 5.154zm10.799-1.342c-0.089 0.073-0.191 0.168-0.302 0.268 0.113-0.085 0.215-0.174 0.302-0.268zm-10.799 1.342s2.893 2.992 4.347 3.03c1.91 0.051 4.828-2.899 6.151-4.104-1.265 0.957-4.159 1.391-5.31 1.436-1.33 0.051-5.188-0.362-5.188-0.362zm21.018-7.519c-1.545 0.248-4.386 0.789-4.386 0.789l2.287-14.89c-0.646 3.071-4.474 16.211-8.12 20.278 1.91-1.616 6.158-2.391 8.324-2.704 10.236-1.484 10.232-1.483 41.062-4.94 0 0-29.071-0.155-39.167 1.467z" fill="#e1ac8f"/>
  </g>
  <path d="m195.42 199.78c-2.196-4.746-8.195-11.779-14.86-13.722-8.239-2.403-26.837-5.308-33.733-6.923-5.528-1.296-16.662-11.294-20.564-14.65-0.7-0.6-1.273-1.839-1.287-2.76-0.139-10.864 4.195-39.724 4.195-39.724h-58.335s4.334 28.859 4.193 39.724c-0.011 0.921-0.587 2.16-1.285 2.76-3.902 3.356-15.036 13.354-20.564 14.65-6.897 1.615-25.495 4.619-33.733 7.022-6.667 1.942-12.664 8.876-14.86 13.622-3.708 8.008-4.584 22.5-4.584 35h200c0-12.499-0.877-26.991-4.583-34.999z" fill="none" stroke="#c27b55" stroke-width="1.5"/>
 </g>
 <g id="svga-group-chinshadow-single" transform="matrix(.79374 0 0 .79374 -57.756 .44298)">
  <path d="m100.02 171.87c8.183 0 16.871-4.943 24.199-10.675-1e-3 -6.702 1.451-19.105 2.652-28.205-15.382-2.247-38.406-2.279-53.766-0.152 1.184 8.96 2.625 21.206 2.671 28.02 7.342 5.913 16.045 11.012 24.244 11.012z" fill="url(#SvgjsLinearGradient3044)"/>
 </g>
 <g id="svga-group-clothes-single" transform="matrix(.79374 0 0 .79374 -57.756 .44298)" stroke-width="none">
  <path d="m111.81 235.89c-19.135 0-41.455-0.074-68.233-0.229l-23.679-0.128c-14.298-0.078-15.141-0.094-16.887-0.094l-4.899 7e-3c-4.571-41.875 14.41-52.87 43.762-56.708 7.789-1.097 15.449-3.097 21.459-6.972 16.327 22.243 64.811 17.562 73.103-0.629 1.39 0.53 2.539 1.215 3.977 1.734 4.666 3.433 11.072 5.836 17.628 6.199 26.008 1.441 44.419 12.996 44.057 54.64 3e-3 0.165 4e-3 1.175-0.013 1.49-12.513 0-17.206 0.121-27.034 0.262-13.331 0.19-29.923 0.427-63.229 0.427-5e-3 1e-3 -8e-3 1e-3 -0.012 1e-3z" fill="#386e77"/>
  <path d="m201.06 234.64c-0.41-7.385-4.064-28.058-10.36-37.541-12.482-18.805-42.26-12.206-49.132-19.693-4.986 10.159-24.975 16.595-31.594 17.54 19.181-6.36 27.237-10.959 30.42-21.87 6.405 8.33 41.074 1.971 54.717 24.331 3.995 6.547 7.794 27.386 5.949 37.233zm-145.24-57.012c1.357-0.315 2.034-1.249 3.381-1.614l-1.426-1.891c-9.049 7.052-42.909 2.645-54.519 24.036-3.659 6.741-6.127 22.788-4.192 36.439 0.537-8.384 0.799-26.314 7.095-35.798 11.324-17.06 31.974-12.553 47.619-19.775 6.983 8.6 17.888 12.828 28.984 14.577-13.921-3.631-21.903-9.762-26.942-15.974z" fill="#4d7e86"/>
  <path d="m135.31 173.24c-5.532 11.514-47.35 24.923-70.93 0.879-1.466 0.622-5.852 2.112-5.852 2.112 17.176 23.386 67.511 23.534 80.909-0.114-0.059-0.023-2.765-2.185-4.127-2.877z" fill="#265e68"/>
  <path d="m136.38 171c-9.413 18.822-58.397 21.485-73.012 0.632-5.337 1.578-10.469 4.941-15.636 5.782-30.92 4.605-53.778 6.919-49.732 58.136 9.94 0-6.611-0.065 45.571 0.215 123.59 0.71 119.56-0.461 158.61-0.461 0.029-0.14 0.015-1.452 0.021-1.596 2.096-56.436-30.852-53.104-53.12-56.995-3.144-0.718-6.066-2.773-8.635-3.945-1.419-0.649-2.625-1.232-4.063-1.768zm-73.366 1.263c12.974 23.392 64.219 18.699 74.113 0.101 1.2 0.504 1.507 0.704 2.898 1.197-10.248 21.489-60.942 28.337-81.677 1.163 0.146-0.041 3.204-1.913 4.666-2.461zm-63.859 62.513c-2.421-26.431 1.797-48.043 32.78-53.345 10.276-1.896 16.557-1.962 25.384-5.794 16.763 27.405 72.098 23.158 83.598-1.305 1.652 1.409 4.228 3.03 7.405 3.785 18.098 4.299 54.838-0.894 52.898 56.658-54.057-0.702-98.865-2.344-202.06 1e-3z" fill="#0c4049"/>
 </g>
 <path d="m-21.505 67.39c-1.1787-1.9542-5.022-7.3016-7.962-6.5515-2.3907 0.61277-2.3598 3.9457-2.5447 5.9173-0.26987 2.8924-0.3683 7.931 0.41671 9.9757 0.75485 1.9629 3.1432 5.7562 4.6259 7.2032 1.8248 1.774 4.7386 7.4278 5.0974 8.0144 0.56435 0.92709 1.6962 2.2542 3.4329 2.1494 2.4376-0.14684 4.5434-2.4503 4.7347-3.5599 1.0327-6.0245-4.7331-18.064-7.8009-23.149z" fill="#f0c7b1" stroke="#c27b55" stroke-width="1.1906"/>
 <path d="m-22.672 79.294c-0.1135-0.44688 0.0056-1.2009 0.12224-1.928 0.10557-0.66277 0.20478-1.289 0.14446-1.7319-0.22939-1.6589-1.52-4.8101-2.3622-6.5182-0.97074-1.9653-2.5392-4.441-4.5076-5.0791-0.81279-0.26432-1.3486 0.05159-1.6581 0.37147-0.2286 0.23495-0.28019 0.51196-0.20558 0.5453 0.07541 0.03254 0.24368-0.19685 0.48974-0.41195 0.20161-0.17621-0.40322-0.03175 0 0-0.16272 0.82549-0.68658 5.0022-0.32543 8.0509 0.28416 2.3987 0.83343 4.1902 1.0025 4.4584 0.02461 0.28257 0.06588 0.55959 0.127 0.82787 0.79533 3.5004 5.9673 8.0779 7.1706 9.382 0.22225 0.2405 0.45561 0.38338 0.51276 0.32464 0.05715-0.05874-0.08017-0.29606-0.30083-0.53816-1.189-1.2954-6.3269-5.8586-7.0952-9.2352-0.81517-3.5829 3.1051-8.8954 3.7298-10.019 0.31829 0.52784 0.58896 1.0342 0.79692 1.4565 0.1643 0.33099 0.34448 0.71913 0.53181 1.139-0.3675 0.58578-4.0624 4.8632-3.1226 8.2874 0.34766 1.2628 3.0337 2.8908 4.0727 3.3361 0.57149 0.24606 0.7858 0.61277 1.035 1.0366 0.28892 0.49529 0.02619 1.7692 0.9763 2.1741 0.19367 0.08255 0.3683 0.11589 0.52308 0.11589 0.26828 0 0.47148-0.10319 0.6215-0.22542 0.01587 0.2151 0.01508 0.49132 0.0071 0.74691-0.0095 0.33178 0.03731 0.48339 0.11747 0.48974 0.08175 0.0071 0.16668-0.13811 0.177-0.46593 0.01349-0.40481 0.01111-0.90566-0.06112-1.1462-0.21352-0.70564-0.86359-1.5033-1.5533-2.3471-0.67785-0.82946-0.78977-2.4042-0.96598-3.0964zm-7.327-3.1027c-1.8637-5.4951 1.0184-10.5 1.4367-11.254 0.80326 0.3167 2.0336 1.7407 2.5566 2.5677-0.381 0.66118-3.9155 4.9902-3.9933 8.6867zm8.5748 8.7565c-0.86041-0.36671-0.56038-1.5748-0.83819-2.051-0.25241-0.43021-0.51276-0.8747-1.1739-1.1589-0.14287-0.06191-0.30083-0.15557-0.46275-0.26352-2.1288-4.822 0.23257-6.9294 0.8247-7.3604 0.18177 0.58896 0.3167 1.1295 0.37782 1.5637 0.05397 0.39687-0.04683 1.0303-0.14367 1.6415-0.12144 0.75802-0.24606 1.543-0.11668 2.051 0.19367 0.75643 0.32623 2.3574 1.0247 3.2131 0.61991 0.75882 1.2565 1.5414 1.474 2.1796-0.09366 0.127-0.38814 0.43179-0.96598 0.18494z" fill="#c27b55" stroke-width=".79374"/>
 <path d="m64.536 67.39c1.1795-1.9542 5.0228-7.3016 7.962-6.5515 2.3907 0.61277 2.3598 3.9457 2.5455 5.9173 0.26987 2.8924 0.3675 7.931-0.41671 9.9757-0.75485 1.9629-3.144 5.7562-4.6259 7.2032-1.8248 1.774-4.7394 7.4278-5.0974 8.0144-0.56435 0.92709-1.6962 2.2542-3.4337 2.1494-2.4368-0.14684-4.5426-2.4503-4.7347-3.5599-1.0319-6.0245 4.7347-18.064 7.8009-23.149z" fill="#f0c7b1" stroke="#c27b55" stroke-width="1.1906"/>
 <path d="m64.734 82.389c-0.68976 0.84375-1.3398 1.6415-1.5533 2.3471-0.07302 0.2413-0.07461 0.74215-0.06191 1.1462 0.01111 0.32782 0.09604 0.47307 0.17859 0.46592 0.08096-0.0063 0.127-0.15795 0.11747-0.48974-0.0079-0.25558-0.0095-0.53181 0.0063-0.74691 0.15002 0.12224 0.35321 0.22542 0.6215 0.22542 0.15478 0 0.3302-0.03334 0.52387-0.11589 0.94852-0.4056 0.68658-1.6796 0.97551-2.1741 0.24923-0.42386 0.46354-0.79136 1.0358-1.0366 1.039-0.44529 3.725-2.0725 4.0727-3.3361 0.93979-3.4242-2.7551-7.7025-3.1226-8.2874 0.18574-0.41989 0.3675-0.80803 0.53022-1.139 0.20955-0.42227 0.47942-0.92947 0.7985-1.4565 0.62467 1.1239 4.5442 6.4356 3.7298 10.019-0.76913 3.3766-5.9062 7.9398-7.0952 9.2352-0.22145 0.24209-0.35956 0.47942-0.30242 0.53816 0.05874 0.05874 0.2913-0.08414 0.51276-0.32464 1.2033-1.3041 6.3745-5.8816 7.1699-9.382 0.06191-0.26828 0.10398-0.5453 0.12859-0.82787 0.16748-0.26749 0.71754-2.059 1.0017-4.4584 0.36115-3.0488-0.16272-7.2254-0.32543-8.0509 0.40322-0.03175-0.20161-0.17621 0 0 0.24685 0.2151 0.41513 0.44449 0.48974 0.41195 0.07461-0.03334 0.02302-0.30956-0.20478-0.5453-0.31035-0.31988-0.84613-0.63579-1.6589-0.37147-1.9685 0.63817-3.5377 3.1138-4.5084 5.0791-0.84216 1.7081-2.132 4.8593-2.3614 6.5182-0.06032 0.44291 0.03889 1.0692 0.14446 1.7319 0.11589 0.72707 0.23574 1.4811 0.12224 1.928-0.17621 0.69135-0.28733 2.2661-0.96519 3.0964zm4.2989-14.887c0.52387-0.82708 1.7534-2.2503 2.5566-2.5677 0.4183 0.75405 3.3004 5.7594 1.4375 11.254-0.07779-3.6964-3.6123-8.0255-3.9941-8.6867zm-5.5467 17.257c0.21669-0.63817 0.85406-1.4208 1.474-2.1796 0.6977-0.85565 0.83104-2.4566 1.0247-3.2131 0.12859-0.50799 0.0048-1.293-0.11589-2.051-0.09763-0.61118-0.19844-1.2446-0.14446-1.6415 0.06032-0.43418 0.19526-0.97471 0.37703-1.5637 0.59213 0.431 2.9535 2.5392 0.8247 7.3604-0.16113 0.10795-0.31908 0.20161-0.46354 0.26352-0.66039 0.28416-0.92074 0.72865-1.1739 1.1589-0.27781 0.47624 0.02302 1.6851-0.8374 2.051-0.57784 0.24844-0.87232-0.05635-0.96519-0.18494z" fill="#c27b55" stroke-width=".79374"/>
 <g id="svga-group-faceshape-wrap" transform="matrix(.79374 0 0 .79374 -57.756 .44298)">
  <g id="svga-group-faceshape-single">
   <path d="m158.78 78.006h-5e-3c-0.01 0.046-12.197 40.27-15.879 52.418-0.715 2.358-1.931 4.551-3.556 6.386-6.375 7.194-23.768 25.057-39.324 25.057-15.849 0-33.591-19.045-39.708-26.214-1.442-1.688-2.507-3.633-3.172-5.765-3.607-11.551-16.126-51.648-16.137-51.694h-1e-3c-1.298-4.992-1.994-10.231-2.002-15.634-0.052-34.024 27.154-61.64 60.772-61.693 33.621-0.053 60.913 27.476 60.964 61.499 9e-3 5.403-0.669 10.644-1.952 15.64z" fill="#f0c7b1" stroke-width="none"/>
   <path d="m132.17 10.26c14.31 11.135 23.671 29.457 23.699 50.208 9e-3 5.404-0.615 10.645-1.796 15.641h-4e-3c-9e-3 0.046-11.223 40.27-14.608 52.417-0.658 2.358-1.776 4.551-3.271 6.385-5.865 7.195-21.866 25.059-36.178 25.059-14.582 0-30.904-19.047-36.531-26.215-1.327-1.689-2.306-3.633-2.918-5.764-3.318-11.552-14.836-51.649-14.846-51.695h-1e-3c-1.194-4.992-1.834-10.231-1.842-15.634-0.029-20.827 9.348-39.239 23.713-50.412-17.193 10.909-28.618 30.258-28.584 52.31 8e-3 5.403 0.704 10.643 2.002 15.634h1e-3c0.01 0.046 12.53 40.143 16.137 51.694 0.666 2.132 1.73 4.076 3.172 5.765 6.116 7.169 23.858 26.214 39.708 26.214 15.557 0 32.949-17.862 39.324-25.057 1.625-1.835 2.841-4.027 3.556-6.386 3.682-12.148 15.869-52.372 15.879-52.418h5e-3c1.283-4.997 1.961-10.237 1.952-15.641-0.033-21.976-11.44-41.23-28.569-52.105z" fill="#e8b9a0" stroke-width="none"/>
   <path d="m158.78 78.006h-5e-3c-0.01 0.046-12.197 40.27-15.879 52.418-0.715 2.358-1.931 4.551-3.556 6.386-6.375 7.194-23.768 25.057-39.324 25.057-15.849 0-33.591-19.045-39.708-26.214-1.442-1.688-2.507-3.633-3.172-5.765-3.607-11.551-16.126-51.648-16.137-51.694h-1e-3c-1.298-4.992-1.994-10.231-2.002-15.634-0.052-34.024 27.154-61.64 60.772-61.693 33.621-0.053 60.913 27.476 60.964 61.499 9e-3 5.403-0.669 10.644-1.952 15.64z" fill="none" stroke="#c27b55" stroke-width="1.5"/>
  </g>
 </g>
 <g id="svga-group-mouth-single" transform="matrix(.79374 0 0 .79374 -57.756 .44298)">
  <path d="m96.227 139.24 8.297-0.207c-0.961 4.47-7.64 3.828-8.297 0.207z" fill="url(#SvgjsLinearGradient3015)"/>
  <path d="m96.343 139.52c-0.371-0.05-0.315-0.579 0.08-0.542 0.043 6e-3 4.308 0.546 7.878-0.215 0.386-0.075 0.5 0.455 0.13 0.534-2.797 0.598-6.416 0.458-8.088 0.223zm3.74-3.57c-1.503 0-2.96-0.521-4.424-0.776-1.64-0.287-3.274-0.041-4.915 0.104-1.676 0.149-5.333-0.013-6.365-0.666-0.578-0.367-0.47-1.221 0.181-1.449 0.614-0.22 1.571 0.236 2.191 0.347 2.872 0.515 4.384-0.034 6.902-0.118 3.851-0.116 4.26 1.501 9.064 0.53 5.165-1.044 7.491-0.254 11.197-1.37 0.508-0.154 1.112-0.56 1.645-0.286 0.615 0.318 0.585 1.185-0.049 1.464-3.406 1.502-7.174 0.895-10.955 1.526-1.482 0.246-2.959 0.694-4.472 0.694z" fill="#c27b55" stroke-width="none"/>
 </g>
 <g stroke-width=".79374">
  <path d="m-8.7407 65.945c-0.40163-1.8137 4.1203-3.1535 10.089-2.4217 5.9673 0.73262 10.111 4.3846 9.5662 6.2261-0.30162 1.0208-8.4446 2.5757-11.313 2.2598-2.9083-0.32146-7.3723-1.6851-8.3422-6.0642z" fill="url(#SvgjsRadialGradient2913)"/>
  <path d="m-15.454 66.323c0.64214 8.651 9.2368 18.719 16.276 17.65 8.3327 0.08414 16.561-6.2451 16.561-17.704 0-11.459-4.0378-21.056-16.769-21.056-9.128-7.94e-4 -16.068 9.6519-16.068 21.111zm6.7135-0.37861c-0.40163-1.8137 4.1203-3.1535 10.089-2.4217 5.9673 0.73262 10.111 4.3846 9.5662 6.2261-0.30162 1.0208-8.4446 2.5757-11.313 2.2598-2.9083-0.32146-7.3723-1.6851-8.3422-6.0642z" fill="#f0c7b1"/>
  <path d="m-0.39845 72.009c2.8686 0.31591 11.012-1.239 11.313-2.2598 0.5453-1.8415-3.5988-5.4935-9.5662-6.2261-5.1276-0.62864-9.178 0.27305-9.9662 1.6891 0.71278-5.0799 6.1118-9.0463 12.69-9.0756 7.073-0.02937 12.817 4.5053 12.836 10.132 0.01667 5.626-5.703 10.209-12.775 10.241-7.0746 0.02937-12.818-4.5053-12.837-10.131 0-0.08334 0.0127-0.1651 0.015081-0.24844 1.0557 4.2283 5.4244 5.5625 8.2906 5.8792z" fill="url(#SvgjsRadialGradient2982)"/>
  <path d="m-8.4263 61.892c3.3401-1.57 7.4215-1.7145 10.984-0.79771 1.9082 0.44529 3.9409 1.02 5.6062 2.0939 1.5438 0.9009 2.7979 1.9844 3.9703 3.3258-1.0652-1.3502-2.201-2.4749-3.6695-3.3893-1.8066-1.1239-3.7853-1.8208-5.8451-2.3145-3.6401-0.89375-7.7167-0.69055-11.046 1.0819z" fill="#c27b55"/>
 </g>
 <g id="svga-group-eyesiris-left" transform="matrix(.79374 0 0 .79374 -57.557 .64142)">
  <path d="m80 84c0 3.313-2.687 6-6 6s-6-2.687-6-6c0-3.314 2.687-6 6-6 3.313-1e-3 6 2.686 6 6z" fill="#4e60a3" stroke-width="none"/>
  <path d="m73.328 78.066c-0.023 3e-3 -0.047 6e-3 -0.071 9e-3 0.029 0.135 0.057 0.271 0.085 0.406-6e-3 -0.137-9e-3 -0.277-0.014-0.415zm0.013 0.414c0.07 1.972 0.185 3.729 0.517 4.364 0.175-0.696-0.123-2.43-0.517-4.364zm0.518 4.365c-0.043 0.167-0.108 0.281-0.208 0.319s-0.226-6e-3 -0.368-0.103c0.041 0.167 0.037 0.297-0.036 0.378-0.072 0.081-0.201 0.101-0.373 0.078 0.113 0.13 0.171 0.249 0.146 0.353-0.027 0.104-0.134 0.182-0.293 0.242 0.159 0.063 0.266 0.141 0.291 0.245s-0.033 0.223-0.145 0.352c0.17-0.021 0.301 1e-3 0.371 0.082 0.071 0.081 0.075 0.212 0.035 0.379 0.141-0.097 0.265-0.139 0.365-0.1 0.101 0.038 0.166 0.152 0.206 0.32 0.081-0.152 0.171-0.249 0.28-0.26 0.104-0.014 0.216 0.059 0.329 0.188 1e-3 -0.172 0.037-0.299 0.127-0.36 0.088-0.061 0.219-0.049 0.379 0.013-0.078-0.152-0.105-0.281-0.055-0.377 0.05-0.095 0.173-0.146 0.344-0.166-0.141-0.099-0.227-0.2-0.225-0.308 0-0.108 0.084-0.209 0.227-0.306-0.17-0.021-0.291-0.072-0.342-0.167-0.049-0.095-0.022-0.225 0.058-0.377-0.162 0.06-0.292 0.072-0.38 0.011-0.089-0.061-0.125-0.188-0.125-0.36-0.112 0.128-0.224 0.199-0.33 0.185-0.108-0.014-0.199-0.108-0.278-0.261zm0.607 0.075c0.479-0.535 1.021-2.209 1.57-4.104-0.854 1.777-1.569 3.386-1.57 4.104zm1.569-4.104c0.06-0.122 0.121-0.246 0.178-0.37-0.021-7e-3 -0.042-0.017-0.063-0.026-0.038 0.133-0.076 0.266-0.115 0.396zm-1.063 4.454c0.672-0.252 1.931-1.483 3.297-2.905-1.581 1.176-2.963 2.269-3.297 2.905zm3.297-2.905c0.1-0.075 0.203-0.15 0.305-0.225-0.014-0.018-0.03-0.033-0.042-0.049-0.087 0.09-0.174 0.183-0.263 0.274zm-3.015 3.449c0.713 0.088 2.4-0.417 4.272-1.041-1.948 0.308-3.678 0.633-4.272 1.041zm4.272-1.04c0.11-0.016 0.225-0.034 0.337-0.052-4e-3 -0.019-9e-3 -0.038-0.014-0.057-0.107 0.036-0.217 0.073-0.323 0.109zm-4.273 1.653c0.59 0.412 2.318 0.747 4.262 1.063-1.865-0.633-3.548-1.148-4.262-1.063zm4.263 1.063c0.095 0.033 0.191 0.067 0.285 0.098 5e-3 -0.017 9e-3 -0.033 0.012-0.05-0.097-0.015-0.198-0.031-0.297-0.048zm-4.551-0.52c0.333 0.637 1.708 1.738 3.282 2.924-1.359-1.43-2.609-2.668-3.282-2.924zm3.283 2.922c0.059 0.062 0.12 0.126 0.179 0.189 0.01-0.012 0.019-0.021 0.03-0.032-0.07-0.052-0.142-0.105-0.209-0.157zm-3.788-2.575c-3e-3 0.719 0.703 2.331 1.547 4.113-0.539-1.897-1.07-3.575-1.547-4.113zm1.547 4.114c0.021 0.075 0.043 0.152 0.063 0.229 0.015-6e-3 0.025-0.01 0.039-0.014-0.033-0.072-0.068-0.146-0.102-0.215zm-2.156-4.042c-0.336 0.637-0.461 2.39-0.542 4.361 0.404-1.93 0.713-3.663 0.542-4.361zm-0.542 4.361c-0.017 0.075-0.031 0.151-0.047 0.228 0.014 3e-3 0.025 3e-3 0.039 5e-3 2e-3 -0.077 6e-3 -0.157 8e-3 -0.233zm-0.029-4.581c-0.596 0.407-1.521 1.904-2.508 3.61 1.254-1.52 2.334-2.912 2.508-3.61zm-2.508 3.61c-0.053 0.063-0.108 0.13-0.162 0.193 0.013 8e-3 0.024 0.014 0.038 0.024 0.04-0.072 0.083-0.145 0.124-0.217zm2.103-4.069c-0.716 0.083-2.231 0.978-3.898 2.029 1.818-0.762 3.418-1.491 3.898-2.029zm-3.899 2.031c-0.086 0.036-0.174 0.072-0.263 0.11 6e-3 0.013 0.015 0.027 0.023 0.04 0.081-0.049 0.161-0.1 0.24-0.15zm3.752-2.628c-0.671-0.257-2.429-0.168-4.395-0.011 1.964 0.168 3.722 0.265 4.395 0.011zm-4.395-0.011c-0.107-0.01-0.217-0.02-0.323-0.029 0 0.019-2e-3 0.038 0 0.056 0.109-0.01 0.218-0.019 0.323-0.027zm4.542-0.583c-0.473-0.539-2.069-1.277-3.881-2.051 1.659 1.06 3.169 1.964 3.881 2.051zm-3.881-2.051c-0.104-0.067-0.209-0.134-0.315-0.201-9e-3 0.019-0.019 0.038-0.029 0.055 0.116 0.049 0.232 0.097 0.344 0.146zm4.29 1.593c-0.169-0.698-1.241-2.094-2.485-3.623 0.976 1.712 1.893 3.213 2.485 3.623zm-2.485-3.623c-0.067-0.115-0.132-0.232-0.199-0.349-0.019 0.013-0.039 0.026-0.056 0.039 0.084 0.103 0.172 0.207 0.255 0.31z" fill="url(#SvgjsRadialGradient2928)" opacity=".7"/>
  <path d="m74.886 78.086c-0.024-3e-3 -0.047-7e-3 -0.07-0.01-7e-3 0.138-0.016 0.277-0.024 0.414 0.03-0.134 0.063-0.27 0.094-0.404zm-0.095 0.403c-0.442 1.922-0.787 3.649-0.629 4.35 0.349-0.628 0.509-2.38 0.629-4.35zm-0.63 4.35c-0.084 0.15-0.176 0.243-0.283 0.254-0.106 0.01-0.216-0.064-0.327-0.195-4e-3 0.171-0.042 0.297-0.133 0.356-0.09 0.059-0.221 0.045-0.38-0.021 0.076 0.155 0.101 0.285 0.049 0.378-0.053 0.094-0.176 0.142-0.345 0.158 0.137 0.101 0.22 0.204 0.217 0.312-2e-3 0.107-0.089 0.207-0.231 0.302 0.169 0.024 0.29 0.079 0.337 0.174 0.048 0.096 0.018 0.225-0.064 0.375 0.161-0.057 0.292-0.065 0.379-2e-3s0.12 0.19 0.116 0.363c0.117-0.125 0.229-0.196 0.337-0.179 0.105 0.014 0.194 0.113 0.27 0.268 0.045-0.167 0.113-0.279 0.216-0.315 0.101-0.036 0.225 0.01 0.363 0.111-0.036-0.167-0.029-0.299 0.044-0.378s0.205-0.096 0.376-0.072c-0.111-0.132-0.168-0.251-0.138-0.355 0.028-0.104 0.136-0.18 0.299-0.237-0.16-0.064-0.263-0.145-0.288-0.25-0.023-0.105 0.037-0.223 0.154-0.349-0.172 0.016-0.301-6e-3 -0.37-0.088-0.07-0.082-0.072-0.214-0.028-0.379-0.142 0.094-0.268 0.134-0.367 0.093-0.103-0.041-0.165-0.156-0.203-0.324zm0.568 0.231c0.601-0.394 1.557-1.871 2.578-3.558-1.285 1.495-2.391 2.863-2.578 3.558zm2.578-3.559c0.089-0.102 0.18-0.206 0.268-0.311-0.019-0.013-0.036-0.028-0.055-0.042-0.071 0.119-0.142 0.238-0.213 0.353zm-2.18 4.027c0.715-0.07 2.25-0.934 3.937-1.953-1.833 0.727-3.45 1.425-3.937 1.953zm3.936-1.954c0.117-0.046 0.235-0.092 0.354-0.138-0.01-0.021-0.021-0.04-0.028-0.059-0.108 0.066-0.216 0.133-0.326 0.197zm-3.804 2.553c0.666 0.27 2.426 0.218 4.395 0.101-1.961-0.208-3.716-0.342-4.395-0.101zm4.395 0.1c0.112 0.013 0.226 0.025 0.339 0.037 0-0.02 1e-3 -0.039 2e-3 -0.058-0.114 7e-3 -0.229 0.014-0.341 0.021zm-4.554 0.492c0.462 0.551 2.046 1.321 3.842 2.129-1.639-1.095-3.131-2.027-3.842-2.129zm3.841 2.129c0.083 0.057 0.167 0.114 0.25 0.168 9e-3 -0.015 0.017-0.03 0.025-0.045-0.09-0.039-0.184-0.081-0.275-0.123zm-4.261-1.679c0.156 0.701 1.2 2.12 2.414 3.674-0.943-1.734-1.83-3.254-2.414-3.674zm2.414 3.671c0.042 0.075 0.083 0.153 0.125 0.229 0.012-9e-3 0.024-0.016 0.037-0.024-0.054-0.068-0.109-0.138-0.162-0.205zm-2.991-3.467c-0.188 0.693 0.076 2.433 0.43 4.373-0.031-1.972-0.109-3.73-0.43-4.373zm0.429 4.373c1e-3 0.078 3e-3 0.158 3e-3 0.238 0.014-2e-3 0.027-4e-3 0.041-4e-3 -0.014-0.077-0.029-0.157-0.044-0.234zm-1.036-4.462c-0.49 0.528-1.064 2.189-1.652 4.072 0.889-1.759 1.637-3.353 1.652-4.072zm-1.653 4.072c-0.035 0.068-0.07 0.138-0.104 0.208 0.012 6e-3 0.023 9e-3 0.036 0.015 0.022-0.073 0.046-0.15 0.068-0.223zm1.157-4.432c-0.68 0.239-1.962 1.446-3.357 2.838 1.607-1.144 3.009-2.209 3.357-2.838zm-3.356 2.838c-0.067 0.047-0.137 0.098-0.205 0.145 0.01 0.011 0.02 0.02 0.029 0.032 0.057-0.059 0.117-0.117 0.176-0.177zm3.084-3.387c-0.713-0.104-2.407 0.368-4.291 0.952 1.955-0.266 3.688-0.556 4.291-0.952zm-4.291 0.954c-0.092 0.013-0.187 0.024-0.283 0.039 3e-3 0.015 8e-3 0.03 0.013 0.044 0.091-0.026 0.181-0.056 0.27-0.083zm4.304-1.567c-0.582-0.423-2.303-0.792-4.242-1.149 1.854 0.671 3.526 1.22 4.242 1.149zm-4.242-1.149c-0.101-0.037-0.205-0.075-0.305-0.112-5e-3 0.019-0.011 0.037-0.015 0.054 0.109 0.019 0.216 0.039 0.32 0.058zm4.539 0.612c-0.318-0.643-1.668-1.769-3.219-2.986 1.328 1.455 2.553 2.719 3.219 2.986zm-3.22-2.985c-0.083-0.091-0.167-0.183-0.251-0.275-0.014 0.016-0.029 0.031-0.042 0.046 0.099 0.076 0.198 0.152 0.293 0.229zm3.733 2.649c0.017-0.718-0.656-2.344-1.464-4.142 0.5 1.906 0.998 3.593 1.464 4.142zm-1.464-4.142c-0.034-0.128-0.067-0.259-0.101-0.389-0.021 7e-3 -0.043 0.015-0.063 0.023 0.054 0.122 0.11 0.245 0.164 0.366z" fill="url(#SvgjsRadialGradient2932)" opacity=".4"/>
  <path d="m76.354 84c0 1.3-1.053 2.353-2.353 2.353-1.299 0-2.354-1.053-2.354-2.353 0-1.299 1.055-2.354 2.354-2.354 1.3 0 2.353 1.054 2.353 2.354z" fill="#4e60a3" stroke-width="none"/>
  <path d="m76.354 84c0 1.3-1.053 2.353-2.353 2.353-1.299 0-2.354-1.053-2.354-2.353 0-1.299 1.055-2.354 2.354-2.354 1.3 0 2.353 1.054 2.353 2.354z" opacity=".9" stroke-width="none"/>
  <path d="m70.717 86.748c0.449-0.302 1.059-0.18 1.36 0.268 0.301 0.449 0.182 1.059-0.268 1.36-0.45 0.303-1.059 0.183-1.36-0.267-0.301-0.449-0.181-1.06 0.268-1.361z" fill="url(#SvgjsLinearGradient2938)" opacity=".5"/>
  <path d="m75.86 83.672c-0.251 0.374-0.969 0.331-1.606-0.096-0.638-0.427-0.95-1.078-0.7-1.451v-1e-3c0.25-0.374 0.969-0.331 1.605 0.097 0.639 0.426 0.951 1.076 0.701 1.451z" fill="url(#SvgjsLinearGradient2942)" opacity=".5"/>
  <path d="m78.716 82.673c-0.568 0.873-2.036 0.925-3.275 0.117-1.24-0.808-1.784-2.17-1.215-3.043 0.568-0.872 2.036-0.924 3.275-0.117 1.239 0.809 1.783 2.172 1.215 3.043z" fill="url(#SvgjsLinearGradient2946)" opacity=".75"/>
 </g>
 <path d="m-7.9334 62.371c0.69849-0.2794 3.2266-0.79374 4.3306-0.84613 1.339-0.06509 4.0266 0.09922 5.3458 0.33654 2.6781 0.48259 7.3429 1.9709 9.2693 5.7022 0.59213 1.147 0.05874 1.9494-0.09763 2.1233 0.23812-1.9256-3.8401-5.3546-9.5662-6.0356-5.9689-0.7096-10.491 0.58975-10.089 2.3479 0.96995 4.2449 5.4339 5.5665 8.3422 5.8776 3.2535 0.34845 9.2741-1.2216 10.069-1.3914-1.5867 0.80088-5.9721 1.6629-7.7525 1.828-0.59054 0.05556-1.778 0.08255-2.3701 0.06747-4.722-0.12541-8.0715-2.5201-9.3098-5.7626-0.79533-2.0844 0.074612-3.5472 1.828-4.2473z" stroke-width=".79374"/>
 <g id="svga-group-eyesback-right" transform="matrix(.79374 0 0 .79374 -57.756 .44298)">
  <path d="m137.85 82.523c0.506-2.285-5.191-3.973-12.711-3.051-7.518 0.923-12.738 5.524-12.052 7.844 0.38 1.286 10.639 3.245 14.253 2.847 3.664-0.405 9.288-2.123 10.51-7.64z" fill="url(#SvgjsRadialGradient2920)"/>
 </g>
 <g id="svga-group-eyesiriscontrol-right" transform="matrix(.79374 0 0 .79374 -57.954 .64142)">
  <g id="svga-group-eyesiris-right">
   <path d="m132 84c0 3.313-2.687 6-5.999 6-3.313 0-6.001-2.687-6.001-6 0-3.314 2.688-6 6.001-6 3.312-1e-3 5.999 2.686 5.999 6z" fill="#4e60a3" stroke-width="none"/>
   <path d="m125.33 78.066c-0.023 3e-3 -0.047 6e-3 -0.071 9e-3 0.029 0.135 0.058 0.271 0.085 0.406-6e-3 -0.137-9e-3 -0.277-0.014-0.415zm0.013 0.414c0.069 1.972 0.185 3.729 0.518 4.364 0.174-0.696-0.124-2.43-0.518-4.364zm0.517 4.365c-0.042 0.167-0.108 0.281-0.207 0.319-0.101 0.038-0.226-6e-3 -0.367-0.103 0.04 0.167 0.036 0.297-0.036 0.378s-0.201 0.101-0.372 0.078c0.112 0.13 0.171 0.249 0.146 0.353-0.028 0.104-0.134 0.182-0.293 0.242 0.158 0.063 0.265 0.141 0.29 0.245s-0.032 0.223-0.145 0.352c0.17-0.021 0.3 1e-3 0.37 0.082 0.071 0.081 0.075 0.212 0.035 0.379 0.141-0.097 0.266-0.139 0.365-0.1 0.102 0.038 0.166 0.152 0.206 0.32 0.08-0.152 0.172-0.249 0.279-0.26 0.105-0.014 0.217 0.059 0.329 0.188 2e-3 -0.172 0.037-0.299 0.128-0.36 0.087-0.061 0.219-0.049 0.379 0.013-0.078-0.152-0.104-0.281-0.056-0.377 0.051-0.095 0.174-0.146 0.345-0.166-0.141-0.099-0.228-0.2-0.225-0.308-1e-3 -0.108 0.084-0.209 0.227-0.306-0.171-0.021-0.291-0.072-0.342-0.167-0.05-0.095-0.022-0.225 0.057-0.377-0.161 0.06-0.291 0.072-0.38 0.011s-0.124-0.188-0.125-0.36c-0.111 0.128-0.224 0.199-0.33 0.185-0.107-0.014-0.198-0.108-0.278-0.261zm0.608 0.075c0.479-0.535 1.021-2.209 1.569-4.104-0.853 1.777-1.567 3.386-1.569 4.104zm1.569-4.104c0.06-0.122 0.121-0.246 0.179-0.37-0.021-7e-3 -0.042-0.017-0.063-0.026-0.039 0.133-0.077 0.266-0.116 0.396zm-1.063 4.454c0.673-0.252 1.932-1.483 3.298-2.905-1.582 1.176-2.963 2.269-3.298 2.905zm3.298-2.905c0.1-0.075 0.202-0.15 0.305-0.225-0.015-0.018-0.03-0.033-0.042-0.049-0.088 0.09-0.175 0.183-0.263 0.274zm-3.015 3.449c0.713 0.088 2.399-0.417 4.271-1.041-1.948 0.308-3.678 0.633-4.271 1.041zm4.271-1.04c0.11-0.016 0.225-0.034 0.337-0.052-5e-3 -0.019-9e-3 -0.038-0.014-0.057-0.107 0.036-0.217 0.073-0.323 0.109zm-4.273 1.653c0.591 0.412 2.318 0.747 4.263 1.063-1.866-0.633-3.549-1.148-4.263-1.063zm4.263 1.063c0.095 0.033 0.19 0.067 0.285 0.098 5e-3 -0.017 9e-3 -0.033 0.013-0.05-0.098-0.015-0.2-0.031-0.298-0.048zm-4.551-0.52c0.332 0.637 1.708 1.738 3.282 2.924-1.358-1.43-2.609-2.668-3.282-2.924zm3.283 2.922c0.059 0.062 0.119 0.126 0.178 0.189 0.01-0.012 0.02-0.021 0.031-0.032-0.07-0.052-0.142-0.105-0.209-0.157zm-3.787-2.575c-3e-3 0.719 0.702 2.331 1.547 4.113-0.54-1.897-1.071-3.575-1.547-4.113zm1.547 4.114c0.021 0.075 0.043 0.152 0.063 0.229 0.015-6e-3 0.026-0.01 0.039-0.014-0.034-0.072-0.069-0.146-0.102-0.215zm-2.157-4.042c-0.336 0.637-0.461 2.39-0.542 4.361 0.404-1.93 0.713-3.663 0.542-4.361zm-0.542 4.361c-0.017 0.075-0.031 0.151-0.047 0.228 0.014 3e-3 0.024 3e-3 0.039 5e-3 2e-3 -0.077 6e-3 -0.157 8e-3 -0.233zm-0.03-4.581c-0.596 0.407-1.521 1.904-2.508 3.61 1.255-1.52 2.334-2.912 2.508-3.61zm-2.508 3.61c-0.052 0.063-0.107 0.13-0.161 0.193 0.013 8e-3 0.024 0.014 0.037 0.024 0.041-0.072 0.084-0.145 0.124-0.217zm2.103-4.069c-0.716 0.083-2.23 0.978-3.897 2.029 1.818-0.762 3.418-1.491 3.897-2.029zm-3.897 2.031c-0.087 0.036-0.175 0.072-0.263 0.11 6e-3 0.013 0.014 0.027 0.023 0.04 0.08-0.049 0.16-0.1 0.24-0.15zm3.752-2.628c-0.672-0.257-2.43-0.168-4.396-0.011 1.965 0.168 3.722 0.265 4.396 0.011zm-4.396-0.011c-0.106-0.01-0.217-0.02-0.322-0.029-1e-3 0.019-3e-3 0.038-1e-3 0.056 0.109-0.01 0.218-0.019 0.323-0.027zm4.543-0.583c-0.474-0.539-2.069-1.277-3.882-2.051 1.659 1.06 3.169 1.964 3.882 2.051zm-3.882-2.051c-0.104-0.067-0.21-0.134-0.315-0.201-9e-3 0.019-0.019 0.038-0.028 0.055 0.115 0.049 0.232 0.097 0.343 0.146zm4.29 1.593c-0.169-0.698-1.241-2.094-2.485-3.623 0.976 1.712 1.893 3.213 2.485 3.623zm-2.485-3.623c-0.067-0.115-0.133-0.232-0.198-0.349-0.019 0.013-0.039 0.026-0.057 0.039 0.085 0.103 0.172 0.207 0.255 0.31z" fill="url(#SvgjsRadialGradient2951)" opacity=".7"/>
   <path d="m126.89 78.086c-0.024-3e-3 -0.047-7e-3 -0.07-0.01-8e-3 0.138-0.016 0.277-0.024 0.414 0.029-0.134 0.062-0.27 0.094-0.404zm-0.095 0.403c-0.443 1.922-0.787 3.649-0.63 4.35 0.35-0.628 0.51-2.38 0.63-4.35zm-0.63 4.35c-0.084 0.15-0.177 0.243-0.283 0.254-0.106 0.01-0.216-0.064-0.327-0.195-4e-3 0.171-0.042 0.297-0.133 0.356-0.09 0.059-0.221 0.045-0.38-0.021 0.075 0.155 0.101 0.285 0.049 0.378-0.054 0.094-0.176 0.142-0.346 0.158 0.138 0.101 0.22 0.204 0.217 0.312-2e-3 0.107-0.089 0.207-0.23 0.302 0.17 0.024 0.289 0.079 0.337 0.174 0.048 0.096 0.018 0.225-0.064 0.375 0.162-0.057 0.293-0.065 0.38-2e-3s0.12 0.19 0.115 0.363c0.117-0.125 0.229-0.196 0.337-0.179 0.105 0.014 0.194 0.113 0.27 0.268 0.046-0.167 0.113-0.279 0.216-0.315 0.101-0.036 0.226 0.01 0.363 0.111-0.035-0.167-0.028-0.299 0.045-0.378 0.072-0.079 0.204-0.096 0.375-0.072-0.11-0.132-0.168-0.251-0.138-0.355 0.027-0.104 0.136-0.18 0.299-0.237-0.159-0.064-0.263-0.145-0.288-0.25-0.022-0.105 0.038-0.223 0.154-0.349-0.172 0.016-0.302-6e-3 -0.37-0.088-0.07-0.082-0.072-0.214-0.027-0.379-0.143 0.094-0.269 0.134-0.368 0.093-0.102-0.041-0.166-0.156-0.203-0.324zm0.568 0.231c0.601-0.394 1.557-1.871 2.578-3.558-1.285 1.495-2.391 2.863-2.578 3.558zm2.578-3.559c0.089-0.102 0.18-0.206 0.269-0.311-0.02-0.013-0.037-0.028-0.056-0.042-0.071 0.119-0.142 0.238-0.213 0.353zm-2.18 4.027c0.715-0.07 2.249-0.934 3.937-1.953-1.833 0.727-3.45 1.425-3.937 1.953zm3.936-1.954c0.116-0.046 0.234-0.092 0.354-0.138-0.01-0.021-0.021-0.04-0.028-0.059-0.108 0.066-0.216 0.133-0.326 0.197zm-3.804 2.553c0.666 0.27 2.426 0.218 4.396 0.101-1.963-0.208-3.717-0.342-4.396-0.101zm4.395 0.1c0.111 0.013 0.226 0.025 0.339 0.037 1e-3 -0.02 1e-3 -0.039 2e-3 -0.058-0.113 7e-3 -0.229 0.014-0.341 0.021zm-4.554 0.492c0.463 0.551 2.046 1.321 3.842 2.129-1.639-1.095-3.131-2.027-3.842-2.129zm3.841 2.129c0.082 0.057 0.167 0.114 0.25 0.168 9e-3 -0.015 0.018-0.03 0.024-0.045-0.089-0.039-0.183-0.081-0.274-0.123zm-4.26-1.679c0.155 0.701 1.199 2.12 2.413 3.674-0.943-1.734-1.829-3.254-2.413-3.674zm2.414 3.671c0.041 0.075 0.082 0.153 0.124 0.229 0.012-9e-3 0.023-0.016 0.037-0.024-0.054-0.068-0.11-0.138-0.161-0.205zm-2.992-3.467c-0.188 0.693 0.076 2.433 0.43 4.373-0.031-1.972-0.109-3.73-0.43-4.373zm0.429 4.373c1e-3 0.078 3e-3 0.158 3e-3 0.238 0.015-2e-3 0.026-4e-3 0.04-4e-3 -0.013-0.077-0.028-0.157-0.043-0.234zm-1.037-4.462c-0.489 0.528-1.064 2.189-1.652 4.072 0.89-1.759 1.637-3.353 1.652-4.072zm-1.652 4.072c-0.035 0.068-0.069 0.138-0.104 0.208 0.012 6e-3 0.022 9e-3 0.035 0.015 0.023-0.073 0.047-0.15 0.069-0.223zm1.157-4.432c-0.68 0.239-1.961 1.446-3.356 2.838 1.606-1.144 3.008-2.209 3.356-2.838zm-3.356 2.838c-0.067 0.047-0.138 0.098-0.205 0.145 0.01 0.011 0.02 0.02 0.029 0.032 0.057-0.059 0.118-0.117 0.176-0.177zm3.084-3.387c-0.713-0.104-2.406 0.368-4.29 0.952 1.954-0.266 3.688-0.556 4.29-0.952zm-4.29 0.954c-0.093 0.013-0.188 0.024-0.283 0.039 4e-3 0.015 8e-3 0.03 0.013 0.044 0.09-0.026 0.18-0.056 0.27-0.083zm4.303-1.567c-0.582-0.423-2.303-0.792-4.242-1.149 1.854 0.671 3.526 1.22 4.242 1.149zm-4.242-1.149c-0.101-0.037-0.205-0.075-0.305-0.112-6e-3 0.019-0.011 0.037-0.015 0.054 0.108 0.019 0.216 0.039 0.32 0.058zm4.539 0.612c-0.318-0.643-1.669-1.769-3.22-2.986 1.329 1.455 2.554 2.719 3.22 2.986zm-3.22-2.985c-0.083-0.091-0.167-0.183-0.251-0.275-0.015 0.016-0.028 0.031-0.043 0.046 0.099 0.076 0.2 0.152 0.294 0.229zm3.733 2.649c0.017-0.718-0.656-2.344-1.464-4.142 0.501 1.906 0.998 3.593 1.464 4.142zm-1.464-4.142c-0.034-0.128-0.067-0.259-0.102-0.389-0.021 7e-3 -0.043 0.015-0.063 0.023 0.055 0.122 0.111 0.245 0.165 0.366z" fill="url(#SvgjsRadialGradient2955)" opacity=".4"/>
   <path d="m128.35 84c0 1.3-1.054 2.353-2.353 2.353-1.3 0-2.354-1.053-2.354-2.353 0-1.299 1.055-2.354 2.354-2.354 1.301 0 2.353 1.054 2.353 2.354z" fill="#4e60a3" stroke-width="none"/>
   <path d="m128.35 84c0 1.3-1.054 2.353-2.353 2.353-1.3 0-2.354-1.053-2.354-2.353 0-1.299 1.055-2.354 2.354-2.354 1.301 0 2.353 1.054 2.353 2.354z" opacity=".9" stroke-width="none"/>
   <path d="m122.72 86.748c0.448-0.302 1.059-0.18 1.359 0.268 0.302 0.449 0.183 1.059-0.268 1.36-0.45 0.303-1.059 0.183-1.359-0.267-0.302-0.449-0.182-1.06 0.268-1.361z" fill="url(#SvgjsLinearGradient2961)" opacity=".5"/>
   <path d="m127.86 83.672c-0.251 0.374-0.969 0.331-1.605-0.096-0.638-0.427-0.95-1.078-0.7-1.451l1e-3 -1e-3c0.25-0.374 0.969-0.331 1.605 0.097 0.638 0.426 0.95 1.076 0.699 1.451z" fill="url(#SvgjsLinearGradient2965)" opacity=".5"/>
   <path d="m130.72 82.673c-0.569 0.873-2.036 0.925-3.276 0.117-1.239-0.808-1.784-2.17-1.215-3.043 0.568-0.872 2.035-0.924 3.275-0.117 1.239 0.809 1.783 2.172 1.216 3.043z" fill="url(#SvgjsLinearGradient2969)" opacity=".75"/>
  </g>
 </g>
 <g stroke-width=".79374">
  <path d="m42.303 45.212c-12.732 0-16.769 9.5971-16.769 21.056 0 11.459 8.2279 17.789 16.561 17.704 7.0397 1.0692 15.634-8.9986 16.276-17.65 7.94e-4 -11.458-6.9397-21.111-16.068-21.111zm1.0128 26.797c-2.8686 0.31591-11.012-1.239-11.313-2.2598-0.5453-1.8415 3.5988-5.4935 9.5662-6.2261 5.9689-0.73183 10.491 0.6088 10.089 2.4217-0.96995 4.3791-5.4339 5.7427-8.3422 6.0642z" fill="#f0c7b1"/>
  <path d="m43.319 72.009c-2.8686 0.31591-11.012-1.239-11.313-2.2598-0.5453-1.8415 3.5988-5.4935 9.5662-6.2261 5.1276-0.62864 9.178 0.27384 9.9662 1.6891-0.71278-5.0799-6.1118-9.0463-12.69-9.0756-7.073-0.02937-12.817 4.5053-12.836 10.132-0.01667 5.626 5.703 10.209 12.775 10.241 7.0746 0.02937 12.818-4.5053 12.837-10.131 0-0.08334-0.0127-0.1651-0.01508-0.24844-1.0565 4.2283-5.4252 5.5625-8.2906 5.8792z" fill="url(#SvgjsRadialGradient3002)"/>
  <path d="m51.344 61.892c-3.3401-1.57-7.4215-1.7145-10.984-0.79771-1.9082 0.44529-3.9409 1.02-5.6062 2.0939-1.5438 0.9009-2.7979 1.9844-3.9703 3.3258 1.0652-1.3502 2.201-2.4749 3.6695-3.3893 1.8066-1.1239 3.7853-1.8208 5.8451-2.3145 3.6409-0.89375 7.7175-0.69055 11.046 1.0819z" fill="#c27b55"/>
  <path d="m50.852 62.371c-0.69849-0.2794-3.2266-0.79374-4.3306-0.84613-1.339-0.06509-4.0266 0.09922-5.3458 0.33654-2.6781 0.48259-7.3429 1.9709-9.2693 5.7022-0.59213 1.147-0.05874 1.9494 0.09763 2.1233-0.23812-1.9256 3.8401-5.3546 9.5662-6.0356 5.9689-0.7096 10.491 0.58975 10.089 2.3479-0.96995 4.2449-5.4339 5.5665-8.3422 5.8776-3.2535 0.34845-9.2741-1.2216-10.069-1.3914 1.5867 0.80088 5.9721 1.6629 7.7525 1.828 0.59054 0.05556 1.778 0.08255 2.3701 0.06747 4.722-0.12541 8.0715-2.5201 9.3098-5.7626 0.79533-2.0844-0.07461-3.5472-1.828-4.2473z"/>
 </g>
 <g id="svga-group-eyebrows-left" transform="matrix(.79374 0 0 .79374 -57.756 .44298)">
  <path d="m54 74.189c9.954-9.974 16.761-5.915 30.589-3.264 0.845 0.162 6.32 1.539 5.31 3.469-0.483 0.924-2.036 0.814-2.903 0.798-13.688-0.256-20.344-9.995-32.996-1.003z" fill="#2a232b" stroke-width="none"/>
 </g>
 <g id="svga-group-eyebrows-right" transform="matrix(.79374 0 0 .79374 -57.756 .44298)">
  <path d="m146 74.189c-9.953-9.974-16.761-5.915-30.589-3.264-0.846 0.162-6.32 1.539-5.311 3.469 0.483 0.924 2.036 0.814 2.903 0.798 13.688-0.256 20.345-9.995 32.997-1.003z" fill="#2a232b" stroke-width="none"/>
 </g>
 <g id="svga-group-nose-single" transform="matrix(.79374 0 0 .79374 -57.756 .44298)" stroke-width="none">
  <path d="m91.115 115.5c-0.878 2.064 5.934 4.292 8.519 4.429 2.8 0.147 10.646-2.9 9.316-4.992-1.399-2.195-6.643-0.286-8.906-0.286-2.252-1e-3 -7.753-1.905-8.929 0.849z" fill="#e1ac8f"/>
  <path d="m101.86 117.06c-0.23-0.759 1.876-1.584 2.657-1.694 1.101-0.16 3.36 0.802 3.158 1.592-0.184 0.698-2.148-0.533-2.86-0.429-0.734 0.107-2.737 1.242-2.955 0.531zm-6.883-0.247c0.968 0 2.404 0.623 2.668 0.074 0.315-0.655-2.139-1.461-2.86-1.372-0.596 0.07-2.733 1.315-2.439 1.839 0.274 0.481 1.355-0.541 2.631-0.541z" fill="#c27b55"/>
  <path d="m100.09 112c0.607 0 1.742-0.74 1.792-2.23 0.201-6.008-0.956-23.833-1.792-23.77-0.78 0.059-2.267 17.637-1.948 23.77 0.079 1.502 1.263 2.23 1.948 2.23z" fill="#fff5ef" opacity=".2"/>
 </g>
 <g id="svga-group-beardwrap" transform="matrix(.79374 0 0 .79374 -57.756 .44298)">
  <g id="svga-group-beard-single">
   <path d="m100 18.13z" fill="#2a232b" stroke-width="none"/>
  </g>
 </g>
 <g id="svga-group-mustache-single" transform="matrix(.79374 0 0 .79374 -57.756 .44298)">
  <path d="m100 18.13z" fill="#2a232b" stroke-width="none"/>
 </g>
 <g id="hair" transform="matrix(.79374 0 0 .79374 -57.756 .44298)" stroke-width="none">
  <path d="m158.43 41.325c-18.43-46.09-58.43-40.92-58.43-40.92s-40-5.169-58.43 40.92c-9.245 23.12 2.158 50.324 2.158 50.324h5.826c-5.094-21.752 0.796-17.662 1.176-21.722 0.118-1.255-0.3-3.367-0.421-4.622-0.592-6.112 1.982-18.029 5.245-23.173 1.603-2.526 5.369-6.659 8.174-7.699 9.97-3.694 20.044 0.715 22.854 1.421 4.461 1.12 22.373 1.12 26.836 0 3.343-0.839 13.182-4.905 22.854-1.321 2.806 1.04 6.871 4.972 8.474 7.499 3.263 5.144 5.537 16.16 4.945 22.272-0.121 1.255-0.539 4.367-0.422 5.623 0.107 1.147 2.617 3.689 2.898 4.807 1.16 4.612-1.722 16.915-1.722 16.915h5.825c1e-3 0 11.406-27.204 2.16-50.324z" fill="#2a232b"/>
  <path d="m154.94 31.163c-18.76-34.277-52.959-31.794-54.938-31.618-1.979-0.176-36.177-2.659-54.938 31.618-14.492 26.478-3.492 56.974-2.155 60.449 0.076 0.197 1.576 0.038 1.576 0.038-6e-3 -0.015-0.104-0.392-0.166-0.55-1.209-3.12-12.189-33.18 2.061-59.216 18.733-34.226 53.217-30.877 53.562-30.838l0.06-0.542 0.06 0.542c0.345-0.039 34.829-3.388 53.563 30.837 14.563 26.61 2.773 57.423 1.996 59.383-0.021 0.055-0.107 0.375-0.111 0.383 0 0 1.506 0.169 1.575-0.011 1.291-3.344 12.384-33.929-2.145-60.475z"/>
 </g>
 <g id="svga-group-glasses-single" transform="matrix(.79374 0 0 .79374 -57.756 .44298)">
  <path d="m100 18.13z" fill="#26120b" stroke-width="none"/>
 </g>
 <rect x="-57.756" y="147.28" width="158.75" height="11.906" display="none" fill="#ecf0f1" opacity=".5" stroke-width=".79374"/>
 <text x="21.618313" y="147.28488" display="none" fill="#000000" font-family="Roboto, 'Helvetica Neue', Helvetica, Arial, sans-serif" font-size="8.0009px" font-weight="400" stroke-width=".79374" text-anchor="middle">
  <tspan x="21.618313" dy="11.429856" font-family="Roboto, 'Helvetica Neue', Helvetica, Arial, sans-serif" font-size="6.7208px" font-weight="400" stroke-width=".79374" text-anchor="middle">Created by face.co</tspan>
 </text>
</svg>
